<?xml version='1.0' encoding='UTF-8' standalone='no'?>
<svg xmlns:rdf="http://www.w3.org/1999/02/22-rdf-syntax-ns#" xmlns="http://www.w3.org/2000/svg" xmlns:sodipodi="http://sodipodi.sourceforge.net/DTD/sodipodi-0.dtd" height="186.00983mm" inkscape:version="0.92.4 (5da689c313, 2019-01-14)" xmlns:dc="http://purl.org/dc/elements/1.1/" version="1.1" xmlns:xlink="http://www.w3.org/1999/xlink" sodipodi:docname="Saftfluss_1.svg" xmlns:svg="http://www.w3.org/2000/svg" xmlns:inkscape="http://www.inkscape.org/namespaces/inkscape" id="svg8" width="351.52878mm" viewBox="0 0 351.52878 186.00983" xmlns:cc="http://creativecommons.org/ns#">
 <defs id="defs2">
  <rect height="42.333332" id="rect946" y="26.458332" width="72.571426" x="424.84525"/>
  <rect height="33.408691" y="182.54509" id="rect1410" x="187.35594" width="63.877419"/>
  <rect height="50.781212" y="114.9259" id="rect1404" x="197.51218" width="76.171814"/>
  <rect height="26.364712" y="56.126598" id="rect1396" x="194.30495" width="177.65555"/>
  <mask maskUnits="userSpaceOnUse" id="mask861">
   <rect height="320.79611" id="rect863" y="-28.295387" width="275.439" x="448.33261" style="opacity:1;fill:#ff6600;fill-opacity:1;stroke:#999999;stroke-width:0.34566;stroke-miterlimit:4;stroke-dasharray:0.691317, 0.691317;stroke-dashoffset:0;stroke-opacity:0.09841273"/>
  </mask>
  <pattern xlink:href="#pattern2380" patternTransform="translate(481.8078,272.0608)" id="pattern2390"/>
  <pattern xlink:href="#pattern2380" patternTransform="translate(522.5249,272.0608)" id="pattern2388"/>
  <pattern xlink:href="#pattern2374" patternTransform="translate(-598.2133,273.0787)" id="pattern2386"/>
  <pattern xlink:href="#pattern2374" patternTransform="translate(-471.9903,274.0966)" id="pattern2384"/>
  <pattern xlink:href="#pattern2374" patternTransform="translate(-364.0900,272.0608)" id="pattern2382"/>
  <pattern xlink:href="#pattern2372" patternTransform="translate(393.2481,273.0787)" id="pattern2380"/>
  <pattern xlink:href="#pattern2372" patternTransform="translate(282.2940,272.0608)" id="pattern2378"/>
  <pattern xlink:href="#pattern2372" patternTransform="translate(237.5052,272.0607)" id="pattern2376"/>
  <pattern xlink:href="#pattern2372" patternTransform="translate(-227.6877,272.0608)" id="pattern2374"/>
  <pattern xlink:href="#pattern2368" patternTransform="translate(147.8004,271.5518)" id="pattern2372"/>
  <linearGradient id="linearGradient2362">
   <stop stop-color="#00b207" id="stop2363" offset="0"/>
   <stop stop-color="#83d400" id="stop2365" offset="0.5"/>
   <stop stop-color="#00b207" id="stop2364" offset="1"/>
  </linearGradient>
  <linearGradient xlink:href="#linearGradient2362" x2="0.81934297" y2="0.28826401" id="linearGradient2367" x1="-0.094341002" y1="0.28826401"/>
  <pattern height="35.26939" patternTransform="translate(93.85020,187.0638)" id="pattern2368" width="35.989169" patternUnits="userSpaceOnUse">
   <path stroke-width="0.25000000pt" d="m32.210312,34.999451l3.778862,0.134964l-34.549599,-0.044998c-0.929726,-11.786438 -1.22963,-18.444443 -1.439575,-35.089432c1.709496,17.154831 1.619514,21.443542 2.159355,32.570206c0.089966,-6.568039 0.539841,-12.506241 1.619507,-18.894333c0.059982,7.197845 -0.239929,13.765869 -0.899727,20.51384c0.359886,0.239929 0.719788,0.479858 1.079681,0.719788l3.059074,0c-1.139656,-2.279327 -1.649498,-4.648605 -1.799461,-6.298111c0.899734,1.499542 1.619514,3.179047 2.159355,5.578323c-0.779762,-4.76857 -1.289612,-9.267227 -1.259621,-14.035782c0.959709,5.578323 1.559532,8.637405 1.799461,12.9561c0.179947,-2.939117 0.089966,-5.698273 0.539841,-8.817337c0.389877,3.718887 0.419876,7.257813 0,10.52684l5.578316,0.089966c-0.779762,-5.098465 -1.289612,-9.20723 -1.259621,-15.295395c1.199638,5.818237 1.319603,9.477142 1.979401,14.215714c-0.239929,-5.818253 -0.749771,-7.947617 0.9897,-16.824936c-0.569832,9.357193 -0.869736,11.246613 0.629814,18.264511l5.938217,0c0.20993,-9.357193 0.149948,-13.585922 -0.719788,-25.372375c2.309311,10.316895 1.829445,14.065765 1.349594,23.213013c0.539841,-7.677689 0.359894,-24.442642 3.329002,-30.500824c-1.829453,9.74707 -2.129356,21.113647 -2.699188,32.300293l6.298096,0c-0.839737,-4.138763 -1.589516,-8.277512 -1.43956,-12.416275c0.929726,6.148148 1.319603,8.607407 2.609215,11.066666c-0.449875,-5.368378 0.179947,-10.826736 1.529541,-15.745255c-0.599823,6.687988 -1.245705,14.735336 -0.359894,17.18483z" fill-rule="evenodd" id="path2369" fill="url(#linearGradient2367)"/>
  </pattern>
  <pattern xlink:href="#pattern2380-4" patternTransform="translate(481.8078,272.0608)" id="pattern2390-0"/>
  <pattern xlink:href="#pattern2380-4" patternTransform="translate(522.5249,272.0608)" id="pattern2388-2"/>
  <pattern xlink:href="#pattern2374-5" patternTransform="translate(-598.2133,273.0787)" id="pattern2386-1"/>
  <pattern xlink:href="#pattern2374-5" patternTransform="translate(-471.9903,274.0966)" id="pattern2384-2"/>
  <pattern xlink:href="#pattern2374-5" patternTransform="translate(-364.0900,272.0608)" id="pattern2382-4"/>
  <pattern xlink:href="#pattern2372-7" patternTransform="translate(393.2481,273.0787)" id="pattern2380-4"/>
  <pattern xlink:href="#pattern2372-7" patternTransform="translate(282.2940,272.0608)" id="pattern2378-0"/>
  <pattern xlink:href="#pattern2372-7" patternTransform="translate(237.5052,272.0607)" id="pattern2376-0"/>
  <pattern xlink:href="#pattern2372-7" patternTransform="translate(-227.6877,272.0608)" id="pattern2374-5"/>
  <pattern xlink:href="#pattern2368-0" patternTransform="translate(147.8004,271.5518)" id="pattern2372-7"/>
  <pattern height="35.26939" patternTransform="translate(93.85020,187.0638)" id="pattern2368-0" width="35.989169" patternUnits="userSpaceOnUse">
   <path stroke-width="0.25000000pt" d="m32.210312,34.999451l3.778862,0.134964l-34.549599,-0.044998c-0.929726,-11.786438 -1.22963,-18.444443 -1.439575,-35.089432c1.709496,17.154831 1.619514,21.443542 2.159355,32.570206c0.089966,-6.568039 0.539841,-12.506241 1.619507,-18.894333c0.059982,7.197845 -0.239929,13.765869 -0.899727,20.51384c0.359886,0.239929 0.719788,0.479858 1.079681,0.719788l3.059074,0c-1.139656,-2.279327 -1.649498,-4.648605 -1.799461,-6.298111c0.899734,1.499542 1.619514,3.179047 2.159355,5.578323c-0.779762,-4.76857 -1.289612,-9.267227 -1.259621,-14.035782c0.959709,5.578323 1.559532,8.637405 1.799461,12.9561c0.179947,-2.939117 0.089966,-5.698273 0.539841,-8.817337c0.389877,3.718887 0.419876,7.257813 0,10.52684l5.578316,0.089966c-0.779762,-5.098465 -1.289612,-9.20723 -1.259621,-15.295395c1.199638,5.818237 1.319603,9.477142 1.979401,14.215714c-0.239929,-5.818253 -0.749771,-7.947617 0.9897,-16.824936c-0.569832,9.357193 -0.869736,11.246613 0.629814,18.264511l5.938217,0c0.20993,-9.357193 0.149948,-13.585922 -0.719788,-25.372375c2.309311,10.316895 1.829445,14.065765 1.349594,23.213013c0.539841,-7.677689 0.359894,-24.442642 3.329002,-30.500824c-1.829453,9.74707 -2.129356,21.113647 -2.699188,32.300293l6.298096,0c-0.839737,-4.138763 -1.589516,-8.277512 -1.43956,-12.416275c0.929726,6.148148 1.319603,8.607407 2.609215,11.066666c-0.449875,-5.368378 0.179947,-10.826736 1.529541,-15.745255c-0.599823,6.687988 -1.245705,14.735336 -0.359894,17.18483z" fill-rule="evenodd" id="path2369-6" fill="url(#linearGradient2367)"/>
  </pattern>
  <rect height="28.306011" id="rect1410-1" y="182.54509" width="99.407181" x="187.35594"/>
  <rect height="33.408691" id="rect923" y="182.54509" width="63.877419" x="187.35594"/>
  <rect height="35.814117" id="rect1396-0" y="56.126598" width="132.29842" x="194.30495"/>
  <rect height="35.814117" id="rect989" y="56.126598" width="132.29842" x="194.30495"/>
  <rect height="35.814117" y="56.126598" id="rect1396-0-9" x="194.30495" width="132.29842"/>
  <rect height="35.814117" y="56.126598" id="rect1032" x="194.30495" width="132.29842"/>
 </defs>
 <sodipodi:namedview inkscape:current-layer="layer1" bordercolor="#666666" inkscape:window-y="1071" inkscape:zoom="0.49497475" inkscape:cx="667.22491" pagecolor="#ffffff" inkscape:document-rotation="0" inkscape:document-units="mm" borderopacity="1.0" inkscape:window-height="1001" fit-margin-right="0" fit-margin-top="0" inkscape:pageshadow="2" showborder="true" fit-margin-bottom="0" showgrid="false" inkscape:window-x="-9" fit-margin-left="0" inkscape:window-maximized="1" id="base" inkscape:window-width="1920" inkscape:snap-global="false" inkscape:pageopacity="0.0" inkscape:cy="480.58482"/>
 <metadata id="metadata5">
  <rdf:RDF>
   <cc:Work rdf:about="">
    <dc:format>image/svg+xml</dc:format>
    <dc:type rdf:resource="http://purl.org/dc/dcmitype/StillImage"/>
    <dc:title/>
   </cc:Work>
  </rdf:RDF>
 </metadata>
 <g inkscape:groupmode="layer" inkscape:label="Ebene 1" id="layer1" transform="translate(36.385437,9.4184786)">
  <text xml:space="preserve" id="text944" style="font-style:normal;font-weight:normal;font-size:10.58329964px;line-height:1.25;font-family:sans-serif;letter-spacing:0px;word-spacing:0px;white-space:pre;shape-inside:url(#rect946);fill:#000000;fill-opacity:1;stroke:none"/>
  <ellipse cx="-194.40877" cy="50.230782" rx="32.291828" id="path4518-7" ry="7.9001842" style="fill:none;fill-opacity:0.4;stroke:#000000;stroke-width:2.12591028;stroke-miterlimit:4;stroke-dasharray:none;stroke-dashoffset:0;stroke-opacity:0.994135" transform="scale(-1,1)"/>
  <ellipse cx="-194.7821" cy="51.599693" rx="74.345863" id="path4518-7-3" ry="18.095734" style="fill:none;fill-opacity:0.4;stroke:#000000;stroke-width:2.4603591;stroke-miterlimit:4;stroke-dasharray:none;stroke-dashoffset:0;stroke-opacity:0.994135" transform="scale(-1,1)"/>
  <ellipse cx="-194.40877" cy="142.69505" rx="32.291828" id="path4518-7-9" ry="7.9001842" style="fill:none;fill-opacity:0.4;stroke:#000000;stroke-width:2.12591028;stroke-miterlimit:4;stroke-dasharray:none;stroke-dashoffset:0;stroke-opacity:0.994135" transform="scale(-1,1)"/>
  <ellipse cx="-194.7821" cy="144.06398" rx="74.345863" id="path4518-7-3-3" ry="18.095734" style="fill:none;fill-opacity:0.4;stroke:#000000;stroke-width:2.4603591;stroke-miterlimit:4;stroke-dasharray:none;stroke-dashoffset:0;stroke-opacity:0.994135" transform="scale(-1,1)"/>
  <rect height="92.87899" id="rect4653" y="51.454552" width="0.29027945" x="-269.22223" style="fill:none;fill-opacity:0.4;stroke:#000000;stroke-width:1.67397535;stroke-miterlimit:4;stroke-dasharray:none;stroke-dashoffset:0;stroke-opacity:0.994135" transform="scale(-1,1)"/>
  <rect height="92.87899" id="rect4653-8" y="52.325684" width="0.29027945" x="-120.75671" style="fill:none;fill-opacity:0.4;stroke:#000000;stroke-width:1.67397535;stroke-miterlimit:4;stroke-dasharray:none;stroke-dashoffset:0;stroke-opacity:0.994135" transform="scale(-1,1)"/>
  <rect height="92.87899" id="rect4653-8-5" y="50.583443" width="0.29027945" x="-162.32207" style="fill:none;fill-opacity:0.4;stroke:#000000;stroke-width:1.67397535;stroke-miterlimit:4;stroke-dasharray:1.67397537, 1.67397537;stroke-dashoffset:0;stroke-opacity:0.994135" transform="scale(-1,1)"/>
  <rect height="92.87899" id="rect4653-8-5-2" y="50.583424" width="0.29027945" x="-227.03461" style="fill:none;fill-opacity:0.4;stroke:#000000;stroke-width:1.67397535;stroke-miterlimit:4;stroke-dasharray:1.67397537, 1.67397537;stroke-dashoffset:0;stroke-opacity:0.994135" transform="scale(-1,1)"/>
  <path sodipodi:nodetypes="cccccccc" d="m 148.26325,171.80895 -1.31355,-141.624636 5.56336,-0.04852 -14.19962,-37.6685278 -13.49855,37.9103848 5.56333,-0.0487 1.31356,141.624589 z" inkscape:connector-curvature="0" id="path5368" style="display:inline;fill:#00ffff;fill-opacity:0.52548996;stroke:#00ffff;stroke-width:1.29781985;stroke-linecap:butt;stroke-linejoin:miter;stroke-miterlimit:4;stroke-dasharray:none;stroke-opacity:0.07352941"/>
 </g>
</svg>
