<?xml version='1.0' encoding='UTF-8' standalone='no'?>
<svg viewBox="0 0 74.37948 64.414522" xmlns="http://www.w3.org/2000/svg" width="74.379478" sodipodi:docname="Forschungsmenu2.svg" xmlns:dc="http://purl.org/dc/elements/1.1/" xmlns:cc="http://creativecommons.org/ns#" version="1.1" xmlns:sodipodi="http://sodipodi.sourceforge.net/DTD/sodipodi-0.dtd" inkscape:version="0.92.4 (5da689c313, 2019-01-14)" xmlns:rdf="http://www.w3.org/1999/02/22-rdf-syntax-ns#" xmlns:svg="http://www.w3.org/2000/svg" xmlns:inkscape="http://www.inkscape.org/namespaces/inkscape" height="64.41452" id="svg2">
 <sodipodi:namedview inkscape:window-height="1001" id="namedview9" inkscape:zoom="5.1813535" inkscape:snap-global="false" guidetolerance="10" inkscape:pageshadow="2" inkscape:current-layer="svg2" borderopacity="1" inkscape:pageopacity="0" inkscape:cx="1.3517107" bordercolor="#666666" gridtolerance="10" showgrid="false" inkscape:window-x="-9" pagecolor="#ffffff" objecttolerance="10" inkscape:window-maximized="1" inkscape:window-width="1920" inkscape:window-y="-9" inkscape:cy="40.532149"/>
 <metadata id="metadata8">
  <rdf:RDF>
   <cc:Work rdf:about="">
    <dc:format>image/svg+xml</dc:format>
    <dc:type rdf:resource="http://purl.org/dc/dcmitype/StillImage"/>
    <dc:title/>
   </cc:Work>
  </rdf:RDF>
 </metadata>
 <defs id="defs6">
  <clipPath clipPathUnits="userSpaceOnUse" id="clipPath143">
   <rect width="203.14427" x="-715.1568" y="67.804993" style="stroke-width:1.71212864" transform="rotate(-43.315315)" height="203.14427" id="rect145"/>
  </clipPath>
  <clipPath clipPathUnits="userSpaceOnUse" id="clipPath4552">
   <path inkscape:connector-curvature="0" style="fill:none;stroke:#000000;stroke-width:1px;stroke-linecap:butt;stroke-linejoin:miter;stroke-opacity:1" d="m -128.73083,-8.1533909 23.73896,-23.7389721 -19.10698,-8.491988 -18.52798,7.333991 13.896,24.8969691" id="path4554"/>
  </clipPath>
  <clipPath clipPathUnits="userSpaceOnUse" id="clipPath4699">
   <rect ry="2.8949964" width="28.098379" x="-110.9439" y="-27.416504" style="fill:none;stroke:#000000;stroke-width:0.30673707;stroke-miterlimit:4;stroke-dasharray:none;stroke-dashoffset:0;stroke-opacity:1" height="27.955021" id="rect4701"/>
  </clipPath>
  <clipPath clipPathUnits="userSpaceOnUse" id="clipPath4937">
   <path inkscape:connector-curvature="0" style="fill:none;stroke:#000000;stroke-width:0.33466932;stroke-linecap:butt;stroke-linejoin:miter;stroke-miterlimit:4;stroke-dasharray:none;stroke-opacity:1" d="m -106.60726,-13.805544 3.31029,2.502905 9.527187,2.5029055 1.937734,3.7139881 -15.178911,2.7451217 -9.28497,-6.2976321 z" id="path4939"/>
  </clipPath>
  <clipPath clipPathUnits="userSpaceOnUse" id="clipPath4913">
   <circle r="24.283579" cx="-88.579475" transform="rotate(-38.419141)" style="fill:none;stroke:#4d4d4d;stroke-width:1.33852994" cy="-54.134789" id="circle4915"/>
  </clipPath>
  <clipPath clipPathUnits="userSpaceOnUse" id="clipPath4719">
   <rect width="8.8779888" ry="0.40744901" x="-34.546959" y="25.718069" style="fill:#000000;fill-opacity:1;stroke:#000000" rx="2.47085" id="rect4721" height="42.942448"/>
  </clipPath>
  <clipPath clipPathUnits="userSpaceOnUse" id="clipPath896">
   <rect width="8.8779888" ry="0.40744901" x="-34.546959" y="25.718069" style="fill:#000000;fill-opacity:1;stroke:#000000" rx="2.47085" id="rect894" height="42.942448"/>
  </clipPath>
  <clipPath clipPathUnits="userSpaceOnUse" id="clipPath4897">
   <circle r="10.929907" cx="-52.648228" transform="rotate(-38.419141)" style="fill:none;stroke:#4d4d4d;stroke-width:0.60246503" cy="-28.001387" id="circle4899"/>
  </clipPath>
  <clipPath clipPathUnits="userSpaceOnUse" id="clipPath4893">
   <circle r="10.929907" cx="-52.648228" transform="rotate(-38.419141)" style="fill:none;stroke:#4d4d4d;stroke-width:0.60246503" cy="-28.001387" id="circle4895"/>
  </clipPath>
  <clipPath clipPathUnits="userSpaceOnUse" id="clipPath4889">
   <circle r="10.929907" cx="-52.648228" transform="rotate(-38.419141)" style="fill:none;stroke:#4d4d4d;stroke-width:0.60246503" cy="-28.001387" id="circle4891"/>
  </clipPath>
  <clipPath clipPathUnits="userSpaceOnUse" id="clipPath4885">
   <circle r="10.929907" cx="-52.648228" transform="rotate(-38.419141)" style="fill:none;stroke:#4d4d4d;stroke-width:0.60246503" cy="-28.001387" id="circle4887"/>
  </clipPath>
  <clipPath clipPathUnits="userSpaceOnUse" id="clipPath4719-5">
   <rect width="8.8779888" ry="0.40744901" x="-34.546959" y="25.718069" style="fill:#000000;fill-opacity:1;stroke:#000000" rx="2.47085" id="rect4721-2" height="42.942448"/>
  </clipPath>
  <clipPath clipPathUnits="userSpaceOnUse" id="clipPath932">
   <rect width="8.8779888" ry="0.40744901" x="-34.546959" y="25.718069" style="fill:#000000;fill-opacity:1;stroke:#000000" rx="2.47085" id="rect930" height="42.942448"/>
  </clipPath>
  <clipPath clipPathUnits="userSpaceOnUse" id="clipPath4719-4">
   <rect width="8.8779888" ry="0.40744901" x="-34.546959" y="25.718069" style="fill:#000000;fill-opacity:1;stroke:#000000" rx="2.47085" id="rect4721-0" height="42.942448"/>
  </clipPath>
  <clipPath clipPathUnits="userSpaceOnUse" id="clipPath1979">
   <rect width="8.8779888" ry="0.40744901" x="-34.546959" y="25.718069" style="fill:#000000;fill-opacity:1;stroke:#000000" rx="2.47085" id="rect1977" height="42.942448"/>
  </clipPath>
  <clipPath clipPathUnits="userSpaceOnUse" id="clipPath4699-1">
   <rect ry="2.8949964" width="28.098379" x="-110.9439" y="-27.416504" style="fill:none;stroke:#000000;stroke-width:0.30673707;stroke-miterlimit:4;stroke-dasharray:none;stroke-dashoffset:0;stroke-opacity:1" height="27.955021" id="rect4701-3"/>
  </clipPath>
  <clipPath clipPathUnits="userSpaceOnUse" id="clipPath4699-1-3">
   <rect ry="2.8949964" width="28.098379" x="-110.9439" y="-27.416504" style="fill:none;stroke:#000000;stroke-width:0.30673707;stroke-miterlimit:4;stroke-dasharray:none;stroke-dashoffset:0;stroke-opacity:1" height="27.955021" id="rect4701-3-0"/>
  </clipPath>
  <clipPath clipPathUnits="userSpaceOnUse" id="clipPath4741">
   <path inkscape:connector-curvature="0" style="fill:none;stroke:#000000;stroke-width:0.3166177;stroke-miterlimit:4;stroke-dasharray:none;stroke-dashoffset:0;stroke-opacity:1" d="m -45.147672,53.247474 h 23.026982 c 1.655488,0 2.988248,1.332759 2.988248,2.98825 v 22.879008 c 0,1.655491 -1.33276,2.988251 -2.988248,2.988251 h -23.026982 c -1.655493,0 -2.988255,-1.33276 -2.988255,-2.988251 V 56.235724 c 0,-1.655491 1.332762,-2.98825 2.988255,-2.98825 z" id="path4743"/>
  </clipPath>
 </defs>
 <path style="fill:#00ffcc;fill-opacity:1;stroke:#333333;stroke-width:0.98378992;stroke-miterlimit:4;stroke-dasharray:none;stroke-dashoffset:0;stroke-opacity:1" transform="matrix(1.7928181,-3.1052519,3.1052519,1.7928181,-834.58663,556.43199)" d="m 257.98303,137.45625 -4.90194,8.49041 h -9.80387 l -4.90194,-8.49041 4.90194,-8.4904 h 9.80387 z" id="path2038"/>
 <g transform="translate(0.01365378,2.1906424)" id="g920">
  <path inkscape:connector-curvature="0" style="opacity:0.47700004;fill:#ffffff;stroke:#666666;stroke-width:0.60572165" d="m 25.342508,11.25062 c -1.779484,0 -3.211836,1.36987 -3.211836,3.07172 v 35.0859 c 0,1.701856 1.432352,3.071723 3.211836,3.071723 h 23.667174 c 1.779483,0 3.211835,-1.369867 3.211835,-3.071723 v -35.0859 c 0,-1.70185 -1.432352,-3.07172 -3.211835,-3.07172 h -2.658987 v 4.295786 c 0,0.456002 -0.384528,0.822597 -0.86133,0.822597 H 28.861614 c -0.4768,0 -0.861327,-0.366595 -0.861327,-0.822597 V 11.25062 Z" id="path4813"/>
  <g transform="matrix(0.6193822,0,0,0.5923623,97.245921,21.113521)" style="fill:#666666;stroke:#666666" id="g4819">
   <path inkscape:connector-curvature="0" style="fill:#666666;stroke:#666666;stroke-width:0.90350598" d="m -110.4063,-18.848602 c -0.7698,0 -1.39063,0.618869 -1.39063,1.388672 v 9.8632813 c 0,0.7698024 0.62083,1.3886719 1.39063,1.3886719 h 26.845703 c 0.769802,0 1.390625,-0.6188695 1.390625,-1.3886719 V -17.45993 c 0,-0.769803 -0.620823,-1.388672 -1.390625,-1.388672 h -6.339844 a 7.0927415,7.0927415 0 0 1 -7.082031,6.802734 7.0927415,7.0927415 0 0 1 -7.078128,-6.802734 z" id="path4815"/>
   <path inkscape:connector-curvature="0" style="fill:#666666;stroke:#666666" d="m -96.98345,-22.903122 a 7.0927415,7.0927415 0 0 0 -7.0918,7.091797 7.0927415,7.0927415 0 0 0 7.0918,7.0937483 7.0927415,7.0927415 0 0 0 7.091797,-7.0937483 7.0927415,7.0927415 0 0 0 -7.091797,-7.091797 z m 0,3.232422 a 3.8599954,3.8599954 0 0 1 3.859375,3.859375 3.8599954,3.8599954 0 0 1 -3.859375,3.861327 3.8599954,3.8599954 0 0 1 -3.85938,-3.861327 3.8599954,3.8599954 0 0 1 3.85938,-3.859375 z" id="path4817"/>
  </g>
  <rect width="2.9701266" ry="0.078497514" x="37.483616" y="39.784107" style="fill:#999999;stroke:#999999;stroke-width:0.32689494" id="rect4825" height="8.3143196"/>
  <rect width="18.495789" ry="0.10125431" x="27.293413" y="49.178478" style="fill:#4d4d4d;fill-opacity:1;stroke:#4d4d4d;stroke-width:0.4946301;stroke-opacity:1" id="rect4829" height="0.20250863"/>
  <rect width="2.9701266" ry="0.17972173" x="32.706806" y="29.062618" style="fill:#999999;stroke:#999999;stroke-width:0.4946301" id="rect4825-9" height="19.035812"/>
  <rect width="2.9701266" ry="0.12927037" x="27.93" y="34.406338" style="fill:#999999;stroke:#999999;stroke-width:0.41949785" id="rect4825-7" height="13.692092"/>
  <rect width="2.9701266" ry="0.14711723" x="42.260422" y="32.516033" style="fill:#999999;stroke:#999999;stroke-width:0.44751954" id="rect4825-79" height="15.5824"/>
  <path inkscape:connector-curvature="0" style="fill:none;fill-opacity:1;stroke:#4d4d4d;stroke-width:0.87400001;stroke-miterlimit:4;stroke-dasharray:none;stroke-dashoffset:0;stroke-opacity:1" d="m 26.553362,26.913863 h 1.73432 l 0.867159,1.501964 -0.86716,1.501964 h -1.734318 l -0.867159,-1.501964 z" id="path4006-2-4"/>
  <path inkscape:connector-curvature="0" style="fill:none;fill-opacity:1;stroke:#4d4d4d;stroke-width:0.87400001;stroke-miterlimit:4;stroke-dasharray:none;stroke-dashoffset:0;stroke-opacity:1" d="m 32.264513,21.019457 h 1.73432 l 0.867159,1.501964 -0.86716,1.501964 h -1.734318 l -0.867159,-1.501964 z" id="path4006-2-4-2"/>
  <path inkscape:connector-curvature="0" style="fill:none;fill-opacity:1;stroke:#4d4d4d;stroke-width:0.87400001;stroke-miterlimit:4;stroke-dasharray:none;stroke-dashoffset:0;stroke-opacity:1" d="m 38.481895,24.367277 h 1.73432 l 0.867159,1.501964 -0.86716,1.501964 h -1.734318 l -0.867159,-1.501964 z" id="path4006-2-4-2-3"/>
  <path inkscape:connector-curvature="0" style="fill:none;fill-opacity:1;stroke:#4d4d4d;stroke-width:0.87400001;stroke-miterlimit:4;stroke-dasharray:none;stroke-dashoffset:0;stroke-opacity:1" d="m 44.041669,19.943371 h 1.73432 l 0.867159,1.501964 -0.86716,1.501964 H 44.04167 l -0.867159,-1.501964 z" id="path4006-2-4-2-2"/>
  <rect width="5.3318753" ry="0.028760798" x="-1.114467" y="39.595036" transform="matrix(0.61096842,-0.79165497,0.73655766,0.67637476,0,0)" style="fill:#4d4d4d;fill-opacity:1;stroke:#4d4d4d;stroke-width:0.14153956;stroke-opacity:1" id="rect4829-7" height="0.0575216"/>
  <rect width="4.3753724" ry="0.024020648" x="-45.493835" y="1.6610929" transform="matrix(-0.85140508,-0.52450871,-0.41402403,0.91026595,0,0)" style="fill:#4d4d4d;fill-opacity:1;stroke:#4d4d4d;stroke-width:0.11717562;stroke-opacity:1" id="rect4829-7-2" height="0.048041295"/>
  <rect width="4.3753724" ry="0.024020648" x="-9.5788193" y="46.851101" transform="matrix(-0.71435176,0.6997868,0.78355475,0.62132275,0,0)" style="fill:#4d4d4d;fill-opacity:1;stroke:#4d4d4d;stroke-width:0.11717562;stroke-opacity:1" id="rect4829-7-2-6" height="0.048041295"/>
 </g>
</svg>
