<?xml version='1.0' encoding='UTF-8' standalone='no'?>
<svg height="64.414513" xmlns:sodipodi="http://sodipodi.sourceforge.net/DTD/sodipodi-0.dtd" xmlns:rdf="http://www.w3.org/1999/02/22-rdf-syntax-ns#" xmlns:inkscape="http://www.inkscape.org/namespaces/inkscape" width="74.379471" xmlns:cc="http://creativecommons.org/ns#" viewBox="0 0 74.379472 64.414514" inkscape:version="0.92.4 (5da689c313, 2019-01-14)" xmlns:dc="http://purl.org/dc/elements/1.1/" version="1.1" xmlns="http://www.w3.org/2000/svg" id="svg2" xmlns:svg="http://www.w3.org/2000/svg" sodipodi:docname="HerzHandVerstand2.svg">
 <sodipodi:namedview inkscape:current-layer="svg2" inkscape:cx="38.866138" inkscape:window-y="-9" fit-margin-left="0" guidetolerance="10" fit-margin-bottom="0" inkscape:cy="34.876223" fit-margin-right="0" inkscape:snap-global="true" inkscape:pageopacity="0" pagecolor="#ffffff" bordercolor="#666666" inkscape:window-x="-9" inkscape:window-width="1920" borderopacity="1" objecttolerance="10" inkscape:zoom="5.6568542" gridtolerance="10" fit-margin-top="0" showgrid="false" id="namedview10" inkscape:pageshadow="2" inkscape:window-height="1001" inkscape:window-maximized="1"/>
 <metadata id="metadata8">
  <rdf:RDF>
   <cc:Work rdf:about="">
    <dc:format>image/svg+xml</dc:format>
    <dc:type rdf:resource="http://purl.org/dc/dcmitype/StillImage"/>
    <dc:title/>
   </cc:Work>
  </rdf:RDF>
 </metadata>
 <defs id="defs6">
  <clipPath id="clipPath143" clipPathUnits="userSpaceOnUse">
   <rect height="203.14427" transform="rotate(-43.315315)" width="203.14427" style="stroke-width:1.71212864" y="67.804993" x="-715.1568" id="rect145"/>
  </clipPath>
  <clipPath id="clipPath4719" clipPathUnits="userSpaceOnUse">
   <rect height="42.942448" width="8.8779888" style="fill:#000000;fill-opacity:1;stroke:#000000" y="25.718069" rx="2.47085" x="-34.546959" id="rect4721" ry="0.40744901"/>
  </clipPath>
  <clipPath id="clipPath4885" clipPathUnits="userSpaceOnUse">
   <circle transform="rotate(-38.419141)" cx="-52.648228" style="fill:none;stroke:#4d4d4d;stroke-width:0.60246503" r="10.929907" id="circle4887" cy="-28.001387"/>
  </clipPath>
  <clipPath id="clipPath4889" clipPathUnits="userSpaceOnUse">
   <circle transform="rotate(-38.419141)" cx="-52.648228" style="fill:none;stroke:#4d4d4d;stroke-width:0.60246503" r="10.929907" id="circle4891" cy="-28.001387"/>
  </clipPath>
  <clipPath id="clipPath4893" clipPathUnits="userSpaceOnUse">
   <circle transform="rotate(-38.419141)" cx="-52.648228" style="fill:none;stroke:#4d4d4d;stroke-width:0.60246503" r="10.929907" id="circle4895" cy="-28.001387"/>
  </clipPath>
  <clipPath id="clipPath4897" clipPathUnits="userSpaceOnUse">
   <circle transform="rotate(-38.419141)" cx="-52.648228" style="fill:none;stroke:#4d4d4d;stroke-width:0.60246503" r="10.929907" id="circle4899" cy="-28.001387"/>
  </clipPath>
  <clipPath id="clipPath4913" clipPathUnits="userSpaceOnUse">
   <circle transform="rotate(-38.419141)" cx="-88.579475" style="fill:none;stroke:#4d4d4d;stroke-width:1.33852994" r="24.283579" id="circle4915" cy="-54.134789"/>
  </clipPath>
  <clipPath id="clipPath4923" clipPathUnits="userSpaceOnUse">
   <path inkscape:connector-curvature="0" style="fill:none;stroke:#000000;stroke-width:1.67334652px;stroke-linecap:butt;stroke-linejoin:miter;stroke-opacity:1" id="path4925" d="m -98.061502,-0.25402155 c -0.494788,0 -0.989577,0 -1.484365,0 -0.190303,0 -0.383677,0.0340426 -0.570913,0 -0.23683,-0.0430607 -0.44905,-0.18115558 -0.68509,-0.22836403 -0.29857,-0.0597146 -0.61488,0.0597145 -0.91346,0 -0.23604,-0.0472085 -0.44905,-0.18115557 -0.68509,-0.22836402 -0.14928,-0.0298572 -0.30541,0.0168124 -0.45673,0 -0.19288,-0.0214317 -0.37833,-0.0901103 -0.5709,-0.114182 -0.11331,-0.0141625 -0.22837,0 -0.34255,0 -0.30449,0 -0.60897,0 -0.91346,0 -0.11419,0 -0.23422,0.0361075 -0.34254,0 -0.0361,-0.0120358 0.0269,-0.0872691 0,-0.11418201 -0.0269,-0.0269129 -0.0761,0 -0.11419,0 -0.22837,0 -0.45673,0 -0.6851,0 -0.0761,0 -0.15451,0.0184621 -0.22836,0 -0.0826,-0.0206413 -0.14653,-0.0908015 -0.22836,-0.11418199 -0.18661,-0.053316 -0.38264,-0.067113 -0.57091,-0.114182 -0.23353,-0.058382 -0.44905,-0.1811556 -0.6851,-0.228364 -0.0746,-0.014928 -0.15371,0.014928 -0.22836,0 -0.11802,-0.023604 -0.22836,-0.076121 -0.34255,-0.114182 -0.11419,-0.038061 -0.23079,-0.069482 -0.34254,-0.114182 -0.0656,-0.026253 -0.3911,-0.2021111 -0.45673,-0.228364 -0.0743,-0.029727 -0.48165,-0.1391049 -0.57091,-0.228364 -0.0269,-0.026913 0.0269,-0.087269 0,-0.114182 -0.0269,-0.026913 -0.0781,0.012036 -0.11419,0 -0.82707,-0.2756892 0.18002,0.032919 -0.34255,-0.228364 -0.33234,-0.1661732 -0.40151,-0.03931 -0.68509,-0.228364 -0.59861,-0.3990767 0.49479,0.2664247 -0.11419,-0.3425461 -0.11419,-0.1141824 -0.22836,0.057091 -0.34254,0 -0.25247,-0.1262305 -0.0354,-0.070866 -0.11419,-0.2283639 -0.0523,-0.1045139 -0.25911,-0.2005496 -0.34255,-0.2283639 -0.0361,-0.012031 -0.0873,0.026912 -0.11417,0 -1.1e-4,-1.092e-4 1.7e-4,-0.3420286 0,-0.3425461 -0.017,-0.051064 -0.0901,-0.066039 -0.11419,-0.1141825 -0.017,-0.034043 0.017,-0.08014 0,-0.1141825 -0.0241,-0.048144 -0.0843,-0.069397 -0.11419,-0.1141825 -0.0472,-0.070813 -0.067,-0.1575506 -0.11419,-0.2283639 -0.0299,-0.044785 -0.0761,-0.076122 -0.11419,-0.1141825 -0.11419,-0.1141825 -0.24167,-0.2164531 -0.34255,-0.3425461 -0.0532,-0.066457 -0.054,-0.1681849 -0.11418,-0.2283639 -0.0602,-0.060179 -0.16819,-0.054002 -0.22837,-0.1141825 -0.0269,-0.026912 0.0269,-0.087268 0,-0.1141825 -0.0602,-0.060179 -0.1773,-0.046097 -0.22836,-0.1141824 -0.0722,-0.096286 -0.042,-0.2462593 -0.11419,-0.3425461 -0.0511,-0.068085 -0.1773,-0.046097 -0.22837,-0.1141825 -0.0722,-0.096286 -0.042,-0.2462592 -0.11418,-0.3425459 -0.0511,-0.068085 -0.15755,-0.066974 -0.22837,-0.1141825 -0.0448,-0.029858 -0.0761,-0.076121 -0.11419,-0.1141825 -0.0761,-0.076122 -0.16865,-0.1387924 -0.22836,-0.2283639 -0.0211,-0.031668 0.0269,-0.087268 0,-0.1141825 -0.0269,-0.026912 -0.0761,0 -0.11419,0 -0.0761,0 -0.16027,0.034043 -0.22836,0 -0.034,-0.017021 0.012,-0.078075 0,-0.1141825 -0.0269,-0.080739 -0.054,-0.1681847 -0.11419,-0.2283639 -0.23625,-0.2362466 0.009,0.3610161 -0.22837,-0.1141825 -0.0787,-0.1574971 0.13829,-0.1021327 -0.11419,-0.2283641 -0.034,-0.017021 -0.0873,0.026912 -0.11419,0 -0.23624,-0.2362466 0.36102,0.00924 -0.11419,-0.228364 -0.15749,-0.078749 -0.10214,0.1382804 -0.22836,-0.1141824 -0.0457,-0.091346 0.0457,-0.2512005 0,-0.3425461 -0.0481,-0.096286 -0.19432,-0.1262356 -0.22836,-0.228364 -0.0241,-0.072215 0,-0.1522427 0,-0.2283641 0,-0.1141825 0,-0.2283639 0,-0.3425459 0,-0.065791 -0.0208,-0.5292936 0,-0.57091 0.0481,-0.096288 0.18022,-0.1320773 0.22836,-0.2283642 0.017,-0.034042 -0.017,-0.08014 0,-0.1141824 0.0241,-0.048144 0.0901,-0.066039 0.11417,-0.1141825 0.017,-0.034043 -0.0211,-0.082515 0,-0.1141826 0.0597,-0.08957 0.15224,-0.152243 0.22837,-0.228364 0.0761,-0.07612 0.15224,-0.152243 0.22836,-0.228364 0.0381,-0.03806 0.0901,-0.06604 0.11419,-0.114182 0.017,-0.03404 -0.0211,-0.08252 0,-0.114183 -0.0977,-0.529736 0.24551,-0.131327 0.34255,-0.228364 0.0602,-0.06018 0.067,-0.15755 0.11419,-0.228364 0.0298,-0.04478 0.0761,-0.07612 0.11418,-0.114182 0.0381,-0.03806 0.066,-0.09011 0.11419,-0.114183 0.034,-0.01702 0.0801,0.01702 0.11419,0 0.0963,-0.04814 0.13208,-0.180221 0.22837,-0.228364 0.0681,-0.03404 0.17454,0.05383 0.22836,0 0.0269,-0.02691 -0.0269,-0.08727 0,-0.114182 0.0269,-0.02691 0.0761,0 0.11419,0 0.22836,0 0.45673,0 0.68509,0 0.53285,0 1.0657,0 1.59855,0 0.22836,0 0.45673,0 0.68509,0 0.0761,0 0.15452,0.01846 0.22837,0 0.0826,-0.02064 0.1458,-0.09354 0.22836,-0.114183 0.0738,-0.01846 0.15224,0 0.22836,0 0.19031,0 0.38061,0 0.57091,0 0.57091,0 1.14182,0 1.71273,0 0.38061,0 0.76122,0 1.14182,0 0.0761,0 0.15225,0 0.22837,0 0.11417,0 0.23177,-0.02769 0.34254,0 0.0522,0.01305 0.066,0.09011 0.11419,0.114183 0.0337,0.01685 0.68165,0 0.79928,0 0.60897,0 1.21794,0 1.82691,0 0.22836,0 0.45673,0 0.68509,0 0.0761,0 0.15224,0 0.22837,0 0.0381,0 0.0781,-0.01203 0.11418,0 0.0807,0.02691 0.15755,0.06697 0.22837,0.114182 0.0448,0.02986 0.0631,0.09716 0.11419,0.114183 0.063,0.02098 0.58819,0 0.68509,0 0.0381,0 0.0761,0 0.11419,0 0.0381,0 0.0801,-0.01702 0.11419,0 0.0481,0.02407 0.066,0.09011 0.11417,0.114182 0.034,0.01702 0.0761,0 0.11419,0 0.0381,0 0.0761,0 0.11419,0 0.22836,0 0.456726,0 0.685089,0 0.723154,0 1.446306,0 2.169459,0 0.228363,0 0.456728,0 0.685092,0 0.114189,0 0.231773,-0.02769 0.342545,0 0.08256,0.02064 0.145799,0.09354 0.228365,0.114183 0.07385,0.01846 0.152241,0 0.228364,0 0.228364,0 0.456728,0 0.685091,0 0.110441,0 0.651228,-0.01693 0.685093,0 0.04814,0.02407 0.06603,0.09011 0.114189,0.114182 0.03404,0.01702 0.08014,-0.01702 0.11419,0 0.290084,0.145042 -0.116934,0.136468 0.342545,0.228364 0.219582,0.04392 0.465512,-0.04392 0.685093,0 0.236043,0.04721 0.44905,0.181156 0.685092,0.228364 0.149279,0.02986 0.30903,-0.03692 0.456728,0 0.08256,0.02064 0.145799,0.09354 0.228363,0.114183 0.07385,0.01846 0.156157,-0.02407 0.228365,0 0.356398,0.118799 -0.03807,0.07612 0.114173,0.228364 0.03044,0.03044 0.524477,-0.03096 0.570911,0 0.07082,0.04721 0.04337,0.181155 0.114189,0.228363 0.06334,0.04223 0.155169,-0.02091 0.228363,0 0.733426,0.2095508 0.346656,0.2008461 0.913456,0.3425466 0.03693,0.00924 0.07612,0 0.11419,0 0.114189,0.03806 0.225781,0.084991 0.342545,0.1141824 0.03693,0.00924 0.07612,0 0.11419,0 0.09687,0 0.609335,-0.018939 0.685091,0 0.165126,0.041283 0.291597,0.1870815 0.456728,0.2283642 0.07385,0.018462 0.156157,-0.024071 0.228364,0 0.05107,0.017021 0.06603,0.09011 0.114189,0.1141824 0.09135,0.045672 0.251201,-0.045672 0.342546,0 0.03404,0.017021 -0.03404,0.097161 0,0.1141825 0.07271,0.03635 0.572881,-0.037403 0.685091,0 0.07612,0.03806 0.152241,0.076122 0.228365,0.1141825 0,0.03806 -0.02691,0.087268 0,0.1141825 0.06017,0.060178 0.152241,0.076121 0.228363,0.1141824 0.07612,0.03806 0.147623,0.087268 0.228365,0.1141825 0.07222,0.024071 0.160273,-0.034043 0.228363,0 0.09628,0.048144 0.138788,0.1686496 0.228365,0.228364 0.498695,0.3324633 -0.03763,-0.050607 0.456729,0.1141824 0.157696,0.052567 0.116448,0.2586122 0.228363,0.3425461 0.09628,0.072215 0.234894,0.060356 0.342546,0.1141825 0.04814,0.024071 0.06939,0.084325 0.114189,0.1141825 0.07082,0.047208 0.181155,0.04337 0.228363,0.1141824 0.04222,0.063336 -0.04222,0.1650272 0,0.228364 0.01255,0.018949 0.410064,0.1933657 0.456728,0.2283641 0.08613,0.064591 0.152241,0.1522427 0.228365,0.228364 0.03807,0.03806 0.09011,0.066039 0.114173,0.1141824 0.01702,0.034043 -0.01702,0.08014 0,0.1141825 0.2376,0.4751983 -0.0079,-0.1220639 0.228365,0.1141825 0.02691,0.026912 -0.02691,0.087268 0,0.1141825 0.02691,0.026912 0.08727,-0.026912 0.114189,0 0.01104,0.011077 0,0.5273985 0,0.57091 0,0.2283639 0,0.4567281 0,0.685092 0,0.076121 0.01846,0.1545151 0,0.2283639 -0.02065,0.082565 -0.08258,0.1493446 -0.114189,0.2283642 -0.0447,0.1117494 -0.06036,0.2348941 -0.114189,0.3425459 -0.02408,0.048144 -0.08189,0.071122 -0.11419,0.1141825 -0.08233,0.1097832 -0.160273,0.2233972 -0.228363,0.3425459 -0.08445,0.1477866 -0.108014,0.3363696 -0.228365,0.456728 -0.08511,0.085106 -0.257439,0.029076 -0.342546,0.1141825 -0.08511,0.085106 -0.07612,0.2283641 -0.114189,0.3425461 -0.114189,0.076122 -0.24551,0.1313276 -0.342547,0.2283639 -0.120364,0.1203588 -0.126237,0.3205582 -0.228364,0.4567281 -0.493869,0.4938704 -0.01789,-0.030247 -0.342545,0.456728 -0.0969,0.145361 -0.351207,0.3160335 -0.456728,0.4567281 -0.05107,0.068085 -0.04337,0.1811555 -0.11419,0.228364 -0.06334,0.042225 -0.152241,0 -0.228363,0 -0.114189,0 -0.234223,-0.036107 -0.342546,0 -0.130186,0.043396 -0.232762,0.1460263 -0.342547,0.228364 -0.04305,0.032296 -0.06196,0.1011274 -0.114189,0.114182 -0.110776,0.027693 -0.234224,-0.036107 -0.342546,0 -0.130186,0.043396 -0.219804,0.16699301 -0.342547,0.228364 -0.03344,0.016743 -0.671243,0.21801376 -0.685043,0.22836341 -0.06809,0.0510637 -0.07612,0.15224274 -0.11419,0.22836401 -0.114172,0.11418198 -0.204079,0.25946643 -0.342545,0.34254604 -0.06528,0.03916417 -0.153714,-0.01492792 -0.228364,0 -0.118021,0.02360423 -0.223825,0.09439515 -0.342545,0.11418197 -0.112633,0.01877144 -0.230583,-0.02239289 -0.342548,0 -0.08345,0.01668996 -0.14441,0.10019062 -0.228363,0.11418198 -0.150166,0.0250286 -0.304486,0 -0.456728,0 -0.114189,0 -0.228364,0 -0.342546,0 -0.418668,0 -0.837334,0 -1.256002,0 -0.532849,0 -1.065699,0 -1.598548,0 -0.114189,0 -0.228364,0 -0.342546,0 -0.114189,0 -0.229918,-0.0187714 -0.342546,0 -0.118724,0.0197868 -0.224526,0.0905777 -0.342547,0.11418197 -0.127041,0.0254064 -0.42216,0 -0.570909,0 -0.380608,0 -0.761214,0 -1.14182,0 -0.190305,0 -0.380608,0 -0.570911,0 -0.07612,0 -0.160273,0.0340426 -0.228363,0 -0.03404,-0.0170213 0.02691,-0.087269 0,-0.11418197 -0.0571,-0.0570911 -0.285456,0.0570911 -0.342547,0 -0.02691,-0.0269129 0.02691,-0.087269 0,-0.11418198 -0.05383,-0.05382587 -0.174537,0.05382587 -0.228364,0 -0.02691,-0.02691293 0.02691,-0.08726904 0,-0.11418197 -0.02691,-0.02691293 -0.08014,0.01702128 -0.114189,0 -0.04814,-0.02407176 -0.07612,-0.07612137 -0.114189,-0.11418197 -0.114189,-0.0380606 -0.228365,-0.0761214 -0.342547,-0.11418198 z"/>
  </clipPath>
  <clipPath id="clipPath4929" clipPathUnits="userSpaceOnUse">
   <path inkscape:connector-curvature="0" style="fill:none;stroke:#000000;stroke-width:1.67334652px;stroke-linecap:butt;stroke-linejoin:miter;stroke-opacity:1" id="path4931" d="m -89.612032,-2.9943897 c -0.114189,-0.1522428 -0.228365,-0.3044855 -0.342546,-0.4567281 0,-0.03806 0.01702,-0.08014 0,-0.1141825 -0.02408,-0.048144 -0.06603,-0.09011 -0.114189,-0.1141824 -0.03404,-0.017021 -0.08727,0.026912 -0.114189,0 -0.02691,-0.026912 0.01205,-0.078075 0,-0.1141825 -0.02691,-0.080739 -0.06312,-0.1602782 -0.114189,-0.228364 -0.615981,-0.8213086 0.126789,0.2409673 -0.456727,-0.3425461 -0.02691,-0.026912 0.01702,-0.08014 0,-0.1141824 -0.06138,-0.1227417 -0.131324,-0.2455101 -0.228365,-0.3425461 -0.120364,-0.1203588 -0.336369,-0.1080062 -0.456728,-0.228364 -0.445622,-0.445622 0.02642,-0.061321 -0.114189,-0.3425461 -0.06851,-0.1370186 -0.274037,-0.2055276 -0.342548,-0.3425459 -0.01702,-0.034042 0.02691,-0.087268 0,-0.1141825 -0.02691,-0.026912 -0.08727,0.026912 -0.114172,0 -0.02691,-0.026912 0.02691,-0.087268 0,-0.1141824 -0.02691,-0.026912 -0.08727,0.026912 -0.114189,0 -0.03986,-0.039856 0.04739,-0.3188478 0,-0.342546 -0.06809,-0.034042 -0.160273,0.034043 -0.228363,0 -0.03014,-0.01506 0.02274,-0.160161 0,-0.2283641 -0.02691,-0.080739 -0.07612,-0.1522427 -0.11419,-0.2283639 -0.07612,-0.1522428 -0.133951,-0.3151027 -0.228365,-0.4567281 -0.02985,-0.044785 -0.09011,-0.066039 -0.114189,-0.1141824 -0.01702,-0.034043 0.01702,-0.08014 0,-0.1141825 -0.2376,-0.4751981 0.0079,0.1220639 -0.228365,-0.1141825 -0.02691,-0.026912 0,-0.076121 0,-0.1141825 -0.03807,-0.076121 -0.054,-0.1681849 -0.114189,-0.2283639 -0.02691,-0.026912 -0.08727,0.026912 -0.114189,0 -0.05383,-0.053827 0.03404,-0.1602798 0,-0.2283641 -0.02408,-0.048144 -0.09011,-0.066039 -0.114189,-0.1141825 -0.03738,-0.074768 0.03377,-0.4695812 0,-0.57091 -0.02691,-0.080739 -0.08727,-0.1476244 -0.114189,-0.228364 -0.02408,-0.072215 0.05383,-0.1745382 0,-0.2283641 -0.236247,-0.2362466 0.0092,0.3610161 -0.228364,-0.1141825 -0.03404,-0.068085 0.05383,-0.1745381 0,-0.2283639 -0.02691,-0.026912 -0.08727,0.026912 -0.114189,0 -0.02691,-0.026912 0.02691,-0.08727 0,-0.1141825 -0.05383,-0.053826 -0.174538,0.053826 -0.228363,0 -0.02691,-0.026912 0.02691,-0.087268 0,-0.1141825 -0.05383,-0.053826 -0.160273,0.034043 -0.228365,0 -0.04814,-0.024071 -0.07612,-0.076122 -0.114189,-0.1141825 -0.07612,-0.076122 -0.152241,-0.1522428 -0.228365,-0.2283638 -0.178066,-0.178066 -0.321015,-0.331781 -0.570911,-0.456728 -0.06809,-0.03404 -0.152241,0 -0.228363,0 -0.03807,0 -0.08727,0.02691 -0.114189,0 -0.06017,-0.06018 -0.054,-0.168185 -0.114173,-0.228364 -0.02691,-0.02691 -0.08014,0.01702 -0.114189,0 -0.04814,-0.02407 -0.06312,-0.09716 -0.114189,-0.114183 -0.07222,-0.02407 -0.160273,0.03404 -0.228363,0 -0.03404,-0.01702 0,-0.07612 0,-0.114182 -0.07612,-0.03806 -0.147623,-0.08727 -0.228365,-0.114183 -0.03611,-0.01203 -0.07612,0 -0.114189,0 -0.11419,-0.03806 -0.230797,-0.06948 -0.342548,-0.114182 -0.158031,-0.06322 -0.291597,-0.187081 -0.456726,-0.228364 -0.07384,-0.01846 -0.160274,0.03404 -0.228365,0 -0.03404,-0.01702 0.03611,-0.102146 0,-0.114183 -0.108316,-0.03611 -0.231774,0.02769 -0.342546,0 -0.104434,-0.02611 -0.132077,-0.18022 -0.228365,-0.228364 -0.157495,-0.07875 -0.102124,0.138281 -0.228363,-0.114182 -0.01702,-0.03404 0.02691,-0.08727 0,-0.114183 -0.03763,-0.03764 -0.3741,0.02754 -0.456729,0 -0.05107,-0.01702 -0.06603,-0.09011 -0.114189,-0.114182 -0.03404,-0.01702 -0.07612,0 -0.114189,0 -0.07612,0 -0.156157,0.02407 -0.228365,0 -0.05107,-0.01702 -0.06196,-0.101127 -0.114172,-0.114183 -0.110776,-0.02769 -0.228365,0 -0.342548,0 -0.114189,0 -0.228363,0 -0.342548,0 -0.0381,0 -0.0773,0.0092 -0.11419,0 -0.11676,-0.02919 -0.22682,-0.08112 -0.34254,-0.114182 -0.15089,-0.04311 -0.3098,-0.05908 -0.45673,-0.114183 -0.56438,-0.28219 -0.29525,-0.174538 -0.79928,-0.342545 -0.11419,-0.03806 -0.23079,-0.06948 -0.34254,-0.114183 -0.079,-0.03161 -0.14441,-0.10019 -0.22837,-0.114182 -0.15016,-0.02503 -0.30448,0 -0.45672,0 -0.15224,0 -0.30449,0 -0.45673,0 -0.11419,0 -0.23178,0.02769 -0.34255,0 -0.0522,-0.01305 -0.0631,-0.09716 -0.11419,-0.114183 -0.0523,-0.01742 -0.50717,0 -0.57091,0 -0.41866,0 -0.83733,0 -1.256,0 -0.72315,0 -1.4463,0 -2.16946,0 -0.1903,0 -0.3806,0 -0.57091,0 -0.11419,0 -0.22992,-0.01877 -0.34254,0 -0.11873,0.01979 -0.2234,0.09716 -0.34255,0.114183 -0.15072,0.02153 -0.30448,0 -0.45673,0 -0.0761,0 -0.15614,-0.02407 -0.22836,0 -0.0511,0.01702 -0.0631,0.09716 -0.11419,0.114182 -0.0722,0.02407 -0.15224,0 -0.22836,0 -0.0761,0 -0.15224,0 -0.22837,0 -0.0967,0 -0.39534,-0.02046 -0.45673,0 -0.0511,0.01702 -0.0631,0.09716 -0.11419,0.114183 -0.43512,0.145042 -0.0195,-0.253404 -0.5709,0.114182 -0.0317,0.02111 0,0.07612 0,0.114182 -0.0381,0.03806 -0.066,0.09011 -0.11419,0.114183 -0.0681,0.03404 -0.15616,-0.02407 -0.22837,0 -0.0761,0.03806 -0.15224,0.07612 -0.22836,0.114182 0,0.03806 0.0269,0.08727 0,0.114183 -0.0602,0.06018 -0.15755,0.06697 -0.22836,0.114182 -0.0448,0.02986 -0.0631,0.09716 -0.11419,0.114183 -0.0722,0.02407 -0.15614,-0.02407 -0.22837,0 -0.22721,0.07574 -0.0533,0.10657 -0.11419,0.228364 -0.0241,0.04814 -0.0843,0.0694 -0.11419,0.114182 -0.0472,0.07081 -0.067,0.157551 -0.11418,0.228364 -0.0299,0.04479 -0.0901,0.06604 -0.11419,0.114183 -0.034,0.06808 0.034,0.160278 0,0.228364 -0.0241,0.04814 -0.0761,0.07612 -0.11419,0.114182 -0.0381,0.03806 -0.0694,0.08432 -0.11419,0.114183 -0.0708,0.04721 -0.1773,0.0461 -0.22837,0.114182 -0.13825,0.184339 -0.11418,0.36792 -0.11418,0.57091 0,0.07612 0,0.152243 0,0.228364 0,0.03806 0.0361,0.1021465 0,0.1141828 -0.10832,0.036107 -0.2512,-0.068509 -0.34255,0 -0.0963,0.072215 -0.0695,0.230796 -0.11419,0.3425461 -0.0316,0.079019 -0.067,0.1575506 -0.11417,0.228364 -0.12433,0.1864829 -0.16923,0.046872 -0.22837,0.3425461 0,0.1141824 0,0.2283639 0,0.3425459 -0.0381,0.03806 -0.0971,0.063119 -0.11419,0.1141825 -0.0195,0.058448 0,0.6034621 0,0.6850921 0,0.03806 0.017,0.08014 0,0.1141825 -0.0241,0.048144 -0.0901,0.066039 -0.11419,0.1141825 -0.017,0.034043 0,0.076122 0,0.1141825 0,0.2664247 0,0.5328494 0,0.7992741 0,0.076122 0,0.1522428 0,0.228364 0,0.076121 -0.034,0.1602781 0,0.2283641 0.017,0.034042 0.0801,-0.017021 0.11419,0 0.0482,0.024071 0.0901,0.066039 0.11419,0.1141825 0.034,0.068085 -0.034,0.1602798 0,0.2283639 0.0614,0.1227416 0.15777,0.2248725 0.22837,0.3425461 0.13515,0.225254 0.13211,0.3604815 0.34254,0.57091 0.0602,0.060179 0.16819,0.054002 0.22837,0.1141825 0.17232,0.1723271 0.2695,0.4148926 0.45673,0.57091 0.0585,0.048731 0.15451,-0.018462 0.22836,0 0.0826,0.020641 0.16027,0.063119 0.22836,0.1141825 0.17225,0.1291824 0.28861,0.322229 0.45673,0.4567281 0.10716,0.085727 0.22836,0.1522427 0.34255,0.2283641 0.11419,0.07612 0.21641,0.1743065 0.34254,0.2283639 0.81108,0.3476041 0.16374,0.00991 0.68509,0.1141825 0.41041,0.082081 0.72899,0.3879227 1.14183,0.4567281 0.11263,0.018772 0.22836,0 0.34254,0 0.1903,0 0.38061,0 0.57091,0 0.0381,0 0.0766,-0.00626 0.11419,0 0.19143,0.031906 0.38542,0.057108 0.57091,0.1141824 0.73223,0.2253011 0.81118,0.3894099 1.48437,0.4567281 0.45446,0.045446 0.91461,-0.03254 1.37018,0 0.26845,0.019175 0.53083,0.095008 0.79927,0.1141825 0.26575,0.018982 0.53377,-0.022125 0.79928,0 0.1934,0.016114 0.3778,0.094872 0.57091,0.1141825 0.18936,0.018935 0.38061,0 0.57091,0 0.64703,0 1.29406,0 1.94109,0 0.38061,0 0.761216,0 1.141824,0 0.148677,0 0.570661,0.022886 0.685091,0 0.08345,-0.016683 0.145799,-0.09354 0.228363,-0.1141825 0.07384,-0.018462 0.152242,0 0.228365,0 0.11685,0 0.819109,0.023588 0.913457,0 0.165126,-0.041283 0.29525,-0.1745381 0.456726,-0.228364 0.0618,-0.020599 0.41783,0 0.456729,0 0.304485,0 0.608971,0 0.913456,0 0.165126,0 0.678699,0.024115 0.799274,0 0.911335,-0.1822671 -0.834889,-0.1141824 0.685092,-0.1141824 0.228365,0 0.456728,0 0.685093,0 0.07612,0 0.152241,0 0.228363,0 0.03807,0 0.08014,0.017021 0.114189,0 0.04814,-0.024071 0.06603,-0.09011 0.114189,-0.1141825 0.02559,-0.012801 0.429595,0 0.456729,0 0.418666,0 0.837334,0 1.256,0 0.139741,0 0.455072,0.00497 0.456728,0 0.03611,-0.1083224 0.03611,-0.2342234 0,-0.3425459 -0.01205,-0.036107 -0.08727,0.026912 -0.114172,0 -0.02691,-0.026912 -0.02691,-0.087268 0,-0.1141825 0.0045,-0.0046 0.414796,0 0.456727,0 0.03807,0 0.08014,0.017021 0.114189,0 0.04814,-0.024071 0.06036,-0.1141825 0.114189,-0.1141825 0.156926,0 0.304485,0.076122 0.456728,0.1141825 z"/>
  </clipPath>
  <clipPath id="clipPath4937" clipPathUnits="userSpaceOnUse">
   <path inkscape:connector-curvature="0" style="fill:none;stroke:#000000;stroke-width:0.33466932;stroke-linecap:butt;stroke-linejoin:miter;stroke-miterlimit:4;stroke-dasharray:none;stroke-opacity:1" id="path4939" d="m -106.60726,-13.805544 3.31029,2.502905 9.527187,2.5029055 1.937734,3.7139881 -15.178911,2.7451217 -9.28497,-6.2976321 z"/>
  </clipPath>
  <clipPath id="clipPath5191" clipPathUnits="userSpaceOnUse">
   <path inkscape:connector-curvature="0" style="fill:none;stroke:#000000;stroke-width:1px;stroke-linecap:butt;stroke-linejoin:miter;stroke-opacity:1" id="path5193" d="M -69.327492,0.81882864 -46.127346,24.018974 -43.05674,8.3247579 V -2.7294289 Z"/>
  </clipPath>
  <clipPath id="clipPath5742" clipPathUnits="userSpaceOnUse">
   <path inkscape:connector-curvature="0" style="fill:none;stroke:#000000;stroke-width:1px;stroke-linecap:butt;stroke-linejoin:miter;stroke-opacity:1" id="path5744" d="m -74.513412,-4.640029 24.974273,24.974273 V -4.640029 Z"/>
  </clipPath>
  <clipPath id="clipPath5785" clipPathUnits="userSpaceOnUse">
   <rect height="11.156541" transform="rotate(45)" width="20.811895" style="fill:#333333;fill-opacity:1;stroke:none;stroke-width:0.22472635;stroke-miterlimit:4;stroke-dasharray:none;stroke-opacity:1" y="42.647324" x="-29.375477" id="rect5787" ry="0.83432478"/>
  </clipPath>
  <clipPath id="clipPath5799" clipPathUnits="userSpaceOnUse">
   <rect height="29.357262" transform="rotate(-45)" width="29.725763" style="fill:#333333;fill-opacity:1;stroke:none;stroke-width:0.25457799;stroke-miterlimit:4;stroke-dasharray:none;stroke-opacity:1" y="7.8397613" x="-89.513351" id="rect5801" ry="5.8891525"/>
  </clipPath>
  <clipPath id="clipPath5799-1" clipPathUnits="userSpaceOnUse">
   <rect height="29.357262" transform="rotate(-45)" width="29.725763" style="fill:#333333;fill-opacity:1;stroke:none;stroke-width:0.25457799;stroke-miterlimit:4;stroke-dasharray:none;stroke-opacity:1" y="7.8397613" x="-89.513351" id="rect5801-2" ry="5.8891525"/>
  </clipPath>
  <clipPath id="clipPath1540" clipPathUnits="userSpaceOnUse">
   <rect height="15.511255" transform="rotate(90)" width="23.604084" style="fill:none;fill-opacity:1;stroke:#000000;stroke-width:0.08992032;stroke-miterlimit:4;stroke-dasharray:none;stroke-opacity:1" y="24.288628" x="75.154999" id="rect1542" ry="1.1256225"/>
  </clipPath>
  <clipPath id="clipPath1119" clipPathUnits="userSpaceOnUse">
   <rect height="20.326616" width="20.003973" style="opacity:0.51099997;fill:none;fill-opacity:1;stroke:#000000;stroke-width:0.42558613;stroke-miterlimit:4;stroke-dasharray:none;stroke-dashoffset:0;stroke-opacity:1" rx="2.6286676" y="74.346153" x="330.99872" id="rect1121" ry="1.5809379"/>
  </clipPath>
  <clipPath id="clipPath3321" clipPathUnits="userSpaceOnUse">
   <rect height="20.326616" width="20.003973" style="opacity:0.51099997;fill:none;fill-opacity:1;stroke:#000000;stroke-width:0.42558613;stroke-miterlimit:4;stroke-dasharray:none;stroke-dashoffset:0;stroke-opacity:1" y="386.0423" rx="2.6286676" x="753.90729" id="rect3323" ry="1.5809379"/>
  </clipPath>
  <clipPath id="clipPath4719-1" clipPathUnits="userSpaceOnUse">
   <rect height="42.942448" width="8.8779888" style="fill:#000000;fill-opacity:1;stroke:#000000" y="25.718069" rx="2.47085" x="-34.546959" id="rect4721-4" ry="0.40744901"/>
  </clipPath>
  <clipPath id="clipPath5350" clipPathUnits="userSpaceOnUse">
   <rect height="42.942448" width="8.8779888" style="fill:#000000;fill-opacity:1;stroke:#000000" y="25.718069" rx="2.47085" x="-34.546959" id="rect5348" ry="0.40744901"/>
  </clipPath>
 </defs>
 <path inkscape:connector-curvature="0" style="fill:#00ffcc;fill-opacity:1;stroke:#333333;stroke-width:3.52751255;stroke-miterlimit:4;stroke-dasharray:none;stroke-dashoffset:0;stroke-opacity:1" id="path4018" d="M 54.76629,1.7637566 72.34286,32.207276 54.76631,62.650756 H 19.61316 L 2.0366102,32.207256 19.61317,1.7637667 Z"/>
 <g transform="matrix(-0.02625464,0,0,0.0265554,65.56405,15.756668)" style="fill:#333333;fill-opacity:1;stroke:#333333;stroke-width:37.8721962;stroke-opacity:1" id="Layer_1">
  <path inkscape:connector-curvature="0" style="fill:#333333;fill-opacity:1;stroke:#333333;stroke-width:37.8721962;stroke-opacity:1" id="path852" d="m 339,214 q 11,3 18,10 8,8 22,39 14,32 38,111 24,79 37,140 c 0,0 13.371,59.25 14,61 0.629,1.75 2.129,2.5 4.879,2 2.75,-0.5 2.121,-5 2.121,-5 l -9,-61 q -9,-61 -28,-134 -18,-73 -22,-99 -4,-26 0,-36 4,-10 16,-18 12,-7 27,-3 15,4 25,14 11,11 23,37 12,26 27,76 15,50 30,120 16,71 19,104 4,33 21,72 17,39 35,65 19,27 35,43 17,16 24,15 7,-1 15,-11 9,-9 36,-70 27,-61 43,-80 16,-19 33,-32 17,-13 34,-20 18,-7 35,-7 17,0 25,6 8,7 7,14 0,7 -14,32 -14,25 -38,91 -24,67 -27,82 -2,16 0,26 2,10 1,41 -1,32 -5,43 -3,11 -48,86 -44,76 -68,104 -24,28 -23,54 1,27 18,119 l 17,93 H 582 426 l 1,-30 q 1,-29 -5,-62 -5,-33 -25,-66 -19,-33 -52,-77 -33,-43 -53,-78 -19,-34 -41,-91 -21,-56 -33,-104 -12,-47 -61,-147 -49,-99 -57,-123 -8,-24 -8,-36 0,-11 10,-22 10,-10 17,-11 7,-1 14,2 8,3 74,113 c 0,0 62.871,105.75 66,110 3.129,4.25 28.621,16.75 21,-22 q -7.621,-38.75 0,0 0,-17 -64,-174 C 230,520 174.758,394 170.758,376.5 166.758,359 168,351 168,351 q 2,-12 9,-19 7,-6 19,-10 13,-3 20,-1 8,3 14,9 6,7 14,28 9,22 53,109 44,87 55,120 c 0,0 9.121,28.5 12,33 2.879,4.5 15.871,15.5 13,-8 q -2.871,-23.5 0,0 0,-11 -18,-84 -17,-73 -45,-171 c 0,0 -19.242,-64.5 -23.242,-83 -4,-18.5 -2,-31.5 -2,-31.5 8,-18 9.984,-21 26.242,-25.5 16.258,-4.5 24,-3 24,-3 z"/>
 </g>
 <path inkscape:connector-curvature="0" style="fill:#333333;fill-opacity:1;stroke:#333333;stroke-width:1;stroke-opacity:1" id="path865" d="m 33.140405,30.258264 -0.39435,-0.327893 C 24.267519,23.044607 21.967141,20.618195 21.967141,16.683473 c 0,-3.278935 2.629004,-5.902083 5.915258,-5.902083 2.694728,0 4.206405,1.50831 5.258006,2.688727 1.051602,-1.180417 2.563279,-2.688727 5.258007,-2.688727 3.286254,0 5.915257,2.623148 5.915257,5.902083 0,3.934722 -2.300378,6.361134 -10.778913,13.246898 z m -5.258006,-18.1653 c -2.563278,0 -4.600756,2.03294 -4.600756,4.590509 0,3.344514 2.103203,5.57419 9.858762,11.869745 7.75556,-6.295555 9.858763,-8.525231 9.858763,-11.869745 0,-2.557569 -2.037478,-4.590509 -4.600756,-4.590509 -2.300378,0 -3.549154,1.377153 -4.535031,2.49199 l -0.722976,0.852524 -0.722976,-0.852524 c -0.985876,-1.114837 -2.234652,-2.49199 -4.53503,-2.49199 z"/>
 <g inkscape:label="Layer 1" transform="matrix(0.0610915,0,0,0.0610915,14.482647,-8.440252)" style="fill:#333333;fill-opacity:1;stroke-width:16.36889076" id="layer1">
  <path inkscape:connector-curvature="0" style="fill:#333333;fill-opacity:1;stroke-width:16.36889076" sodipodi:nodetypes="ssscsssscsssssssscsscscssssscscssccsssssssssssssssscssscsssssccccsscssssscccscssccssssscscscsscsssscsssccccsssccsssssscsccsccscssscssssccsccssccsccssscsscsscscsssccscssscssccsscssssccsscccssccssssssscssssscscssscccccssssssscssssccsscssssscsscscsssssssscsscscccsssccscscsccsscsccscsscssssssssscccscssscccsscscccccscscsscsscccccssssssssccscscccsccscsccscsscccssccssscscsccsssscsssssssssssccsssssssssssscsscssss" id="path3960" d="m 242.07118,995.50809 c 7.2601,-1.12356 11.2182,-2.25599 16.154,-4.62166 9.1519,-4.38634 16.0089,-13.25003 16.5299,-21.36712 0.2148,-3.34841 0.044,-4.2591 -1.8359,-9.78289 -2.0296,-5.96375 -5.834,-14.708 -10.0293,-23.05174 -1.1568,-2.30071 -2.0042,-4.28224 -1.883,-4.40342 0.3519,-0.35189 3.9707,3.9648 7.4248,8.85672 4.6407,6.57253 8.0077,13.17366 10.4697,20.52629 l 2.1703,6.48134 3.7484,1.56049 c 7.3774,3.07124 12.4695,4.07717 21.8497,4.31629 7.9129,0.2017 8.8658,0.12614 13.5164,-1.07209 8.9471,-2.30522 15.6742,-6.19691 21.8182,-12.62202 4.3665,-4.56617 6.2462,-7.41718 8.8582,-13.43556 2.9211,-6.73038 4.2977,-8.98848 7.6013,-12.46839 3.6076,-3.8001 7.1901,-6.31745 15.8091,-11.10866 14.9243,-8.29627 19.842,-12.72808 23.7933,-21.44259 2.7556,-6.07733 3.2287,-8.78171 3.2084,-18.34281 -0.021,-9.83296 -0.7614,-14.29237 -3.9766,-23.94338 -2.8148,-8.44955 -8.0169,-18.38357 -11.6525,-22.25213 -1.4682,-1.56218 -3.7427,-1.83009 -5.4406,-0.64077 -1.6455,1.15255 -3.9139,5.03043 -6.6032,11.28833 -5.7935,13.48113 -17.3119,38.26305 -16.8715,36.2991 0.1234,-0.55084 1.5749,-6.86047 3.2254,-14.02141 3.6764,-15.95028 4.2627,-20.19446 3.9085,-28.29317 -0.5654,-12.92499 -4.0515,-23.17734 -12.9595,-38.11309 -6.0257,-10.10303 -10.8589,-15.08779 -17.6943,-18.24927 -5.7294,-2.64989 -10.77,-3.82824 -16.7207,-3.90872 l -5.2541,-0.0711 -0.653,2.22975 c -0.3591,1.22632 -1.0186,4.71916 -1.4654,7.76185 -1.1647,7.93016 -0.7689,13.79872 1.5383,22.80847 2.2886,8.93685 2.6986,13.30547 1.6029,17.07477 -0.7405,2.54734 -3.8825,7.05453 -4.5005,6.45596 -0.1451,-0.14056 0.091,-2.16866 0.5255,-4.50688 1.1179,-6.02119 0.9383,-8.0858 -1.611,-18.52308 -1.2445,-5.09528 -2.3977,-11.0669 -2.5626,-13.27026 -0.4882,-6.52036 0.8249,-15.60257 4.3795,-30.29045 1.7085,-7.05983 1.6488,-9.05958 -0.4002,-13.40011 -2.318,-4.91029 -9.0135,-10.80885 -16.5845,-14.61055 -9.6854,-4.86343 -23.7156,-7.24196 -31.4858,-5.33775 -10.7827,2.64243 -17.7153,9.77537 -30.0902,30.95991 -10.4272,17.85041 -16.6585,41.05854 -16.0344,59.72023 0.2342,7.00164 0.2032,7.35854 -0.4572,5.25803 -2.9538,-9.39484 -3.4294,-16.9652 -1.7131,-27.26232 2.3539,-14.12221 5.5407,-23.76919 12.1681,-36.83554 6.0668,-11.96121 7.0823,-15.03461 6.8276,-20.6641 -0.4468,-9.87328 -5.9745,-15.19014 -20.6553,-19.86753 -22.3431,-7.11857 -48.8008,-1.06708 -55.5439,12.70419 -2.497,5.09949 -2.8448,7.82265 -3.3627,26.32515 -0.7533,26.91409 -1.1649,32.55144 -2.7419,37.55734 -2.0919,6.64019 -4.5268,10.90064 -7.198,12.59468 -1.2374,0.78469 -2.7675,1.42673 -3.4004,1.42673 -1.1179,0 -1.1023,-0.0631 0.5491,-2.2266 4.1483,-5.4346 6.2891,-17.53077 7.0698,-39.94619 l 0.3089,-8.872 -2.2496,-2.40502 c -7.6817,-8.21234 -25.081,-12.72854 -37.1484,-9.64222 -7.071503,1.80861 -13.246303,6.92237 -17.012403,14.08926 -5.3807,10.23958 -6.3077,20.08617 -4.0239,42.74321 1.0731,10.64515 1.1278,12.14709 0.4795,13.14507 -0.8665,1.33373 -0.9546,1.33994 -5.4663,0.38428 -1.9279,-0.40837 -5.2383,-0.74639 -7.3566,-0.75114 -2.1182,-0.005 -3.9727,-0.20517 -4.1212,-0.44528 -0.1484,-0.24017 0.6834,-0.7834 1.8484,-1.2073 1.8452,-0.67132 3.3465,-1.04008 8.7554,-2.15063 1.0963,-0.22509 1.1201,-0.358 0.8268,-4.60338 -0.2598,-3.76114 -0.47,-4.52571 -1.5053,-5.47501 -2.4103,-2.21037 -9.2022,-2.90648 -12.6435,-1.29588 -2.9277,1.37025 -7.2323,6.01924 -8.9968,9.71669 -2.5486,5.3402 -3.2544,8.90725 -2.9602,14.96034 0.3087,6.3497 1.4892,10.02346 7.0015,21.78952 10.2395,21.8561 12.1168,32.68468 7.3279,42.26801 -0.8213,1.64371 -2.2668,3.6676 -3.2119,4.49747 -1.6136,1.41676 -4.9337,2.53752 -5.5857,1.88558 -0.1615,-0.1615 0.411,-1.09617 1.2722,-2.07707 7.4136,-8.44359 6.128,-20.98524 -4.417,-43.09077 l -3.3548,-7.03284 -3.9663,-0.61078 c -8.8107,-1.35672 -16.5455,-5.21511 -21.4987,-10.72418 -2.7673,-3.0779 -4.1363,-5.58587 -5.2695,-9.65288 l -0.8371,-3.00459 -3.3047,5.108 c -6.3428,9.80417 -10.3088998,17.78495 -12.1440998,24.43711 -0.4559,1.65252 -0.9431,5.48335 -1.0827,8.51298 -0.2311,5.0152 -0.135,5.86184 1.0733,9.45593 2.1668,6.44489 6.6545998,12.55257 12.8586998,17.49992 1.2677,1.01094 2.5071,1.82769 2.7542,1.81492 0.247,-0.013 1.1252,-0.8835 1.9515,-1.93495 0.8262,-1.05146 2.8632,-2.98155 4.5267,-4.2891 3.021,-2.37478 8.7435,-5.96946 8.7435,-5.49249 0,0.13877 -1.2076,1.67586 -2.6836,3.41572 -6.5703,7.74502 -8.7944,12.26252 -9.2093,18.70546 -0.8199,12.73339 8.3875,26.06359 20.5554,29.75948 2.8639,0.86988 4.3478,1.00779 8.7842,0.81635 9.1883,-0.3964 14.1377,-3.0485 24.4778,-13.11633 3.9327,-3.82924 7.1505,-6.82346 7.1505,-6.6539 0,0.1695 -0.483,1.59909 -1.0733,3.1768 -1.409,3.7659 -3.7554,7.68738 -6.9778,11.66175 l -2.6152,3.22548 1.5697,4.78675 c 3.7355,11.3908 10.0403,17.92562 20.6978,21.45276 6.697003,2.21638 12.117903,2.81274 21.950003,2.41478 10.5731,-0.42795 16.8434,-1.30494 16.5989,-2.32164 -1.0741,-4.46632 -0.2358,-17.69251 1.5067,-23.76989 l 0.5743,-2.00306 0.3892,1.50229 c 0.2141,0.82627 0.7428,5.67822 1.175,10.78217 0.4321,5.10389 1.1313,10.60649 1.5537,12.22792 1.9677,7.55453 7.7484,14.40384 15.5488,18.42302 6.8914,3.55077 12.9785,5.01942 21.075,5.08477 3.6259,0.029 6.7165,-0.0704 6.8681,-0.22144 0.1515,-0.15103 -0.2933,-1.68297 -0.9886,-3.4043 -2.1692,-5.3705 -2.7288,-9.50471 -2.9587,-21.86002 -0.2428,-13.04763 -0.4348,-13.22144 3.0425,2.7542 2.2487,10.33067 4.2704,16.52223 6.4974,19.89848 4.1745,6.32856 14.0426,11.62104 25.984,13.93568 4.3206,0.83748 18.8271,0.56721 25.5706,-0.47638 z m -80.5553,-43.76647 c -4.5452,-7.19999 -6.8791,-20.73861 -5.3628,-31.1086 0.3338,-2.28258 0.5029,-4.25409 0.3758,-4.38114 -0.6589,-0.659 -8.833,-2.27051 -14.0589,-2.77168 -12.9747,-1.24445 -20.6834,0.98766 -31.4378,9.10295 l -1.6501,1.24515 1.2274,-1.74591 c 0.675,-0.96027 2.8866,-3.62038 4.9146,-5.91138 5.6891,-6.42711 7.2944,-10.81531 6.1272,-16.74867 -0.7625,-3.87532 -2.4853,-7.31322 -4.85,-9.67788 -2.157,-2.15704 -7.6124,-4.8489 -12.19,-6.01503 -4.1623,-1.06032 -11.409303,-0.69221 -15.953103,0.81039 -1.7509,0.57903 -3.2761,0.96026 -3.3892,0.84719 -0.3064,-0.30642 3.6106,-2.93113 6.5074,-4.36056 1.9146,-0.94469 2.639,-1.62057 2.9522,-2.7542 0.6179,-2.23637 0.064,-5.99095 -1.335,-9.04642 -1.2101,-2.64328 -5.8754,-7.85842 -9.0632,-10.13154 l -1.5023,-1.07124 1.5475,-0.016 c 2.1169,-0.0215 6.9267,2.48108 10.0641,5.23682 3.5037,3.07755 5.2461,6.70203 5.5579,11.56155 l 0.238603,3.71708 h 1.8452 c 9.3985,0 19.0135,5.93631 23.0989,14.26127 1.6026,3.26559 1.7125,3.80747 1.6751,8.26262 -0.027,3.17134 -0.3218,5.50655 -0.8817,6.97415 -0.4629,1.2135 -0.7734,2.27467 -0.6898,2.3582 0.083,0.0835 1.4943,-0.2264 3.1351,-0.68876 4.7478,-1.33779 19.581,-1.17314 25.432,0.28239 2.4317,0.60487 4.5115,1.09982 4.6219,1.09982 0.1103,0 0.6834,-0.95771 1.2734,-2.12824 3.264,-6.47569 8.9243,-12.17304 15.5568,-15.65831 l 3.4668,-1.82173 -3.5256,-2.47593 c -8.5723,-6.02004 -15.2976,-18.06544 -17.8656,-31.99834 -0.6516,-3.53504 -0.8773,-7.39469 -0.8785,-15.02293 0,-12.57911 1.0757,-21.35371 4.9619,-40.40294 4.2571,-20.86701 5.8219,-25.75167 9.2749,-28.95296 1.6142,-1.49653 1.6191,-1.49748 1.2762,-0.25038 -1.228,4.46642 -6.4931,27.61131 -7.7462,34.05199 -2.9211,15.01317 -3.3028,18.77962 -3.2982,32.5497 0,14.33589 0.5828,18.37726 3.9956,27.93182 2.6109,7.30956 8.4224,15.21699 13.6411,18.56049 2.9473,1.88834 9.9495,4.25179 15.8931,5.36444 4.8942,0.9162 15.8679,0.78205 19.2843,-0.23581 1.0826,-0.32254 3.0056,-1.79434 5.0076,-3.8329 5.4606,-5.55994 9.3428,-7.77387 20.2761,-11.56305 1.928,-0.66817 6.0968,-1.66129 9.2642,-2.20687 9.6552,-1.66329 14.1777,-4.42481 17.2263,-10.51866 3.9962,-7.98803 4.1697,-14.57554 0.8245,-31.30899 -1.1065,-5.5346 -2.2166,-12.42221 -2.467,-15.30571 -0.4978,-5.73361 0.01,-12.89074 1.0973,-15.5504 0.6406,-1.56288 0.6923,-1.35767 1.0244,4.07007 0.6617,10.81326 2.7792,22.99921 5.8376,33.59404 3.5444,12.27835 1.973,23.2818 -4.4826,31.38965 l -1.9997,2.51159 4.9393,0.59861 c 12.9486,1.56935 20.7409,5.13239 25.769,11.78294 l 1.4484,1.91583 3.8096,-0.33867 c 8.6156,-0.76592 14.0516,-3.14946 19.3731,-8.49452 6.2385,-6.26602 9.4599,-13.25068 11.9198,-25.84479 0.7263,-3.71817 1.6158,-9.68979 1.9767,-13.27026 l 0.6561,-6.50994 0.6911,2.25344 c 0.4566,1.48888 0.6732,4.54715 0.6385,9.01376 -0.1657,21.29119 -8.4313,38.49336 -21.4482,44.63759 -2.8218,1.33193 -8.4611,2.93723 -12.929,3.68047 -1.6619,0.27642 -1.8959,0.47307 -1.684,1.41531 0.1353,0.60182 0.627,2.7843 1.0928,4.84995 0.64,2.83869 0.9547,7.91303 1.2886,20.78173 0.433,16.67977 0.9684,21.95502 2.5238,24.86121 0.2984,0.55765 0.4479,1.10869 0.3321,1.22452 -0.3961,0.39605 -1.789,-1.54761 -3.801,-5.304 -2.4781,-4.62636 -2.8741,-7.24902 -3.5798,-23.70624 -0.6919,-16.13404 -1.9272,-21.79994 -5.9901,-27.47375 -3.6897,-5.15262 -9.3651,-7.96296 -19.5062,-9.65905 -7.1841,-1.20153 -21.9169,-0.84374 -27.9228,0.67814 -10.2511,2.59751 -15.9292,5.40946 -21.3813,10.58841 -7.6159,7.23435 -11.0329,16.92915 -9.1403,25.93325 1.3683,6.50964 7.9752,17.99267 16.0501,27.89574 5.0855,6.23682 5.2994,6.56542 3.7267,5.72539 -0.6529,-0.34878 -4.5761,-4.03311 -8.718,-8.1874 -6.0212,-6.03907 -8.1473,-8.55716 -10.6056,-12.56093 -3.2556,-5.30224 -5.3503,-10.72572 -5.9021,-15.28093 -0.4089,-3.376 0.3939,-9.51172 1.7491,-13.36746 0.5538,-1.5758 1.007,-2.87288 1.007,-2.8824 0,-0.01 -3.4365,-0.0391 -7.6367,-0.0654 -5.1348,-0.032 -8.8368,-0.31934 -11.3,-0.87634 -5.3354,-1.20649 -7.8901,-1.06647 -12.0821,0.66211 -10.3605,4.27233 -15.3899,9.64423 -18.5172,19.77815 -0.6567,2.128 -1.1902,5.55028 -1.3663,8.76338 -0.3361,6.13547 0.5468,20.34461 1.5564,25.04729 0.3838,1.78763 0.618,3.32999 0.5205,3.42749 -0.098,0.0975 -0.7427,-0.71835 -1.4337,-1.81302 z m 178.3825,-37.88895 c -1.83,-0.38203 -4.8994,-1.35512 -6.821,-2.1625 -3.3322,-1.40004 -12.1358,-5.99976 -12.1358,-6.34073 0,-0.0891 2.6026,0.58805 5.7836,1.50474 10.6838,3.07896 18.7079,3.44386 26.6803,1.21346 9.6597,-2.70253 16.372,-7.88013 27.2661,-21.03201 3.308,-3.9936 6.2301,-7.48643 6.4936,-7.76185 1.001,-1.0465 -6.3465,13.17416 -8.451,16.35632 -5.648,8.54024 -13.5915,14.72613 -22.3158,17.37808 -4.4573,1.35487 -12.1651,1.74937 -16.5,0.84449 z m -215.018,-42.82503 c -11.1227,-8.32802 -18.5905,-16.76012 -22.8013,-25.74579 -2.914103,-6.2186 -3.630403,-9.90002 -3.324203,-17.08604 0.3009,-7.06519 1.294103,-10.75722 5.538103,-20.58713 2.4217,-5.60937 3.4067,-8.79238 5.174,-16.71983 0.2661,-1.19327 0.3224,-1.15812 1.2039,0.75115 1.6572,3.58913 1.2996,8.52456 -1.1064,15.27332 -5.4358,15.24713 -6.4846,22.21016 -4.5253,30.04587 2.6905,10.76008 10.4447,21.33953 24.0064,32.75314 2.2602,1.9021 4.1093,3.71612 4.1093,4.03115 0,0.72276 -1.031,1.77456 -1.7395,1.77456 -0.2957,0 -3.2365,-2.02068 -6.535,-4.4904 z m 278.6955,-25.6225 c 3.3319,-11.7568 0.7553,-22.2318 -7.0784,-28.77669 l -2.056,-1.71777 -1.9169,1.73179 c -3.0822,2.78455 -6.9401,2.98696 -13.9951,0.73422 l -3.7557,-1.19923 6.4879,-0.14091 c 7.5943,-0.16496 7.9504,-0.34844 8.8252,-4.54715 0.7183,-3.44761 0.2656,-11.87888 -0.8371,-15.5923 -0.8782,-2.95707 -3.916,-6.58761 -6.6917,-7.99726 -2.8392,-1.442 -9.9199,-3.52093 -11.9918,-3.52093 -1.7391,0 -2.0347,0.21288 -3.4448,2.48134 -1.8745,3.01545 -4.8046,4.93518 -10.4667,6.85762 -2.2908,0.77779 -4.165,1.57435 -4.165,1.7702 0,0.1958 1.3149,2.45225 2.922,5.01431 1.6071,2.56206 3.786,6.23567 4.8421,8.16361 1.0561,1.92795 1.9609,3.56555 2.0107,3.63911 0.05,0.0736 1.4069,-0.65881 3.0155,-1.62749 1.6087,-0.96868 3.2014,-1.76124 3.5393,-1.76124 0.338,0 1.006,-0.15022 1.4845,-0.33386 0.4937,-0.18948 -0.2451,1.12107 -1.7087,3.03058 -1.4183,1.85048 -2.7166,3.91393 -2.8852,4.5855 -0.4468,1.78017 -0.034,4.40718 1.4864,9.47502 0.741,2.46867 1.5879,6.63753 1.8821,9.26414 0.8717,7.78499 0.7322,7.5624 2.6955,4.30207 3.7028,-6.14924 6.2761,-8.46182 10.095,-9.0725 5.4652,-0.87393 11.4924,5.51632 16.9493,17.97049 l 1.9359,4.41829 0.8882,-1.73109 c 0.4884,-0.95215 1.3585,-3.39108 1.9335,-5.41987 z m -353.278303,1.69453 c -1.9751,-5.11611 -2.4673,-14.88658 -1.0531,-20.90692 2.0384,-8.67775 7.806,-16.69729 14.1446,-19.66693 2.5636,-1.20113 3.5155,-1.36518 7.9214,-1.36518 2.7542,0 5.6837,0.17487 6.5099,0.38854 l 1.5023,0.38855 -0.1601,-8.65116 c -0.3047,-16.46845 2.1491,-26.46686 8.5017,-34.64174 l 2.3519,-3.02657 -2.2798,-0.86542 c -2.7432,-1.04129 -5.9721,-3.2074 -6.385,-4.28329 -0.1648,-0.42936 -0.2379,-0.82777 -0.1626,-0.88546 0.075,-0.0576 3.2078,0.34854 6.9611,0.90258 l 6.824,1.00734 3.3648,-1.84947 c 1.850603,-1.01721 4.751403,-2.17648 6.446203,-2.57614 3.9254,-0.92571 15.4918,-0.94449 19.745,-0.0321 3.017,0.64719 3.1725,0.63202 3.8809,-0.37943 2.071,-2.95671 -0.3691,-6.08854 -5.7999,-7.44416 -1.7749,-0.44303 -5.1424,-1.28361 -7.4835,-1.86795 -2.3411,-0.58434 -6.9014,-2.31874 -10.1341,-3.85419 -4.7591,-2.2605 -6.903103,-2.96938 -11.267203,-3.72534 -12.7038,-2.20066 -20.1212,-0.68599 -26.5242,5.41622 -3.9437,3.75854 -6.6021,8.39687 -9.6668,16.86676 -5.1433,14.21425 -7.1692,16.58727 -19.2322,22.52694 -8.6845,4.27608 -11.7474,6.74475 -14.0905,11.35689 -2.0046,3.94592 -2.7156,7.1404 -2.7204,12.22396 -0.01,3.76665 1.1814,13.12394 1.7318,13.67433 0.089,0.0884 0.7604,-1.1493 1.4931,-2.7506 0.7326,-1.60134 2.9529,-5.69299 4.9338,-9.09263 2.6293,-4.51229 3.646,-5.88944 3.7659,-5.10074 0.2142,1.40895 -1.6672,7.56751 -3.2896,10.76849 -1.9253,3.79855 -3.6112,9.1045 -4.1796,13.15379 -1.2613,8.98591 2.8302,16.87065 11.1013,21.39306 3.1422,1.71812 9.4659,3.70851 11.9062,3.74742 1.4011,0.0225 1.6247,-0.11908 1.3427,-0.8495 z m -4.6286,-61.91553 c 9.8134,-3.28642 10.7772,-4.28169 11.3628,-11.73406 0.3534,-4.49782 0.5979,-5.41117 2.2295,-8.32872 1.0079,-1.80225 1.8779,-3.2761 1.9332,-3.2752 0.055,0 0.1007,4.26571 0.1007,9.47737 0,8.83719 -0.071,9.57106 -1.0497,10.88998 -2.7046,3.64371 -7.5663,5.18381 -16.2267,5.14029 l -4.7572,-0.024 6.4074,-2.14578 z m 310.083703,7.1713 c 6.4728,-3.77151 8.0751,-6.37108 7.6436,-12.40143 -0.4461,-6.23507 -4.3796,-11.77488 -10.278,-14.47526 -2.8231,-1.29247 -11.7625,-3.09071 -15.5036,-3.11871 -2.0297,-0.015 -2.1179,0.0501 -2.4479,1.80912 -0.1882,1.00368 -0.2148,3.96224 -0.059,6.57458 l 0.2834,4.74976 -1.6387,-2.44329 c -3.3962,-5.06333 -4.7384,-11.43931 -3.0822,-14.6419 0.7355,-1.42242 6.1641,-5.37636 6.6771,-4.86333 0.158,0.15795 0.045,1.0757 -0.2506,2.03947 -0.2957,0.96372 -0.5025,1.75307 -0.4594,1.75413 0.043,0 2.8884,0.55239 6.3229,1.22512 3.4346,0.67277 6.3274,1.14049 6.4285,1.03933 0.3802,-0.38023 -1.0597,-6.09826 -2.0037,-7.95664 -2.0698,-4.07478 -7.0962,-7.68969 -15.2973,-11.0015 -3.9591,-1.59879 -13.6667,-4.08884 -28.6622,-7.35208 -6.4664,-1.40719 -11.8559,-2.6573 -11.9765,-2.77799 -0.1207,-0.12068 4.5503,-0.21943 10.38,-0.21943 8.6245,0 10.5995,-0.12745 10.5995,-0.68385 0,-0.37612 -0.7951,-2.27337 -1.767,-4.21603 -3.1389,-6.27423 -8.7063,-10.8694 -15.7926,-13.03486 -3.9904,-1.21936 -11.2312,-1.84616 -15.7442,-1.36288 -2.8423,0.30442 -3.2731,0.47713 -2.9649,1.18872 0.1983,0.4579 0.4666,2.24327 0.5962,3.96751 0.2181,2.90233 0.3334,3.15546 1.554,3.41191 1.5759,0.33105 13.8075,5.07339 15.5902,6.04457 l 1.252,0.682 -1.252,-0.25755 c -6.1736,-1.26994 -18.5423,-2.74975 -22.963,-2.74729 -12.1824,0.007 -24.4282,3.30379 -30.3559,8.17298 l -1.4898,1.22376 -2.0369,-3.57365 c -1.1203,-1.96555 -3.0026,-5.37621 -4.1831,-7.57927 l -2.1463,-4.00557 4.3177,4.42691 c 2.443,2.50482 4.58,4.29971 4.9218,4.13396 0.3323,-0.16104 1.6701,-1.06282 2.9731,-2.00391 4.5608,-3.29408 14.3743,-5.75734 23.0605,-5.78834 5.4704,-0.0195 5.7289,-0.18778 5.1367,-3.34435 -1.0277,-5.47832 -14.9776,-13.71228 -27.0608,-15.97278 -6.8834,-1.28777 -17.5928,-0.82842 -23.2856,0.99877 -4.3708,1.40289 -9.8771,4.15815 -10.9902,5.49935 -0.3449,0.41553 -0.661,1.49413 -0.7024,2.39686 -0.073,1.59628 -0.01,1.65236 2.4285,2.04526 5.4474,0.8789 7.7618,1.4411 7.7618,1.88538 0,0.27492 -5.7411,0.46486 -14.0509,0.46486 -10.1932,0 -13.9564,-0.15308 -13.7065,-0.5575 0.7162,-1.15872 4.6739,-2.41959 8.6304,-2.7496 3.8726,-0.32294 4.1041,-0.40842 4.1041,-1.51505 0,-1.4397 -2.4967,-3.19734 -6.761,-4.75962 -4.0607,-1.48772 -13.4288,-1.59644 -18.2772,-0.21213 -4.6054,1.31496 -8.4193,3.1762 -9.3176,4.5471 -0.8307,1.26778 -0.5593,2.18959 1.38,4.6884 1.2238,1.57686 1.1695,2.73623 -0.1999,4.26116 -0.9264,1.03172 -2.2709,1.48617 -7.5629,2.5563 -3.54,0.71584 -6.6923,1.21621 -7.0051,1.11195 -0.3129,-0.10431 1.4726,-1.244 3.9678,-2.53272 6.6653,-3.44251 6.6011,-3.38136 5.402,-5.1435 -0.5417,-0.79612 -1.2508,-2.06716 -1.5758,-2.82457 -0.5678,-1.32361 -0.7335,-1.37709 -4.268,-1.37709 -6.0468,0 -11.4136,2.44377 -15.7489,7.17134 -2.2511,2.45475 -2.5574,3.36659 -1.4422,4.2922 0.3773,0.31313 1.3196,1.97447 2.0939,3.69184 1.9742,4.37854 2.2632,9.94073 0.7718,14.85113 -0.5922,1.94957 -1.1588,3.54471 -1.2591,3.54471 -0.1004,0 -0.2088,-1.87687 -0.2411,-4.17082 -0.1077,-7.66185 -2.3637,-13.32895 -6.1961,-15.56466 -1.1633,-0.67859 -4.0304,-1.72879 -6.3715,-2.33377 -7.785,-2.01172 -18.3327,-0.44818 -22.1795,3.28782 -2.9764,2.89067 -3.1183,7.29489 -0.3371,10.46248 1.5209,1.73229 1.8592,1.85908 10.2479,3.84081 5.9105,1.39623 11.1381,3.90997 13.4477,6.46637 1.5922,1.76244 1.8256,2.34388 1.8256,4.548 0,1.39002 -0.3546,3.21305 -0.788,4.05123 -0.4335,0.83818 -0.7152,1.56619 -0.626,1.61782 0.089,0.0516 1.6093,0.76307 3.3781,1.58097 1.7687,0.81789 4.4265,2.33211 5.9062,3.36493 1.4796,1.03283 2.7596,1.87787 2.8445,1.87787 0.085,0 0.308,-2.18854 0.4961,-4.86342 0.8033,-11.42745 3.488,-18.35893 9.1967,-23.74426 5.4687,-5.15897 13.0821,-8.45721 23.5697,-10.21089 6.2725,-1.0488 19.4741,-0.81589 26.3472,0.46486 10.1909,1.899 19.2744,6.11013 24.7195,11.46005 3.0856,3.03163 5.9386,8.33182 6.414,11.91534 0.1794,1.35257 0.3654,2.45921 0.4133,2.45921 0.048,0 2.3428,-2.19711 5.0998,-4.88246 8.4825,-8.26196 13.879,-10.69192 24.4796,-11.02283 5.2781,-0.16475 7.3677,-0.01 11.0429,0.81945 21.4264,4.83378 36.728,17.10432 37.5907,30.14428 0.1918,2.90038 -0.017,4.72566 -0.9481,8.28264 l -1.1942,4.56237 4.8071,0.31503 c 12.8389,0.84139 25.4127,6.93248 32.0146,15.50878 1.204,1.56414 2.3343,2.84384 2.5118,2.84384 0.1774,0 1.8964,-0.917 3.82,-2.03781 z"/>
 </g>
</svg>
