<?xml version='1.0' encoding='UTF-8' standalone='no'?>
<svg height="186.00983mm" xmlns:sodipodi="http://sodipodi.sourceforge.net/DTD/sodipodi-0.dtd" xmlns:rdf="http://www.w3.org/1999/02/22-rdf-syntax-ns#" xmlns:inkscape="http://www.inkscape.org/namespaces/inkscape" width="351.52878mm" xmlns:cc="http://creativecommons.org/ns#" viewBox="0 0 351.52878 186.00983" inkscape:version="0.92.4 (5da689c313, 2019-01-14)" xmlns:dc="http://purl.org/dc/elements/1.1/" xmlns:xlink="http://www.w3.org/1999/xlink" version="1.1" xmlns="http://www.w3.org/2000/svg" id="svg8" xmlns:svg="http://www.w3.org/2000/svg" sodipodi:docname="Saftfluss_6.svg">
 <defs id="defs2">
  <rect height="42.333332" width="72.571426" y="26.458332" x="424.84525" id="rect946"/>
  <rect height="33.408691" width="63.877419" y="182.54509" x="187.35594" id="rect1410"/>
  <rect height="50.781212" width="76.171814" y="114.9259" x="197.51218" id="rect1404"/>
  <rect height="26.364712" width="177.65555" y="56.126598" x="194.30495" id="rect1396"/>
  <linearGradient inkscape:collect="always" id="linearGradient1137">
   <stop style="stop-color:#0000ff;stop-opacity:1" offset="0" id="stop1133"/>
   <stop style="stop-color:#ff0000;stop-opacity:1" offset="1" id="stop1135"/>
  </linearGradient>
  <mask maskUnits="userSpaceOnUse" id="mask861">
   <rect height="320.79611" width="275.439" style="opacity:1;fill:#ff6600;fill-opacity:1;stroke:#999999;stroke-width:0.34566;stroke-miterlimit:4;stroke-dasharray:0.691317, 0.691317;stroke-dashoffset:0;stroke-opacity:0.09841273" y="-28.295387" x="448.33261" id="rect863"/>
  </mask>
  <pattern xlink:href="#pattern2380" id="pattern2390" patternTransform="translate(481.8078,272.0608)"/>
  <pattern xlink:href="#pattern2380" id="pattern2388" patternTransform="translate(522.5249,272.0608)"/>
  <pattern xlink:href="#pattern2374" id="pattern2386" patternTransform="translate(-598.2133,273.0787)"/>
  <pattern xlink:href="#pattern2374" id="pattern2384" patternTransform="translate(-471.9903,274.0966)"/>
  <pattern xlink:href="#pattern2374" id="pattern2382" patternTransform="translate(-364.0900,272.0608)"/>
  <pattern xlink:href="#pattern2372" id="pattern2380" patternTransform="translate(393.2481,273.0787)"/>
  <pattern xlink:href="#pattern2372" id="pattern2378" patternTransform="translate(282.2940,272.0608)"/>
  <pattern xlink:href="#pattern2372" id="pattern2376" patternTransform="translate(237.5052,272.0607)"/>
  <pattern xlink:href="#pattern2372" id="pattern2374" patternTransform="translate(-227.6877,272.0608)"/>
  <pattern xlink:href="#pattern2368" id="pattern2372" patternTransform="translate(147.8004,271.5518)"/>
  <linearGradient id="linearGradient2362">
   <stop offset="0" id="stop2363" stop-color="#00b207"/>
   <stop offset="0.5" id="stop2365" stop-color="#83d400"/>
   <stop offset="1" id="stop2364" stop-color="#00b207"/>
  </linearGradient>
  <linearGradient xlink:href="#linearGradient2362" y1="0.28826401" x1="-0.094341002" id="linearGradient2367" y2="0.28826401" x2="0.81934297"/>
  <pattern height="35.26939" width="35.989169" patternUnits="userSpaceOnUse" id="pattern2368" patternTransform="translate(93.85020,187.0638)">
   <path stroke-width="0.25000000pt" fill-rule="evenodd" id="path2369" fill="url(#linearGradient2367)" d="m32.210312,34.999451l3.778862,0.134964l-34.549599,-0.044998c-0.929726,-11.786438 -1.22963,-18.444443 -1.439575,-35.089432c1.709496,17.154831 1.619514,21.443542 2.159355,32.570206c0.089966,-6.568039 0.539841,-12.506241 1.619507,-18.894333c0.059982,7.197845 -0.239929,13.765869 -0.899727,20.51384c0.359886,0.239929 0.719788,0.479858 1.079681,0.719788l3.059074,0c-1.139656,-2.279327 -1.649498,-4.648605 -1.799461,-6.298111c0.899734,1.499542 1.619514,3.179047 2.159355,5.578323c-0.779762,-4.76857 -1.289612,-9.267227 -1.259621,-14.035782c0.959709,5.578323 1.559532,8.637405 1.799461,12.9561c0.179947,-2.939117 0.089966,-5.698273 0.539841,-8.817337c0.389877,3.718887 0.419876,7.257813 0,10.52684l5.578316,0.089966c-0.779762,-5.098465 -1.289612,-9.20723 -1.259621,-15.295395c1.199638,5.818237 1.319603,9.477142 1.979401,14.215714c-0.239929,-5.818253 -0.749771,-7.947617 0.9897,-16.824936c-0.569832,9.357193 -0.869736,11.246613 0.629814,18.264511l5.938217,0c0.20993,-9.357193 0.149948,-13.585922 -0.719788,-25.372375c2.309311,10.316895 1.829445,14.065765 1.349594,23.213013c0.539841,-7.677689 0.359894,-24.442642 3.329002,-30.500824c-1.829453,9.74707 -2.129356,21.113647 -2.699188,32.300293l6.298096,0c-0.839737,-4.138763 -1.589516,-8.277512 -1.43956,-12.416275c0.929726,6.148148 1.319603,8.607407 2.609215,11.066666c-0.449875,-5.368378 0.179947,-10.826736 1.529541,-15.745255c-0.599823,6.687988 -1.245705,14.735336 -0.359894,17.18483z"/>
  </pattern>
  <pattern xlink:href="#pattern2380-4" id="pattern2390-0" patternTransform="translate(481.8078,272.0608)"/>
  <pattern xlink:href="#pattern2380-4" id="pattern2388-2" patternTransform="translate(522.5249,272.0608)"/>
  <pattern xlink:href="#pattern2374-5" id="pattern2386-1" patternTransform="translate(-598.2133,273.0787)"/>
  <pattern xlink:href="#pattern2374-5" id="pattern2384-2" patternTransform="translate(-471.9903,274.0966)"/>
  <pattern xlink:href="#pattern2374-5" id="pattern2382-4" patternTransform="translate(-364.0900,272.0608)"/>
  <pattern xlink:href="#pattern2372-7" id="pattern2380-4" patternTransform="translate(393.2481,273.0787)"/>
  <pattern xlink:href="#pattern2372-7" id="pattern2378-0" patternTransform="translate(282.2940,272.0608)"/>
  <pattern xlink:href="#pattern2372-7" id="pattern2376-0" patternTransform="translate(237.5052,272.0607)"/>
  <pattern xlink:href="#pattern2372-7" id="pattern2374-5" patternTransform="translate(-227.6877,272.0608)"/>
  <pattern xlink:href="#pattern2368-0" id="pattern2372-7" patternTransform="translate(147.8004,271.5518)"/>
  <pattern height="35.26939" width="35.989169" patternUnits="userSpaceOnUse" id="pattern2368-0" patternTransform="translate(93.85020,187.0638)">
   <path stroke-width="0.25000000pt" fill-rule="evenodd" id="path2369-6" fill="url(#linearGradient2367)" d="m32.210312,34.999451l3.778862,0.134964l-34.549599,-0.044998c-0.929726,-11.786438 -1.22963,-18.444443 -1.439575,-35.089432c1.709496,17.154831 1.619514,21.443542 2.159355,32.570206c0.089966,-6.568039 0.539841,-12.506241 1.619507,-18.894333c0.059982,7.197845 -0.239929,13.765869 -0.899727,20.51384c0.359886,0.239929 0.719788,0.479858 1.079681,0.719788l3.059074,0c-1.139656,-2.279327 -1.649498,-4.648605 -1.799461,-6.298111c0.899734,1.499542 1.619514,3.179047 2.159355,5.578323c-0.779762,-4.76857 -1.289612,-9.267227 -1.259621,-14.035782c0.959709,5.578323 1.559532,8.637405 1.799461,12.9561c0.179947,-2.939117 0.089966,-5.698273 0.539841,-8.817337c0.389877,3.718887 0.419876,7.257813 0,10.52684l5.578316,0.089966c-0.779762,-5.098465 -1.289612,-9.20723 -1.259621,-15.295395c1.199638,5.818237 1.319603,9.477142 1.979401,14.215714c-0.239929,-5.818253 -0.749771,-7.947617 0.9897,-16.824936c-0.569832,9.357193 -0.869736,11.246613 0.629814,18.264511l5.938217,0c0.20993,-9.357193 0.149948,-13.585922 -0.719788,-25.372375c2.309311,10.316895 1.829445,14.065765 1.349594,23.213013c0.539841,-7.677689 0.359894,-24.442642 3.329002,-30.500824c-1.829453,9.74707 -2.129356,21.113647 -2.699188,32.300293l6.298096,0c-0.839737,-4.138763 -1.589516,-8.277512 -1.43956,-12.416275c0.929726,6.148148 1.319603,8.607407 2.609215,11.066666c-0.449875,-5.368378 0.179947,-10.826736 1.529541,-15.745255c-0.599823,6.687988 -1.245705,14.735336 -0.359894,17.18483z"/>
  </pattern>
  <linearGradient xlink:href="#linearGradient1137" gradientUnits="userSpaceOnUse" y1="179.81487" x1="358.99893" gradientTransform="matrix(-9.6135371e-4,-0.5216096,0.22384802,-7.0718807e-4,53.548006,347.09242)" inkscape:collect="always" id="linearGradient1139" y2="180.57082" x2="525.27203"/>
  <rect height="28.306011" width="99.407181" y="182.54509" x="187.35594" id="rect1410-1"/>
  <rect height="33.408691" width="63.877419" y="182.54509" x="187.35594" id="rect923"/>
  <rect height="35.814117" width="132.29842" y="56.126598" x="194.30495" id="rect1396-0"/>
  <rect height="35.814117" width="132.29842" y="56.126598" x="194.30495" id="rect989"/>
  <rect height="35.814117" width="132.29842" y="56.126598" x="194.30495" id="rect1396-0-9"/>
  <rect height="35.814117" width="132.29842" y="56.126598" x="194.30495" id="rect1032"/>
 </defs>
 <sodipodi:namedview inkscape:current-layer="layer1" inkscape:window-y="1071" inkscape:cx="572.723" fit-margin-left="0" fit-margin-bottom="0" inkscape:document-units="mm" inkscape:cy="318.96041" fit-margin-right="0" inkscape:document-rotation="0" inkscape:snap-global="false" inkscape:pageopacity="0.0" showborder="true" pagecolor="#ffffff" bordercolor="#666666" inkscape:window-x="-9" inkscape:window-width="1920" borderopacity="1.0" inkscape:zoom="0.49497475" fit-margin-top="0" showgrid="false" id="base" inkscape:pageshadow="2" inkscape:window-height="1001" inkscape:window-maximized="1"/>
 <metadata id="metadata5">
  <rdf:RDF>
   <cc:Work rdf:about="">
    <dc:format>image/svg+xml</dc:format>
    <dc:type rdf:resource="http://purl.org/dc/dcmitype/StillImage"/>
    <dc:title/>
   </cc:Work>
  </rdf:RDF>
 </metadata>
 <g inkscape:label="Ebene 1" transform="translate(36.385437,9.4184786)" inkscape:groupmode="layer" id="layer1">
  <g transform="translate(17.689285,-8.6934524)" id="g1928">
   <rect height="17.310419" width="131.38731" style="opacity:0.77399998;fill:#666666;fill-opacity:1;stroke:#4d4d4d;stroke-width:0.02935603;stroke-miterlimit:4;stroke-dasharray:none;stroke-opacity:1" y="13.180929" x="-54.060043" id="rect908" ry="0.13001299"/>
   <g transform="translate(-244.12893,-40.332652)" style="font-style:normal;font-weight:normal;font-size:10.58329964px;line-height:1.25;font-family:sans-serif;letter-spacing:0px;word-spacing:0px;white-space:pre;shape-inside:url(#rect1396);fill:#000000;fill-opacity:1;stroke:none" id="text1394" aria-label="Saftfluss im Splintholz">
    <path inkscape:connector-curvature="0" style="font-style:normal;font-variant:normal;font-weight:bold;font-stretch:normal;font-size:10.58329964px;font-family:sans-serif;-inkscape-font-specification:'sans-serif, Bold';font-variant-ligatures:normal;font-variant-caps:normal;font-variant-numeric:normal" id="path1030" d="m 201.44635,63.072243 q 0,1.136878 -0.96635,1.85001 -0.96118,0.707965 -2.61482,0.707965 -0.95601,0 -1.66914,-0.165364 -0.70797,-0.170532 -1.32808,-0.428913 v -1.844843 h 0.21704 q 0.61495,0.490925 1.37459,0.754474 0.76481,0.263549 1.4676,0.263549 0.18087,0 0.47543,-0.03101 0.29455,-0.03101 0.48058,-0.103353 0.22738,-0.09302 0.37207,-0.232543 0.14987,-0.139526 0.14987,-0.41341 0,-0.253214 -0.21705,-0.434081 -0.21187,-0.186034 -0.62528,-0.284219 -0.43408,-0.103353 -0.91984,-0.191202 -0.48058,-0.09302 -0.90433,-0.232543 -0.97151,-0.315226 -1.40043,-0.852659 -0.42374,-0.542601 -0.42374,-1.343583 0,-1.074866 0.96118,-1.751825 0.96634,-0.682127 2.48046,-0.682127 0.75964,0 1.49861,0.149861 0.74414,0.144694 1.28674,0.366902 v 1.772496 h -0.21187 q -0.46509,-0.37207 -1.14205,-0.620116 -0.67179,-0.253213 -1.37459,-0.253213 -0.24805,0 -0.49609,0.03617 -0.24288,0.03101 -0.47026,0.124023 -0.20153,0.07752 -0.34623,0.237711 -0.14469,0.155029 -0.14469,0.356566 0,0.30489 0.23254,0.470254 0.23255,0.160197 0.8785,0.294555 0.42375,0.08785 0.81132,0.170532 0.39274,0.08268 0.84232,0.227375 0.88366,0.289387 1.30224,0.790647 0.42375,0.496092 0.42375,1.291907 z"/>
    <path inkscape:connector-curvature="0" style="font-style:normal;font-variant:normal;font-weight:bold;font-stretch:normal;font-size:10.58329964px;font-family:sans-serif;-inkscape-font-specification:'sans-serif, Bold';font-variant-ligatures:normal;font-variant-caps:normal;font-variant-numeric:normal" id="path1032" d="m 206.22123,63.976577 v -1.209224 q -0.37723,0.03101 -0.81648,0.08785 -0.43925,0.05168 -0.66662,0.124024 -0.27906,0.08785 -0.42892,0.258381 -0.14469,0.165364 -0.14469,0.439248 0,0.180867 0.031,0.294555 0.031,0.113688 0.15502,0.21704 0.11886,0.103353 0.28422,0.155029 0.16537,0.04651 0.51677,0.04651 0.27905,0 0.56327,-0.113688 0.28938,-0.113688 0.50642,-0.299723 z m 0,0.899168 q -0.14986,0.113687 -0.37206,0.273884 -0.22221,0.160196 -0.41858,0.253213 -0.27389,0.124024 -0.56844,0.180867 -0.29456,0.06201 -0.64595,0.06201 -0.82682,0 -1.38493,-0.511595 -0.5581,-0.511595 -0.5581,-1.30741 0,-0.635618 0.28422,-1.038693 0.28422,-0.403075 0.80615,-0.635618 0.51676,-0.232543 1.28157,-0.330728 0.76481,-0.09819 1.58646,-0.144693 v -0.03101 q 0,-0.480589 -0.39274,-0.661456 -0.39274,-0.186035 -1.15755,-0.186035 -0.45992,0 -0.98185,0.165364 -0.52193,0.160197 -0.7493,0.248046 H 202.7796 V 59.81147 q 0.29455,-0.07751 0.95601,-0.180867 0.66662,-0.10852 1.33324,-0.10852 1.58647,0 2.28926,0.490925 0.70797,0.485757 0.70797,1.529617 v 3.948067 h -1.84485 z"/>
    <path inkscape:connector-curvature="0" style="font-style:normal;font-variant:normal;font-weight:bold;font-stretch:normal;font-size:10.58329964px;font-family:sans-serif;-inkscape-font-specification:'sans-serif, Bold';font-variant-ligatures:normal;font-variant-caps:normal;font-variant-numeric:normal" id="path1034" d="m 213.53859,58.814118 h -0.13952 q -0.12402,-0.03617 -0.32556,-0.08268 -0.19637,-0.04651 -0.42375,-0.04651 -0.54777,0 -0.74414,0.196369 -0.1912,0.19637 -0.1912,0.759642 v 0.04651 h 1.4366 v 1.260901 h -1.37459 v 4.542344 h -1.86034 V 60.94835 h -0.79582 v -1.260901 h 0.79582 v -0.160196 q 0,-1.064531 0.56327,-1.596797 0.56844,-0.532265 1.71565,-0.532265 0.41341,0 0.74931,0.03101 0.33589,0.02584 0.59427,0.07235 z"/>
    <path inkscape:connector-curvature="0" style="font-style:normal;font-variant:normal;font-weight:bold;font-stretch:normal;font-size:10.58329964px;font-family:sans-serif;-inkscape-font-specification:'sans-serif, Bold';font-variant-ligatures:normal;font-variant-caps:normal;font-variant-numeric:normal" id="path1036" d="m 217.95175,65.439016 q -0.29972,0.07751 -0.63562,0.118855 -0.3359,0.04651 -0.82165,0.04651 -1.0852,0 -1.61747,-0.439248 -0.5271,-0.439249 -0.5271,-1.50378 v -2.713004 h -0.76481 v -1.260901 h 0.76481 V 58.02864 h 1.86035 v 1.658808 h 1.74149 v 1.260901 h -1.74149 v 2.056716 q 0,0.30489 0.005,0.532265 0.005,0.227376 0.0827,0.408243 0.0723,0.180867 0.25321,0.289387 0.18604,0.103352 0.53743,0.103352 0.1447,0 0.37724,-0.06201 0.23771,-0.06201 0.33073,-0.113688 h 0.15503 z"/>
    <path inkscape:connector-curvature="0" style="font-style:normal;font-variant:normal;font-weight:bold;font-stretch:normal;font-size:10.58329964px;font-family:sans-serif;-inkscape-font-specification:'sans-serif, Bold';font-variant-ligatures:normal;font-variant-caps:normal;font-variant-numeric:normal" id="path1038" d="m 222.81965,58.814118 h -0.13952 q -0.12403,-0.03617 -0.32556,-0.08268 -0.19637,-0.04651 -0.42375,-0.04651 -0.54777,0 -0.74414,0.196369 -0.1912,0.19637 -0.1912,0.759642 v 0.04651 h 1.4366 v 1.260901 h -1.37459 v 4.542344 h -1.86034 V 60.94835 h -0.79582 v -1.260901 h 0.79582 v -0.160196 q 0,-1.064531 0.56327,-1.596797 0.56844,-0.532265 1.71565,-0.532265 0.41341,0 0.7493,0.03101 0.3359,0.02584 0.59428,0.07235 z"/>
    <path inkscape:connector-curvature="0" style="font-style:normal;font-variant:normal;font-weight:bold;font-stretch:normal;font-size:10.58329964px;font-family:sans-serif;-inkscape-font-specification:'sans-serif, Bold';font-variant-ligatures:normal;font-variant-caps:normal;font-variant-numeric:normal" id="path1040" d="m 225.3828,65.490692 h -1.86035 v -8.040827 h 1.86035 z"/>
    <path inkscape:connector-curvature="0" style="font-style:normal;font-variant:normal;font-weight:bold;font-stretch:normal;font-size:10.58329964px;font-family:sans-serif;-inkscape-font-specification:'sans-serif, Bold';font-variant-ligatures:normal;font-variant-caps:normal;font-variant-numeric:normal" id="path1042" d="m 232.92236,65.490692 h -1.86034 v -0.640786 q -0.51677,0.39274 -0.94568,0.599445 -0.42891,0.201538 -1.02319,0.201538 -0.96118,0 -1.48311,-0.552936 -0.51676,-0.552937 -0.51676,-1.632971 v -3.777535 h 1.87068 v 2.878368 q 0,0.439249 0.0258,0.733803 0.031,0.289387 0.13436,0.48059 0.0982,0.191202 0.29455,0.279052 0.20154,0.08785 0.55811,0.08785 0.23771,0 0.52709,-0.08785 0.28939,-0.08785 0.55811,-0.258382 v -4.113431 h 1.86034 z"/>
    <path inkscape:connector-curvature="0" style="font-style:normal;font-variant:normal;font-weight:bold;font-stretch:normal;font-size:10.58329964px;font-family:sans-serif;-inkscape-font-specification:'sans-serif, Bold';font-variant-ligatures:normal;font-variant-caps:normal;font-variant-numeric:normal" id="path1044" d="m 239.72813,63.651017 q 0,0.899167 -0.80615,1.452103 -0.80615,0.547769 -2.20658,0.547769 -0.77514,0 -1.40559,-0.144694 -0.63045,-0.144694 -1.01286,-0.320393 v -1.529617 h 0.17053 q 0.13953,0.09819 0.3204,0.21704 0.18603,0.113688 0.52193,0.248046 0.28938,0.118855 0.65628,0.206705 0.36691,0.08268 0.78548,0.08268 0.54777,0 0.81132,-0.118855 0.26355,-0.124023 0.26355,-0.361734 0,-0.211873 -0.15503,-0.30489 -0.15503,-0.09819 -0.58911,-0.186035 -0.2067,-0.04651 -0.56327,-0.09819 -0.3514,-0.05684 -0.64079,-0.134358 -0.79064,-0.206705 -1.17305,-0.640786 -0.3824,-0.439248 -0.3824,-1.090369 0,-0.837155 0.79065,-1.390091 0.79581,-0.558104 2.1704,-0.558104 0.65112,0 1.2454,0.134358 0.59944,0.129191 0.93534,0.279052 v 1.467606 h -0.1602 q -0.41341,-0.284219 -0.94567,-0.459919 -0.5271,-0.180867 -1.0697,-0.180867 -0.44959,0 -0.75964,0.124023 -0.30489,0.124023 -0.30489,0.351399 0,0.206705 0.13952,0.315225 0.13953,0.10852 0.65629,0.21704 0.28422,0.05684 0.60978,0.113688 0.33073,0.05168 0.66146,0.134359 0.7338,0.191202 1.0852,0.604612 0.3514,0.408242 0.3514,1.02319 z"/>
    <path inkscape:connector-curvature="0" style="font-style:normal;font-variant:normal;font-weight:bold;font-stretch:normal;font-size:10.58329964px;font-family:sans-serif;-inkscape-font-specification:'sans-serif, Bold';font-variant-ligatures:normal;font-variant-caps:normal;font-variant-numeric:normal" id="path1046" d="m 246.01196,63.651017 q 0,0.899167 -0.80615,1.452103 -0.80615,0.547769 -2.20658,0.547769 -0.77514,0 -1.40559,-0.144694 -0.63045,-0.144694 -1.01286,-0.320393 v -1.529617 h 0.17054 q 0.13952,0.09819 0.32039,0.21704 0.18603,0.113688 0.52193,0.248046 0.28939,0.118855 0.65629,0.206705 0.3669,0.08268 0.78548,0.08268 0.54776,0 0.81131,-0.118855 0.26355,-0.124023 0.26355,-0.361734 0,-0.211873 -0.15503,-0.30489 -0.15502,-0.09819 -0.58911,-0.186035 -0.2067,-0.04651 -0.56327,-0.09819 -0.3514,-0.05684 -0.64078,-0.134358 -0.79065,-0.206705 -1.17305,-0.640786 -0.38241,-0.439248 -0.38241,-1.090369 0,-0.837155 0.79065,-1.390091 0.79581,-0.558104 2.1704,-0.558104 0.65112,0 1.2454,0.134358 0.59944,0.129191 0.93534,0.279052 v 1.467606 h -0.1602 q -0.41341,-0.284219 -0.94567,-0.459919 -0.5271,-0.180867 -1.0697,-0.180867 -0.44958,0 -0.75964,0.124023 -0.30489,0.124023 -0.30489,0.351399 0,0.206705 0.13952,0.315225 0.13953,0.10852 0.65629,0.21704 0.28422,0.05684 0.60978,0.113688 0.33073,0.05168 0.66146,0.134359 0.7338,0.191202 1.0852,0.604612 0.3514,0.408242 0.3514,1.02319 z"/>
    <path inkscape:connector-curvature="0" id="path1048" d="m 252.09426,58.752107 h -1.09554 V 57.74442 h 1.09554 z m -0.062,6.738585 h -0.97152 v -5.772239 h 0.97152 z"/>
    <path inkscape:connector-curvature="0" id="path1050" d="m 262.38817,65.490692 h -0.97151 v -3.28661 q 0,-0.37207 -0.0362,-0.718301 -0.031,-0.346231 -0.13952,-0.552936 -0.11886,-0.222208 -0.34107,-0.335895 -0.22221,-0.113688 -0.64078,-0.113688 -0.40825,0 -0.81649,0.206705 -0.40824,0.201537 -0.81648,0.516763 0.0155,0.118855 0.0258,0.279051 0.0103,0.155029 0.0103,0.310058 v 3.694853 h -0.97151 v -3.28661 q 0,-0.382405 -0.0362,-0.723468 -0.031,-0.346231 -0.13952,-0.552936 -0.11886,-0.222208 -0.34107,-0.330728 -0.2222,-0.113688 -0.64078,-0.113688 -0.39791,0 -0.80098,0.19637 -0.39791,0.196369 -0.79582,0.501259 v 4.309801 h -0.97151 v -5.772239 h 0.97151 v 0.640786 q 0.45475,-0.377237 0.90434,-0.58911 0.45475,-0.211872 0.96634,-0.211872 0.58911,0 0.99735,0.248046 0.41341,0.248046 0.61495,0.687294 0.58911,-0.496092 1.07487,-0.713132 0.48575,-0.222208 1.03869,-0.222208 0.95084,0 1.40043,0.578774 0.45475,0.573606 0.45475,1.607132 z"/>
    <path inkscape:connector-curvature="0" id="path1052" d="m 273.64843,63.294451 q 0,0.449583 -0.21188,0.888832 -0.2067,0.439248 -0.58394,0.744138 -0.41341,0.330728 -0.96634,0.516762 -0.54777,0.186035 -1.32292,0.186035 -0.83198,0 -1.49861,-0.155029 -0.66145,-0.155029 -1.34875,-0.459919 v -1.281571 h 0.0724 q 0.58394,0.485757 1.34875,0.749306 0.76481,0.263549 1.4366,0.263549 0.95084,0 1.47794,-0.356566 0.53227,-0.356567 0.53227,-0.950844 0,-0.511595 -0.25322,-0.754473 -0.24804,-0.242879 -0.75964,-0.377237 -0.38757,-0.103352 -0.84232,-0.170532 -0.44959,-0.06718 -0.95601,-0.170531 -1.02319,-0.217041 -1.51929,-0.738971 -0.49092,-0.527098 -0.49092,-1.369421 0,-0.966346 0.81648,-1.581294 0.81649,-0.620115 2.07222,-0.620115 0.81132,0 1.48828,0.155029 0.67696,0.155029 1.19889,0.382404 v 1.209225 h -0.0723 q -0.43925,-0.372069 -1.15755,-0.614948 -0.71313,-0.248046 -1.46243,-0.248046 -0.82166,0 -1.32292,0.341063 -0.49609,0.341064 -0.49609,0.878497 0,0.480589 0.24805,0.754474 0.24804,0.273884 0.87333,0.418577 0.33072,0.07235 0.9405,0.1757 0.60978,0.103352 1.03353,0.211872 0.85783,0.227376 1.29191,0.687295 0.43408,0.459918 0.43408,1.286739 z"/>
    <path inkscape:connector-curvature="0" id="path1054" d="m 280.294,62.53481 q 0,0.702797 -0.20154,1.286739 -0.20154,0.578774 -0.56844,0.981849 -0.34106,0.382404 -0.80615,0.594277 -0.45992,0.206705 -0.97668,0.206705 -0.44958,0 -0.81649,-0.09819 -0.36173,-0.09819 -0.73897,-0.30489 v 2.418449 h -0.97151 v -7.901301 h 0.97151 v 0.604612 q 0.38758,-0.32556 0.86817,-0.5426 0.48575,-0.222208 1.03352,-0.222208 1.04386,0 1.62264,0.790646 0.58394,0.78548 0.58394,2.185907 z m -1.00252,0.02584 q 0,-1.043861 -0.35657,-1.560624 -0.35656,-0.516762 -1.09554,-0.516762 -0.41857,0 -0.84232,0.180867 -0.42374,0.180867 -0.81132,0.475421 v 3.271108 q 0.41341,0.186035 0.70797,0.253214 0.29972,0.06718 0.67696,0.06718 0.81132,0 1.26607,-0.547768 0.45475,-0.547769 0.45475,-1.622636 z"/>
    <path inkscape:connector-curvature="0" id="path1056" d="m 282.78996,65.490692 h -0.97152 v -8.040827 h 0.97152 z"/>
    <path inkscape:connector-curvature="0" id="path1058" d="m 285.76651,58.752107 h -1.09554 V 57.74442 h 1.09554 z m -0.062,6.738585 H 284.733 v -5.772239 h 0.97151 z"/>
    <path inkscape:connector-curvature="0" id="path1060" d="m 292.46376,65.490692 h -0.97152 v -3.28661 q 0,-0.397908 -0.0465,-0.744139 -0.0465,-0.351398 -0.17053,-0.547768 -0.12919,-0.217041 -0.37207,-0.320393 -0.24287,-0.10852 -0.63045,-0.10852 -0.3979,0 -0.83198,0.19637 -0.43409,0.196369 -0.83199,0.501259 v 4.309801 h -0.97152 v -5.772239 h 0.97152 v 0.640786 q 0.45475,-0.377237 0.94051,-0.58911 0.48575,-0.211872 0.99735,-0.211872 0.93534,0 1.42626,0.563271 0.49093,0.563271 0.49093,1.622635 z"/>
    <path inkscape:connector-curvature="0" id="path1062" d="m 297.33166,65.439016 q -0.27388,0.07235 -0.59944,0.118855 -0.3204,0.04651 -0.57361,0.04651 -0.88367,0 -1.34358,-0.475422 -0.45992,-0.475421 -0.45992,-1.52445 v -3.06957 h -0.65629 v -0.816485 h 0.65629 v -1.658808 h 0.97151 v 1.658808 h 2.00504 v 0.816485 h -2.00504 v 2.630322 q 0,0.454751 0.0207,0.713133 0.0207,0.253213 0.14469,0.475421 0.11369,0.206705 0.31006,0.30489 0.20154,0.09302 0.60978,0.09302 0.23771,0 0.49609,-0.06718 0.25839,-0.07235 0.37207,-0.118855 h 0.0517 z"/>
    <path inkscape:connector-curvature="0" id="path1064" d="m 303.33645,65.490692 h -0.97152 v -3.28661 q 0,-0.397908 -0.0465,-0.744139 -0.0465,-0.351398 -0.17053,-0.547768 -0.12919,-0.217041 -0.37207,-0.320393 -0.24288,-0.10852 -0.63045,-0.10852 -0.39791,0 -0.83199,0.19637 -0.43408,0.196369 -0.83198,0.501259 v 4.309801 h -0.97152 v -8.040827 h 0.97152 v 2.909374 q 0.45475,-0.377237 0.9405,-0.58911 0.48576,-0.211872 0.99736,-0.211872 0.93534,0 1.42626,0.563271 0.49093,0.563271 0.49093,1.622635 z"/>
    <path inkscape:connector-curvature="0" id="path1066" d="m 310.12671,62.607156 q 0,1.410763 -0.72347,2.227248 -0.72347,0.816485 -1.93786,0.816485 -1.22473,0 -1.9482,-0.816485 -0.7183,-0.816485 -0.7183,-2.227248 0,-1.410762 0.7183,-2.227247 0.72347,-0.821652 1.9482,-0.821652 1.21439,0 1.93786,0.821652 0.72347,0.816485 0.72347,2.227247 z m -1.00252,0 q 0,-1.121375 -0.43925,-1.663975 -0.43925,-0.547769 -1.21956,-0.547769 -0.79065,0 -1.2299,0.547769 -0.43408,0.5426 -0.43408,1.663975 0,1.085202 0.43925,1.648473 0.43925,0.558104 1.22473,0.558104 0.77514,0 1.21439,-0.552936 0.44442,-0.558104 0.44442,-1.653641 z"/>
    <path inkscape:connector-curvature="0" id="path1068" d="m 312.6175,65.490692 h -0.97151 v -8.040827 h 0.97151 z"/>
    <path inkscape:connector-curvature="0" id="path1070" d="m 318.73597,65.490692 h -4.6612 v -0.7183 l 3.36413,-4.242622 h -3.29178 v -0.811317 h 4.501 v 0.692462 l -3.37962,4.258124 h 3.46747 z"/>
   </g>
  </g>
  <g transform="translate(55.275666,-29.028568)" id="g1061">
   <rect height="15.185946" width="46.159748" style="opacity:0.77399998;fill:#666666;fill-opacity:1;stroke:#4d4d4d;stroke-width:0.01629744;stroke-miterlimit:4;stroke-dasharray:none;stroke-opacity:1" y="190.42583" x="-91.652954" id="rect908-9-6-7-3" ry="0.11405676"/>
   <g transform="translate(-273.06957,10.050455)" style="font-style:normal;font-weight:normal;font-size:10.58329964px;line-height:1.25;font-family:sans-serif;letter-spacing:0px;word-spacing:0px;white-space:pre;shape-inside:url(#rect1410);fill:#000000;fill-opacity:1;stroke:none" id="text1408" aria-label="F체hler">
    <path inkscape:connector-curvature="0" id="path1017" d="m 193.30341,185.12357 h -3.89123 v 2.1704 h 3.34346 v 0.9095 h -3.34346 v 3.70519 h -1.02319 v -7.6946 h 4.91442 z"/>
    <path inkscape:connector-curvature="0" id="path1019" d="m 199.17383,191.90866 h -0.97151 v -0.64078 q -0.49093,0.38757 -0.94051,0.59427 -0.44958,0.20671 -0.99219,0.20671 -0.9095,0 -1.41592,-0.55294 -0.50643,-0.5581 -0.50643,-1.63297 v -3.74653 h 0.97151 v 3.28661 q 0,0.43925 0.0413,0.75448 0.0413,0.31005 0.1757,0.53226 0.13953,0.22738 0.36174,0.33073 0.2222,0.10335 0.64595,0.10335 0.37724,0 0.82165,-0.19637 0.44959,-0.19637 0.83716,-0.50126 v -4.3098 h 0.97151 z m -0.80615,-6.73858 h -1.02836 v -1.00769 h 1.02836 z m -2.13423,0 h -1.02836 v -1.00769 h 1.02836 z"/>
    <path inkscape:connector-curvature="0" id="path1021" d="m 205.91242,191.90866 h -0.97152 v -3.28661 q 0,-0.39791 -0.0465,-0.74414 -0.0465,-0.3514 -0.17053,-0.54777 -0.12919,-0.21704 -0.37207,-0.32039 -0.24288,-0.10852 -0.63045,-0.10852 -0.3979,0 -0.83199,0.19637 -0.43408,0.19637 -0.83198,0.50126 v 4.3098 h -0.97152 v -8.04083 h 0.97152 v 2.90938 q 0.45475,-0.37724 0.9405,-0.58911 0.48576,-0.21187 0.99736,-0.21187 0.93534,0 1.42626,0.56327 0.49093,0.56327 0.49093,1.62263 z"/>
    <path inkscape:connector-curvature="0" id="path1023" d="m 208.76495,191.90866 h -0.97152 v -8.04083 h 0.97152 z"/>
    <path inkscape:connector-curvature="0" id="path1025" d="m 215.52937,189.12331 h -4.25296 q 0,0.53227 0.1602,0.93017 0.16019,0.39274 0.43925,0.64596 0.26871,0.24804 0.63561,0.37207 0.37207,0.12402 0.81649,0.12402 0.58911,0 1.18339,-0.23254 0.59944,-0.23772 0.85265,-0.46509 h 0.0517 v 1.05936 q -0.49092,0.20671 -1.00252,0.34623 -0.51159,0.13953 -1.07487,0.13953 -1.4366,0 -2.24275,-0.77514 -0.80614,-0.78032 -0.80614,-2.21175 0,-1.41593 0.76997,-2.24792 0.77515,-0.83198 2.03605,-0.83198 1.16788,0 1.79833,0.68212 0.63562,0.68213 0.63562,1.93786 z m -0.94568,-0.74414 q -0.005,-0.76481 -0.38757,-1.18338 -0.37724,-0.41858 -1.15238,-0.41858 -0.78031,0 -1.2454,0.45992 -0.45992,0.45992 -0.52193,1.14204 z"/>
    <path inkscape:connector-curvature="0" id="path1027" d="m 220.60398,187.19579 h -0.0517 q -0.21704,-0.0517 -0.42374,-0.0724 -0.20154,-0.0258 -0.48059,-0.0258 -0.44958,0 -0.86816,0.20154 -0.41858,0.19637 -0.80615,0.51159 v 4.09793 h -0.97152 v -5.77224 h 0.97152 v 0.85266 q 0.57877,-0.46509 1.01802,-0.65629 0.44442,-0.19637 0.90433,-0.19637 0.25322,0 0.36691,0.0155 0.11368,0.0103 0.34106,0.0465 z"/>
   </g>
  </g>
  <g transform="translate(49.163181,-35.151787)" id="g1026">
   <rect height="15.178999" width="93.952782" style="opacity:0.77399998;fill:#666666;fill-opacity:1;stroke:#4d4d4d;stroke-width:0.02324573;stroke-miterlimit:4;stroke-dasharray:none;stroke-opacity:1" y="85.125099" x="-85.536995" id="rect908-9-6" ry="0.11400457"/>
   <g transform="translate(-270.4193,-96.238152)" style="font-style:normal;font-weight:normal;font-size:10.58329964px;line-height:1.25;font-family:sans-serif;letter-spacing:0px;word-spacing:0px;white-space:pre;shape-inside:url(#rect1410-1);fill:#000000;fill-opacity:1;stroke:none" id="text1408-8" aria-label="F체hler (beheitzt)">
    <path inkscape:connector-curvature="0" id="path984" d="m 193.30341,185.12357 h -3.89123 v 2.1704 h 3.34346 v 0.9095 h -3.34346 v 3.70519 h -1.02319 v -7.6946 h 4.91442 z"/>
    <path inkscape:connector-curvature="0" id="path986" d="m 199.17383,191.90866 h -0.97151 v -0.64078 q -0.49093,0.38757 -0.94051,0.59427 -0.44958,0.20671 -0.99219,0.20671 -0.9095,0 -1.41592,-0.55294 -0.50643,-0.5581 -0.50643,-1.63297 v -3.74653 h 0.97151 v 3.28661 q 0,0.43925 0.0413,0.75448 0.0413,0.31005 0.1757,0.53226 0.13953,0.22738 0.36174,0.33073 0.2222,0.10335 0.64595,0.10335 0.37724,0 0.82165,-0.19637 0.44959,-0.19637 0.83716,-0.50126 v -4.3098 h 0.97151 z m -0.80615,-6.73858 h -1.02836 v -1.00769 h 1.02836 z m -2.13423,0 h -1.02836 v -1.00769 h 1.02836 z"/>
    <path inkscape:connector-curvature="0" id="path988" d="m 205.91242,191.90866 h -0.97152 v -3.28661 q 0,-0.39791 -0.0465,-0.74414 -0.0465,-0.3514 -0.17053,-0.54777 -0.12919,-0.21704 -0.37207,-0.32039 -0.24288,-0.10852 -0.63045,-0.10852 -0.3979,0 -0.83199,0.19637 -0.43408,0.19637 -0.83198,0.50126 v 4.3098 h -0.97152 v -8.04083 h 0.97152 v 2.90938 q 0.45475,-0.37724 0.9405,-0.58911 0.48576,-0.21187 0.99736,-0.21187 0.93534,0 1.42626,0.56327 0.49093,0.56327 0.49093,1.62263 z"/>
    <path inkscape:connector-curvature="0" id="path990" d="m 208.76495,191.90866 h -0.97152 v -8.04083 h 0.97152 z"/>
    <path inkscape:connector-curvature="0" id="path992" d="m 215.52937,189.12331 h -4.25296 q 0,0.53227 0.1602,0.93017 0.16019,0.39274 0.43925,0.64596 0.26871,0.24804 0.63561,0.37207 0.37207,0.12402 0.81649,0.12402 0.58911,0 1.18339,-0.23254 0.59944,-0.23772 0.85265,-0.46509 h 0.0517 v 1.05936 q -0.49092,0.20671 -1.00252,0.34623 -0.51159,0.13953 -1.07487,0.13953 -1.4366,0 -2.24275,-0.77514 -0.80614,-0.78032 -0.80614,-2.21175 0,-1.41593 0.76997,-2.24792 0.77515,-0.83198 2.03605,-0.83198 1.16788,0 1.79833,0.68212 0.63562,0.68213 0.63562,1.93786 z m -0.94568,-0.74414 q -0.005,-0.76481 -0.38757,-1.18338 -0.37724,-0.41858 -1.15238,-0.41858 -0.78031,0 -1.2454,0.45992 -0.45992,0.45992 -0.52193,1.14204 z"/>
    <path inkscape:connector-curvature="0" id="path994" d="m 220.60398,187.19579 h -0.0517 q -0.21704,-0.0517 -0.42374,-0.0724 -0.20154,-0.0258 -0.48059,-0.0258 -0.44958,0 -0.86816,0.20154 -0.41858,0.19637 -0.80615,0.51159 v 4.09793 h -0.97152 v -5.77224 h 0.97152 v 0.85266 q 0.57877,-0.46509 1.01802,-0.65629 0.44442,-0.19637 0.90433,-0.19637 0.25322,0 0.36691,0.0155 0.11368,0.0103 0.34106,0.0465 z"/>
    <path inkscape:connector-curvature="0" id="path996" d="m 228.33991,194.03772 h -1.18338 q -0.91467,-1.04903 -1.4211,-2.28926 -0.50643,-1.24023 -0.50643,-2.79568 0,-1.55546 0.50643,-2.79569 0.50643,-1.24023 1.4211,-2.28926 h 1.18338 v 0.0517 q -0.41857,0.37724 -0.80098,0.87333 -0.37723,0.49092 -0.70279,1.14721 -0.31006,0.63562 -0.50643,1.40043 -0.1912,0.76481 -0.1912,1.6123 0,0.88366 0.18603,1.61747 0.1912,0.7338 0.5116,1.39525 0.31005,0.63562 0.70796,1.14722 0.39791,0.51676 0.79581,0.87333 z"/>
    <path inkscape:connector-curvature="0" id="path998" d="m 235.14568,188.97862 q 0,0.72346 -0.2067,1.30224 -0.20154,0.57877 -0.54777,0.97151 -0.3669,0.40824 -0.80615,0.61495 -0.43925,0.20154 -0.96635,0.20154 -0.49092,0 -0.85782,-0.11886 -0.36691,-0.11369 -0.72347,-0.31006 l -0.062,0.26872 h -0.90951 v -8.04083 h 0.97152 v 2.8732 q 0.40824,-0.33589 0.86816,-0.54776 0.45992,-0.21704 1.03353,-0.21704 1.02319,0 1.61229,0.78547 0.59428,0.78548 0.59428,2.21692 z m -1.00252,0.0258 q 0,-1.03352 -0.34106,-1.56579 -0.34106,-0.53743 -1.10071,-0.53743 -0.42374,0 -0.85782,0.18604 -0.43408,0.18086 -0.80615,0.47025 v 3.30728 q 0.41341,0.18603 0.70796,0.25838 0.29973,0.0724 0.67696,0.0724 0.80615,0 1.2609,-0.5271 0.45992,-0.53227 0.45992,-1.66398 z"/>
    <path inkscape:connector-curvature="0" id="path1000" d="m 241.49153,189.12331 h -4.25296 q 0,0.53227 0.1602,0.93017 0.16019,0.39274 0.43924,0.64596 0.26872,0.24804 0.63562,0.37207 0.37207,0.12402 0.81649,0.12402 0.58911,0 1.18338,-0.23254 0.59945,-0.23772 0.85266,-0.46509 h 0.0517 v 1.05936 q -0.49093,0.20671 -1.00252,0.34623 -0.5116,0.13953 -1.07487,0.13953 -1.4366,0 -2.24275,-0.77514 -0.80615,-0.78032 -0.80615,-2.21175 0,-1.41593 0.76998,-2.24792 0.77514,-0.83198 2.03604,-0.83198 1.16789,0 1.79834,0.68212 0.63562,0.68213 0.63562,1.93786 z m -0.94568,-0.74414 q -0.005,-0.76481 -0.38757,-1.18338 -0.37724,-0.41858 -1.15238,-0.41858 -0.78031,0 -1.2454,0.45992 -0.45992,0.45992 -0.52193,1.14204 z"/>
    <path inkscape:connector-curvature="0" id="path1002" d="m 247.79086,191.90866 h -0.97151 v -3.28661 q 0,-0.39791 -0.0465,-0.74414 -0.0465,-0.3514 -0.17053,-0.54777 -0.12919,-0.21704 -0.37207,-0.32039 -0.24288,-0.10852 -0.63045,-0.10852 -0.39791,0 -0.83199,0.19637 -0.43408,0.19637 -0.83199,0.50126 v 4.3098 h -0.97151 v -8.04083 h 0.97151 v 2.90938 q 0.45476,-0.37724 0.94051,-0.58911 0.48576,-0.21187 0.99735,-0.21187 0.93534,0 1.42627,0.56327 0.49092,0.56327 0.49092,1.62263 z"/>
    <path inkscape:connector-curvature="0" id="path1004" d="m 254.49327,189.12331 h -4.25295 q 0,0.53227 0.16019,0.93017 0.1602,0.39274 0.43925,0.64596 0.26872,0.24804 0.63562,0.37207 0.37207,0.12402 0.81649,0.12402 0.5891,0 1.18338,-0.23254 0.59945,-0.23772 0.85266,-0.46509 h 0.0517 v 1.05936 q -0.49093,0.20671 -1.00252,0.34623 -0.5116,0.13953 -1.07487,0.13953 -1.4366,0 -2.24275,-0.77514 -0.80615,-0.78032 -0.80615,-2.21175 0,-1.41593 0.76998,-2.24792 0.77514,-0.83198 2.03604,-0.83198 1.16789,0 1.79834,0.68212 0.63561,0.68213 0.63561,1.93786 z m -0.94567,-0.74414 q -0.005,-0.76481 -0.38757,-1.18338 -0.37724,-0.41858 -1.15238,-0.41858 -0.78032,0 -1.2454,0.45992 -0.45992,0.45992 -0.52193,1.14204 z"/>
    <path inkscape:connector-curvature="0" id="path1006" d="m 257.00991,185.17008 h -1.09554 v -1.00769 h 1.09554 z m -0.062,6.73858 h -0.97151 v -5.77224 h 0.97151 z"/>
    <path inkscape:connector-curvature="0" id="path1008" d="m 261.87782,191.85698 q -0.27389,0.0724 -0.59945,0.11886 -0.32039,0.0465 -0.5736,0.0465 -0.88367,0 -1.34359,-0.47542 -0.45992,-0.47542 -0.45992,-1.52445 v -3.06957 h -0.65628 v -0.81649 h 0.65628 v -1.65881 h 0.97152 v 1.65881 h 2.00504 v 0.81649 h -2.00504 v 2.63032 q 0,0.45475 0.0207,0.71313 0.0207,0.25322 0.14469,0.47542 0.11369,0.20671 0.31006,0.30489 0.20154,0.093 0.60978,0.093 0.23771,0 0.49609,-0.0672 0.25838,-0.0724 0.37207,-0.11885 h 0.0517 z"/>
    <path inkscape:connector-curvature="0" id="path1010" d="m 267.24181,191.90866 h -4.6612 v -0.7183 l 3.36413,-4.24262 h -3.29178 v -0.81132 h 4.501 v 0.69246 l -3.37963,4.25813 h 3.46748 z"/>
    <path inkscape:connector-curvature="0" id="path1012" d="m 271.61362,191.85698 q -0.27388,0.0724 -0.59945,0.11886 -0.32039,0.0465 -0.5736,0.0465 -0.88367,0 -1.34358,-0.47542 -0.45992,-0.47542 -0.45992,-1.52445 v -3.06957 h -0.65629 v -0.81649 h 0.65629 v -1.65881 h 0.97151 v 1.65881 h 2.00504 v 0.81649 h -2.00504 v 2.63032 q 0,0.45475 0.0207,0.71313 0.0207,0.25322 0.14469,0.47542 0.11369,0.20671 0.31006,0.30489 0.20154,0.093 0.60978,0.093 0.23771,0 0.49609,-0.0672 0.25839,-0.0724 0.37207,-0.11885 h 0.0517 z"/>
    <path inkscape:connector-curvature="0" id="path1014" d="m 275.70638,188.95278 q 0,1.55545 -0.50642,2.79568 -0.50643,1.24023 -1.4211,2.28926 h -1.18339 v -0.0517 q 0.39791,-0.35657 0.79582,-0.87333 0.40307,-0.5116 0.70796,-1.14722 0.32039,-0.66145 0.50643,-1.39525 0.1912,-0.73381 0.1912,-1.61747 0,-0.84749 -0.1912,-1.6123 -0.1912,-0.76481 -0.50643,-1.40043 -0.32556,-0.65629 -0.70796,-1.14721 -0.37724,-0.49609 -0.79582,-0.87333 v -0.0517 h 1.18339 q 0.91467,1.04903 1.4211,2.28926 0.50642,1.24023 0.50642,2.79569 z"/>
   </g>
  </g>
  <text style="font-style:normal;font-weight:normal;font-size:10.58329964px;line-height:1.25;font-family:sans-serif;letter-spacing:0px;word-spacing:0px;white-space:pre;shape-inside:url(#rect946);fill:#000000;fill-opacity:1;stroke:none" id="text944" xml:space="preserve"/>
  <rect height="0.25000817" transform="scale(-1,1)" width="39.778419" style="fill:none;fill-opacity:0.4;stroke:#0000ff;stroke-width:1.31929266;stroke-miterlimit:4;stroke-dasharray:none;stroke-dashoffset:0;stroke-opacity:0.994135" y="153.25902" x="-147.51419" id="rect4721-8-9"/>
  <ellipse cx="-194.40877" transform="scale(-1,1)" style="fill:none;fill-opacity:0.4;stroke:#000000;stroke-width:2.12591028;stroke-miterlimit:4;stroke-dasharray:none;stroke-dashoffset:0;stroke-opacity:0.994135" rx="32.291828" id="path4518-7" cy="50.230782" ry="7.9001842"/>
  <ellipse cx="-194.7821" transform="scale(-1,1)" style="fill:none;fill-opacity:0.4;stroke:#000000;stroke-width:2.4603591;stroke-miterlimit:4;stroke-dasharray:none;stroke-dashoffset:0;stroke-opacity:0.994135" rx="74.345863" id="path4518-7-3" cy="51.599693" ry="18.095734"/>
  <ellipse cx="-194.40877" transform="scale(-1,1)" style="fill:none;fill-opacity:0.4;stroke:#000000;stroke-width:2.12591028;stroke-miterlimit:4;stroke-dasharray:none;stroke-dashoffset:0;stroke-opacity:0.994135" rx="32.291828" id="path4518-7-9" cy="142.69505" ry="7.9001842"/>
  <ellipse cx="-194.7821" transform="scale(-1,1)" style="fill:none;fill-opacity:0.4;stroke:#000000;stroke-width:2.4603591;stroke-miterlimit:4;stroke-dasharray:none;stroke-dashoffset:0;stroke-opacity:0.994135" rx="74.345863" id="path4518-7-3-3" cy="144.06398" ry="18.095734"/>
  <rect height="92.87899" transform="scale(-1,1)" width="0.29027945" style="fill:none;fill-opacity:0.4;stroke:#000000;stroke-width:1.67397535;stroke-miterlimit:4;stroke-dasharray:none;stroke-dashoffset:0;stroke-opacity:0.994135" y="51.454552" x="-269.22223" id="rect4653"/>
  <rect height="92.87899" transform="scale(-1,1)" width="0.29027945" style="fill:none;fill-opacity:0.4;stroke:#000000;stroke-width:1.67397535;stroke-miterlimit:4;stroke-dasharray:none;stroke-dashoffset:0;stroke-opacity:0.994135" y="52.325684" x="-120.75671" id="rect4653-8"/>
  <rect height="92.87899" transform="scale(-1,1)" width="0.29027945" style="fill:none;fill-opacity:0.4;stroke:#000000;stroke-width:1.67397535;stroke-miterlimit:4;stroke-dasharray:1.67397537, 1.67397537;stroke-dashoffset:0;stroke-opacity:0.994135" y="50.583443" x="-162.32207" id="rect4653-8-5"/>
  <rect height="92.87899" transform="scale(-1,1)" width="0.29027945" style="fill:none;fill-opacity:0.4;stroke:#000000;stroke-width:1.67397535;stroke-miterlimit:4;stroke-dasharray:1.67397537, 1.67397537;stroke-dashoffset:0;stroke-opacity:0.994135" y="50.583424" x="-227.03461" id="rect4653-8-5-2"/>
  <rect height="0.25000817" transform="scale(-1,1)" width="39.451927" style="fill:none;fill-opacity:0.4;stroke:#ff0000;stroke-width:1.31929398;stroke-miterlimit:4;stroke-dasharray:none;stroke-dashoffset:0;stroke-opacity:0.994135" y="73.892883" x="-147.11971" id="rect4721-8"/>
  <path inkscape:connector-curvature="0" style="display:inline;fill:#00ffff;fill-opacity:0.52548996;stroke:#00ffff;stroke-width:1.29781985;stroke-linecap:butt;stroke-linejoin:miter;stroke-miterlimit:4;stroke-dasharray:none;stroke-opacity:0.07352941" sodipodi:nodetypes="cccccccc" id="path5368" d="m 148.26325,171.80895 -1.31355,-141.624636 5.56336,-0.04852 -14.19962,-37.6685278 -13.49855,37.9103848 5.56333,-0.0487 1.31356,141.624589 z"/>
  <path inkscape:connector-curvature="0" style="display:inline;opacity:1;fill:#ff0000;fill-opacity:0.52548996;stroke:none;stroke-width:1.29434788;stroke-linecap:butt;stroke-linejoin:miter;stroke-miterlimit:4;stroke-dasharray:none;stroke-opacity:0.07352941" sodipodi:nodetypes="cccccccc" id="path5368-3" d="m 143.19548,73.45513 -0.14619,-39.23592 2.71831,0.04853 -6.80579,-10.589964 -6.72773,10.348516 2.71829,0.04834 0.14619,39.235902 z"/>
  <g transform="translate(54.48383,-35.151787)" id="g1006">
   <rect height="15.177242" width="108.69209" style="opacity:0.77399998;fill:#666666;fill-opacity:1;stroke:#4d4d4d;stroke-width:0.02500128;stroke-miterlimit:4;stroke-dasharray:none;stroke-opacity:1" y="63.477142" x="-90.856766" id="rect908-9" ry="0.11399138"/>
   <g transform="translate(-280.65201,8.528373)" style="font-style:normal;font-weight:normal;font-size:10.58329964px;line-height:1.25;font-family:sans-serif;letter-spacing:0px;word-spacing:0px;white-space:pre;shape-inside:url(#rect1396-0);fill:#000000;fill-opacity:1;stroke:none" id="text1394-9" aria-label="abgef체hrte W채rme  ">
    <path inkscape:connector-curvature="0" id="path953" d="m 199.7462,65.490692 h -0.96635 v -0.614947 q -0.12919,0.08785 -0.3514,0.248046 -0.21704,0.155028 -0.42374,0.248046 -0.24288,0.118855 -0.55811,0.19637 -0.31522,0.08268 -0.73897,0.08268 -0.78031,0 -1.32291,-0.516763 -0.5426,-0.516763 -0.5426,-1.317745 0,-0.656289 0.27905,-1.059363 0.28422,-0.408243 0.80615,-0.640786 0.5271,-0.232543 1.26607,-0.315225 0.73897,-0.08268 1.58646,-0.124023 V 61.52712 q 0,-0.330728 -0.11885,-0.547768 -0.11369,-0.21704 -0.33073,-0.341063 -0.20671,-0.118856 -0.49609,-0.160197 -0.28939,-0.04134 -0.60462,-0.04134 -0.3824,0 -0.85265,0.103353 -0.47026,0.09819 -0.97152,0.289387 h -0.0517 v -0.987017 q 0.28422,-0.07751 0.82165,-0.170532 0.53743,-0.09302 1.05936,-0.09302 0.60978,0 1.05937,0.103353 0.45475,0.09819 0.78547,0.341063 0.32557,0.237711 0.4961,0.614948 0.17053,0.377236 0.17053,0.93534 z m -0.96635,-1.421097 v -1.607132 q -0.44441,0.02584 -1.04903,0.07751 -0.59944,0.05168 -0.95084,0.149861 -0.41858,0.118856 -0.67696,0.37207 -0.25838,0.248046 -0.25838,0.687294 0,0.496092 0.29972,0.749306 0.29972,0.248046 0.91467,0.248046 0.5116,0 0.93534,-0.19637 0.42375,-0.201537 0.78548,-0.480589 z"/>
    <path inkscape:connector-curvature="0" id="path955" d="m 206.70699,62.560648 q 0,0.723468 -0.2067,1.302242 -0.20154,0.578774 -0.54777,0.971514 -0.3669,0.408242 -0.80615,0.614947 -0.43925,0.201538 -0.96635,0.201538 -0.49092,0 -0.85782,-0.118856 -0.36691,-0.113688 -0.72347,-0.310057 l -0.062,0.268716 h -0.90951 v -8.040827 h 0.97152 v 2.8732 q 0.40824,-0.335895 0.86816,-0.547768 0.45992,-0.21704 1.03353,-0.21704 1.02319,0 1.61229,0.785479 0.59428,0.785479 0.59428,2.216912 z m -1.00252,0.02584 q 0,-1.033525 -0.34106,-1.565791 -0.34106,-0.537433 -1.10071,-0.537433 -0.42374,0 -0.85782,0.186034 -0.43408,0.180867 -0.80615,0.470254 v 3.307282 q 0.41341,0.186034 0.70796,0.258381 0.29973,0.07235 0.67696,0.07235 0.80615,0 1.2609,-0.527098 0.45992,-0.532266 0.45992,-1.663976 z"/>
    <path inkscape:connector-curvature="0" id="path957" d="m 212.90298,64.834404 q 0,1.467606 -0.66663,2.1549 -0.66662,0.687294 -2.05155,0.687294 -0.45991,0 -0.89916,-0.06718 -0.43408,-0.06201 -0.85783,-0.180867 v -0.992184 h 0.0517 q 0.23771,0.09302 0.75447,0.227375 0.51676,0.139526 1.03353,0.139526 0.49609,0 0.82165,-0.118855 0.32556,-0.118855 0.50643,-0.330728 0.18086,-0.201538 0.25838,-0.485757 0.0775,-0.28422 0.0775,-0.635618 v -0.527098 q -0.43925,0.351398 -0.84232,0.527098 -0.39791,0.170531 -1.01802,0.170531 -1.03353,0 -1.64331,-0.744138 -0.60461,-0.749306 -0.60461,-2.108391 0,-0.744139 0.2067,-1.281572 0.21188,-0.542601 0.57361,-0.93534 0.3359,-0.366902 0.81649,-0.568439 0.48058,-0.206705 0.95601,-0.206705 0.50126,0 0.83715,0.103352 0.34106,0.09819 0.7183,0.30489 l 0.062,-0.248046 h 0.90951 z m -0.97152,-0.930173 v -3.147085 q -0.38757,-0.175699 -0.72347,-0.248046 -0.33072,-0.07751 -0.66145,-0.07751 -0.80098,0 -1.2609,0.537433 -0.45992,0.537433 -0.45992,1.560623 0,0.971514 0.34106,1.472774 0.34106,0.501259 1.13171,0.501259 0.42375,0 0.84749,-0.160196 0.42892,-0.165364 0.78548,-0.439248 z"/>
    <path inkscape:connector-curvature="0" id="path959" d="m 219.64673,62.705341 h -4.25296 q 0,0.532266 0.1602,0.930173 0.16019,0.39274 0.43925,0.645953 0.26871,0.248047 0.63561,0.37207 0.37207,0.124023 0.81649,0.124023 0.58911,0 1.18339,-0.232544 0.59944,-0.23771 0.85265,-0.465086 h 0.0517 v 1.059364 q -0.49092,0.206705 -1.00252,0.346231 -0.51159,0.139525 -1.07487,0.139525 -1.4366,0 -2.24275,-0.775144 -0.80615,-0.780311 -0.80615,-2.211744 0,-1.41593 0.76998,-2.247917 0.77514,-0.831988 2.03605,-0.831988 1.16788,0 1.79833,0.682126 0.63562,0.682127 0.63562,1.93786 z m -0.94568,-0.744138 q -0.005,-0.764809 -0.38757,-1.183386 -0.37724,-0.418578 -1.15238,-0.418578 -0.78031,0 -1.2454,0.459919 -0.45992,0.459918 -0.52193,1.142045 z"/>
    <path inkscape:connector-curvature="0" id="path961" d="m 224.22525,58.390373 h -0.0517 q -0.1602,-0.04651 -0.41858,-0.09302 -0.25838,-0.05168 -0.45475,-0.05168 -0.62528,0 -0.9095,0.279052 -0.27905,0.273884 -0.27905,0.997352 v 0.19637 h 1.75182 v 0.816485 h -1.72082 v 4.955754 h -0.97151 v -4.955754 h -0.65629 v -0.816485 h 0.65629 v -0.191202 q 0,-1.028358 0.51159,-1.576126 0.5116,-0.552936 1.47795,-0.552936 0.32556,0 0.58394,0.03101 0.26355,0.03101 0.48059,0.07235 z"/>
    <path inkscape:connector-curvature="0" id="path963" d="m 229.62542,65.490692 h -0.97152 v -0.640786 q -0.49092,0.387572 -0.94051,0.594277 -0.44958,0.206706 -0.99218,0.206706 -0.9095,0 -1.41593,-0.552936 -0.50643,-0.558104 -0.50643,-1.632971 v -3.746529 h 0.97152 v 3.286611 q 0,0.439248 0.0413,0.754473 0.0413,0.310058 0.1757,0.532266 0.13952,0.227375 0.36173,0.330728 0.22221,0.103352 0.64595,0.103352 0.37724,0 0.82166,-0.196369 0.44958,-0.19637 0.83715,-0.50126 v -4.309801 h 0.97152 z m -0.80615,-6.738585 h -1.02836 V 57.74442 h 1.02836 z m -2.13423,0 h -1.02836 V 57.74442 h 1.02836 z"/>
    <path inkscape:connector-curvature="0" id="path965" d="m 236.364,65.490692 h -0.97151 v -3.28661 q 0,-0.397908 -0.0465,-0.744139 -0.0465,-0.351398 -0.17053,-0.547768 -0.12919,-0.217041 -0.37207,-0.320393 -0.24288,-0.10852 -0.63045,-0.10852 -0.39791,0 -0.83199,0.19637 -0.43408,0.196369 -0.83199,0.501259 v 4.309801 h -0.97151 v -8.040827 h 0.97151 v 2.909374 q 0.45475,-0.377237 0.94051,-0.58911 0.48576,-0.211872 0.99735,-0.211872 0.93534,0 1.42627,0.563271 0.49092,0.563271 0.49092,1.622635 z"/>
    <path inkscape:connector-curvature="0" id="path967" d="m 241.83652,60.777817 h -0.0517 q -0.21704,-0.05168 -0.42374,-0.07235 -0.20154,-0.02584 -0.48059,-0.02584 -0.44959,0 -0.86816,0.201537 -0.41858,0.19637 -0.80615,0.511595 v 4.097928 h -0.97152 v -5.772239 h 0.97152 v 0.852658 q 0.57877,-0.465086 1.01802,-0.656288 0.44441,-0.19637 0.90433,-0.19637 0.25322,0 0.3669,0.0155 0.11369,0.01033 0.34107,0.04651 z"/>
    <path inkscape:connector-curvature="0" id="path969" d="m 245.75875,65.439016 q -0.27389,0.07235 -0.59945,0.118855 -0.32039,0.04651 -0.57361,0.04651 -0.88366,0 -1.34358,-0.475422 -0.45992,-0.475421 -0.45992,-1.52445 v -3.06957 h -0.65629 v -0.816485 h 0.65629 v -1.658808 h 0.97152 v 1.658808 h 2.00504 v 0.816485 h -2.00504 v 2.630322 q 0,0.454751 0.0207,0.713133 0.0207,0.253213 0.14469,0.475421 0.11369,0.206705 0.31006,0.30489 0.20154,0.09302 0.60978,0.09302 0.23771,0 0.49609,-0.06718 0.25838,-0.07235 0.37207,-0.118855 h 0.0517 z"/>
    <path inkscape:connector-curvature="0" id="path971" d="m 251.7687,62.705341 h -4.25296 q 0,0.532266 0.16019,0.930173 0.1602,0.39274 0.43925,0.645953 0.26872,0.248047 0.63562,0.37207 0.37207,0.124023 0.81649,0.124023 0.58911,0 1.18338,-0.232544 0.59945,-0.23771 0.85266,-0.465086 h 0.0517 v 1.059364 q -0.49093,0.206705 -1.00252,0.346231 -0.5116,0.139525 -1.07487,0.139525 -1.4366,0 -2.24275,-0.775144 -0.80615,-0.780311 -0.80615,-2.211744 0,-1.41593 0.76998,-2.247917 0.77514,-0.831988 2.03604,-0.831988 1.16789,0 1.79834,0.682126 0.63562,0.682127 0.63562,1.93786 z m -0.94568,-0.744138 q -0.005,-0.764809 -0.38757,-1.183386 -0.37724,-0.418578 -1.15238,-0.418578 -0.78031,0 -1.2454,0.459919 -0.45992,0.459918 -0.52193,1.142045 z"/>
    <path inkscape:connector-curvature="0" id="path973" d="m 265.99517,57.796096 -1.99987,7.694596 h -1.15238 l -1.61747,-6.387187 -1.58129,6.387187 h -1.12654 l -2.03605,-7.694596 h 1.04903 l 1.61747,6.397522 1.59163,-6.397522 h 1.03869 l 1.60713,6.459533 1.60713,-6.459533 z"/>
    <path inkscape:connector-curvature="0" id="path975" d="m 271.90693,65.490692 h -0.96634 v -0.614947 q -0.12919,0.08785 -0.3514,0.248046 -0.21704,0.155028 -0.42375,0.248046 -0.24287,0.118855 -0.5581,0.19637 -0.31522,0.08268 -0.73897,0.08268 -0.78031,0 -1.32291,-0.516763 -0.5426,-0.516763 -0.5426,-1.317745 0,-0.656289 0.27905,-1.059363 0.28422,-0.408243 0.80615,-0.640786 0.5271,-0.232543 1.26607,-0.315225 0.73897,-0.08268 1.58646,-0.124023 V 61.52712 q 0,-0.330728 -0.11886,-0.547768 -0.11368,-0.21704 -0.33073,-0.341063 -0.2067,-0.118856 -0.49609,-0.160197 -0.28938,-0.04134 -0.60461,-0.04134 -0.3824,0 -0.85266,0.103353 -0.47025,0.09819 -0.97151,0.289387 h -0.0517 v -0.987017 q 0.28422,-0.07751 0.82165,-0.170532 0.53744,-0.09302 1.05937,-0.09302 0.60978,0 1.05936,0.103353 0.45475,0.09819 0.78548,0.341063 0.32556,0.237711 0.49609,0.614948 0.17053,0.377236 0.17053,0.93534 z m -0.96634,-1.421097 v -1.607132 q -0.44442,0.02584 -1.04903,0.07751 -0.59944,0.05168 -0.95084,0.149861 -0.41858,0.118856 -0.67696,0.37207 -0.25838,0.248046 -0.25838,0.687294 0,0.496092 0.29972,0.749306 0.29972,0.248046 0.91467,0.248046 0.51159,0 0.93534,-0.19637 0.42374,-0.201537 0.78548,-0.480589 z m 0.31006,-5.317488 h -1.02836 V 57.74442 h 1.02836 z m -2.13423,0 h -1.02836 V 57.74442 h 1.02836 z"/>
    <path inkscape:connector-curvature="0" id="path977" d="m 277.38979,60.777817 h -0.0517 q -0.21704,-0.05168 -0.42375,-0.07235 -0.20153,-0.02584 -0.48058,-0.02584 -0.44959,0 -0.86817,0.201537 -0.41857,0.19637 -0.80615,0.511595 v 4.097928 h -0.97151 v -5.772239 h 0.97151 v 0.852658 q 0.57878,-0.465086 1.01803,-0.656288 0.44441,-0.19637 0.90433,-0.19637 0.25322,0 0.3669,0.0155 0.11369,0.01033 0.34107,0.04651 z"/>
    <path inkscape:connector-curvature="0" id="path979" d="m 286.73803,65.490692 h -0.97151 v -3.28661 q 0,-0.37207 -0.0362,-0.718301 -0.031,-0.346231 -0.13952,-0.552936 -0.11886,-0.222208 -0.34107,-0.335895 -0.2222,-0.113688 -0.64078,-0.113688 -0.40824,0 -0.81649,0.206705 -0.40824,0.201537 -0.81648,0.516763 0.0155,0.118855 0.0258,0.279051 0.0103,0.155029 0.0103,0.310058 v 3.694853 h -0.97151 v -3.28661 q 0,-0.382405 -0.0362,-0.723468 -0.031,-0.346231 -0.13952,-0.552936 -0.11886,-0.222208 -0.34107,-0.330728 -0.2222,-0.113688 -0.64078,-0.113688 -0.39791,0 -0.80098,0.19637 -0.39791,0.196369 -0.79582,0.501259 v 4.309801 h -0.97151 v -5.772239 h 0.97151 v 0.640786 q 0.45475,-0.377237 0.90434,-0.58911 0.45475,-0.211872 0.96634,-0.211872 0.58911,0 0.99736,0.248046 0.41341,0.248046 0.61494,0.687294 0.58911,-0.496092 1.07487,-0.713132 0.48576,-0.222208 1.03869,-0.222208 0.95085,0 1.40043,0.578774 0.45475,0.573606 0.45475,1.607132 z"/>
    <path inkscape:connector-curvature="0" id="path981" d="m 293.44044,62.705341 h -4.25296 q 0,0.532266 0.1602,0.930173 0.16019,0.39274 0.43924,0.645953 0.26872,0.248047 0.63562,0.37207 0.37207,0.124023 0.81649,0.124023 0.58911,0 1.18338,-0.232544 0.59945,-0.23771 0.85266,-0.465086 h 0.0517 v 1.059364 q -0.49093,0.206705 -1.00252,0.346231 -0.5116,0.139525 -1.07487,0.139525 -1.4366,0 -2.24275,-0.775144 -0.80615,-0.780311 -0.80615,-2.211744 0,-1.41593 0.76998,-2.247917 0.77514,-0.831988 2.03604,-0.831988 1.16789,0 1.79834,0.682126 0.63562,0.682127 0.63562,1.93786 z m -0.94568,-0.744138 q -0.005,-0.764809 -0.38757,-1.183386 -0.37724,-0.418578 -1.15238,-0.418578 -0.78031,0 -1.2454,0.459919 -0.45992,0.459918 -0.52193,1.142045 z"/>
   </g>
  </g>
  <g transform="translate(47.759919,4.6113091)" id="g1051">
   <rect height="15.175235" width="126.86442" style="opacity:0.77399998;fill:#666666;fill-opacity:1;stroke:#4d4d4d;stroke-width:0.02700875;stroke-miterlimit:4;stroke-dasharray:none;stroke-opacity:1" y="131.57841" x="-84.131851" id="rect908-9-6-7" ry="0.11397631"/>
   <g transform="translate(-276.00041,76.631225)" style="font-style:normal;font-weight:normal;font-size:10.58329964px;line-height:1.25;font-family:sans-serif;letter-spacing:0px;word-spacing:0px;white-space:pre;shape-inside:url(#rect1396-0-9);fill:#000000;fill-opacity:1;stroke:none" id="text1394-9-7" aria-label="Temperaturunterschied  ">
    <path inkscape:connector-curvature="0" id="path910" d="m 200.82623,58.705598 h -2.74917 v 6.785094 h -1.0232 v -6.785094 h -2.74917 v -0.909502 h 6.52154 z"/>
    <path inkscape:connector-curvature="0" id="path912" d="m 205.48743,62.705341 h -4.25295 q 0,0.532266 0.16019,0.930173 0.1602,0.39274 0.43925,0.645953 0.26872,0.248047 0.63562,0.37207 0.37207,0.124023 0.81648,0.124023 0.58911,0 1.18339,-0.232544 0.59944,-0.23771 0.85266,-0.465086 h 0.0517 v 1.059364 q -0.49092,0.206705 -1.00252,0.346231 -0.51159,0.139525 -1.07486,0.139525 -1.4366,0 -2.24275,-0.775144 -0.80615,-0.780311 -0.80615,-2.211744 0,-1.41593 0.76997,-2.247917 0.77515,-0.831988 2.03605,-0.831988 1.16788,0 1.79833,0.682126 0.63562,0.682127 0.63562,1.93786 z m -0.94567,-0.744138 q -0.005,-0.764809 -0.38758,-1.183386 -0.37723,-0.418578 -1.15238,-0.418578 -0.78031,0 -1.24539,0.459919 -0.45992,0.459918 -0.52193,1.142045 z"/>
    <path inkscape:connector-curvature="0" id="path914" d="m 215.38344,65.490692 h -0.97152 v -3.28661 q 0,-0.37207 -0.0362,-0.718301 -0.031,-0.346231 -0.13953,-0.552936 -0.11885,-0.222208 -0.34106,-0.335895 -0.22221,-0.113688 -0.64079,-0.113688 -0.40824,0 -0.81648,0.206705 -0.40824,0.201537 -0.81649,0.516763 0.0155,0.118855 0.0258,0.279051 0.0103,0.155029 0.0103,0.310058 v 3.694853 h -0.97152 v -3.28661 q 0,-0.382405 -0.0362,-0.723468 -0.031,-0.346231 -0.13953,-0.552936 -0.11885,-0.222208 -0.34106,-0.330728 -0.22221,-0.113688 -0.64078,-0.113688 -0.39791,0 -0.80099,0.19637 -0.3979,0.196369 -0.79581,0.501259 v 4.309801 h -0.97151 v -5.772239 h 0.97151 v 0.640786 q 0.45475,-0.377237 0.90433,-0.58911 0.45475,-0.211872 0.96635,-0.211872 0.58911,0 0.99735,0.248046 0.41341,0.248046 0.61495,0.687294 0.58911,-0.496092 1.07487,-0.713132 0.48575,-0.222208 1.03869,-0.222208 0.95084,0 1.40043,0.578774 0.45475,0.573606 0.45475,1.607132 z"/>
    <path inkscape:connector-curvature="0" id="path916" d="m 222.3339,62.53481 q 0,0.702797 -0.20154,1.286739 -0.20154,0.578774 -0.56844,0.981849 -0.34106,0.382404 -0.80615,0.594277 -0.45992,0.206705 -0.97668,0.206705 -0.44959,0 -0.81649,-0.09819 -0.36173,-0.09819 -0.73897,-0.30489 v 2.418449 h -0.97151 v -7.901301 h 0.97151 v 0.604612 q 0.38757,-0.32556 0.86816,-0.5426 0.48576,-0.222208 1.03353,-0.222208 1.04386,0 1.62263,0.790646 0.58395,0.78548 0.58395,2.185907 z m -1.00252,0.02584 q 0,-1.043861 -0.35657,-1.560624 -0.35657,-0.516762 -1.09554,-0.516762 -0.41858,0 -0.84232,0.180867 -0.42375,0.180867 -0.81132,0.475421 v 3.271108 q 0.41341,0.186035 0.70797,0.253214 0.29972,0.06718 0.67696,0.06718 0.81131,0 1.26606,-0.547768 0.45476,-0.547769 0.45476,-1.622636 z"/>
    <path inkscape:connector-curvature="0" id="path918" d="m 228.67974,62.705341 h -4.25296 q 0,0.532266 0.1602,0.930173 0.1602,0.39274 0.43925,0.645953 0.26871,0.248047 0.63562,0.37207 0.37207,0.124023 0.81648,0.124023 0.58911,0 1.18339,-0.232544 0.59944,-0.23771 0.85266,-0.465086 h 0.0517 v 1.059364 q -0.49092,0.206705 -1.00252,0.346231 -0.51159,0.139525 -1.07486,0.139525 -1.4366,0 -2.24275,-0.775144 -0.80615,-0.780311 -0.80615,-2.211744 0,-1.41593 0.76997,-2.247917 0.77515,-0.831988 2.03605,-0.831988 1.16788,0 1.79833,0.682126 0.63562,0.682127 0.63562,1.93786 z m -0.94568,-0.744138 q -0.005,-0.764809 -0.38757,-1.183386 -0.37723,-0.418578 -1.15238,-0.418578 -0.78031,0 -1.2454,0.459919 -0.45992,0.459918 -0.52193,1.142045 z"/>
    <path inkscape:connector-curvature="0" id="path920" d="m 233.75435,60.777817 h -0.0517 q -0.21704,-0.05168 -0.42374,-0.07235 -0.20154,-0.02584 -0.48059,-0.02584 -0.44958,0 -0.86816,0.201537 -0.41858,0.19637 -0.80615,0.511595 v 4.097928 h -0.97152 v -5.772239 h 0.97152 v 0.852658 q 0.57877,-0.465086 1.01802,-0.656288 0.44442,-0.19637 0.90433,-0.19637 0.25322,0 0.36691,0.0155 0.11368,0.01033 0.34106,0.04651 z"/>
    <path inkscape:connector-curvature="0" id="path922" d="m 238.97882,65.490692 h -0.96634 v -0.614947 q -0.12919,0.08785 -0.3514,0.248046 -0.21704,0.155028 -0.42375,0.248046 -0.24288,0.118855 -0.5581,0.19637 -0.31523,0.08268 -0.73897,0.08268 -0.78031,0 -1.32291,-0.516763 -0.54261,-0.516763 -0.54261,-1.317745 0,-0.656289 0.27906,-1.059363 0.28422,-0.408243 0.80615,-0.640786 0.52709,-0.232543 1.26606,-0.315225 0.73898,-0.08268 1.58647,-0.124023 V 61.52712 q 0,-0.330728 -0.11886,-0.547768 -0.11369,-0.21704 -0.33073,-0.341063 -0.2067,-0.118856 -0.49609,-0.160197 -0.28939,-0.04134 -0.60461,-0.04134 -0.38241,0 -0.85266,0.103353 -0.47025,0.09819 -0.97151,0.289387 h -0.0517 v -0.987017 q 0.28422,-0.07751 0.82165,-0.170532 0.53744,-0.09302 1.05937,-0.09302 0.60978,0 1.05936,0.103353 0.45475,0.09819 0.78548,0.341063 0.32556,0.237711 0.49609,0.614948 0.17053,0.377236 0.17053,0.93534 z m -0.96634,-1.421097 v -1.607132 q -0.44442,0.02584 -1.04903,0.07751 -0.59945,0.05168 -0.95085,0.149861 -0.41857,0.118856 -0.67695,0.37207 -0.25839,0.248046 -0.25839,0.687294 0,0.496092 0.29973,0.749306 0.29972,0.248046 0.91467,0.248046 0.51159,0 0.93534,-0.19637 0.42374,-0.201537 0.78548,-0.480589 z"/>
    <path inkscape:connector-curvature="0" id="path924" d="m 243.85706,65.439016 q -0.27388,0.07235 -0.59944,0.118855 -0.3204,0.04651 -0.57361,0.04651 -0.88366,0 -1.34358,-0.475422 -0.45992,-0.475421 -0.45992,-1.52445 v -3.06957 h -0.65629 v -0.816485 h 0.65629 v -1.658808 h 0.97151 v 1.658808 h 2.00504 v 0.816485 h -2.00504 v 2.630322 q 0,0.454751 0.0207,0.713133 0.0207,0.253213 0.1447,0.475421 0.11368,0.206705 0.31005,0.30489 0.20154,0.09302 0.60978,0.09302 0.23772,0 0.4961,-0.06718 0.25838,-0.07235 0.37207,-0.118855 h 0.0517 z"/>
    <path inkscape:connector-curvature="0" id="path926" d="m 249.8205,65.490692 h -0.97151 v -0.640786 q -0.49093,0.387572 -0.94051,0.594277 -0.44958,0.206706 -0.99218,0.206706 -0.90951,0 -1.41593,-0.552936 -0.50643,-0.558104 -0.50643,-1.632971 v -3.746529 h 0.97151 v 3.286611 q 0,0.439248 0.0413,0.754473 0.0413,0.310058 0.1757,0.532266 0.13953,0.227375 0.36174,0.330728 0.22221,0.103352 0.64595,0.103352 0.37724,0 0.82165,-0.196369 0.44959,-0.19637 0.83716,-0.50126 v -4.309801 h 0.97151 z"/>
    <path inkscape:connector-curvature="0" id="path928" d="m 255.33436,60.777817 h -0.0517 q -0.21704,-0.05168 -0.42374,-0.07235 -0.20154,-0.02584 -0.48059,-0.02584 -0.44959,0 -0.86816,0.201537 -0.41858,0.19637 -0.80615,0.511595 v 4.097928 h -0.97152 v -5.772239 h 0.97152 v 0.852658 q 0.57877,-0.465086 1.01802,-0.656288 0.44442,-0.19637 0.90433,-0.19637 0.25322,0 0.36691,0.0155 0.11368,0.01033 0.34106,0.04651 z"/>
    <path inkscape:connector-curvature="0" id="path930" d="m 261.04459,65.490692 h -0.97152 v -0.640786 q -0.49092,0.387572 -0.94051,0.594277 -0.44958,0.206706 -0.99218,0.206706 -0.9095,0 -1.41593,-0.552936 -0.50643,-0.558104 -0.50643,-1.632971 v -3.746529 h 0.97152 v 3.286611 q 0,0.439248 0.0413,0.754473 0.0413,0.310058 0.1757,0.532266 0.13952,0.227375 0.36173,0.330728 0.22221,0.103352 0.64595,0.103352 0.37724,0 0.82166,-0.196369 0.44958,-0.19637 0.83715,-0.50126 v -4.309801 h 0.97152 z"/>
    <path inkscape:connector-curvature="0" id="path932" d="m 267.78317,65.490692 h -0.97151 v -3.28661 q 0,-0.397908 -0.0465,-0.744139 -0.0465,-0.351398 -0.17053,-0.547768 -0.1292,-0.217041 -0.37207,-0.320393 -0.24288,-0.10852 -0.63045,-0.10852 -0.39791,0 -0.83199,0.19637 -0.43408,0.196369 -0.83199,0.501259 v 4.309801 h -0.97151 v -5.772239 h 0.97151 v 0.640786 q 0.45475,-0.377237 0.94051,-0.58911 0.48575,-0.211872 0.99735,-0.211872 0.93534,0 1.42626,0.563271 0.49093,0.563271 0.49093,1.622635 z"/>
    <path inkscape:connector-curvature="0" id="path934" d="m 272.65108,65.439016 q -0.27388,0.07235 -0.59944,0.118855 -0.3204,0.04651 -0.57361,0.04651 -0.88367,0 -1.34358,-0.475422 -0.45992,-0.475421 -0.45992,-1.52445 v -3.06957 h -0.65629 v -0.816485 h 0.65629 v -1.658808 h 0.97151 v 1.658808 h 2.00504 v 0.816485 h -2.00504 v 2.630322 q 0,0.454751 0.0207,0.713133 0.0207,0.253213 0.14469,0.475421 0.11369,0.206705 0.31006,0.30489 0.20154,0.09302 0.60978,0.09302 0.23771,0 0.49609,-0.06718 0.25839,-0.07235 0.37207,-0.118855 h 0.0517 z"/>
    <path inkscape:connector-curvature="0" id="path936" d="m 278.66103,62.705341 h -4.25296 q 0,0.532266 0.16019,0.930173 0.1602,0.39274 0.43925,0.645953 0.26872,0.248047 0.63562,0.37207 0.37207,0.124023 0.81649,0.124023 0.58911,0 1.18338,-0.232544 0.59945,-0.23771 0.85266,-0.465086 h 0.0517 v 1.059364 q -0.49093,0.206705 -1.00252,0.346231 -0.5116,0.139525 -1.07487,0.139525 -1.4366,0 -2.24275,-0.775144 -0.80615,-0.780311 -0.80615,-2.211744 0,-1.41593 0.76998,-2.247917 0.77514,-0.831988 2.03604,-0.831988 1.16789,0 1.79834,0.682126 0.63562,0.682127 0.63562,1.93786 z m -0.94568,-0.744138 q -0.005,-0.764809 -0.38757,-1.183386 -0.37724,-0.418578 -1.15238,-0.418578 -0.78031,0 -1.2454,0.459919 -0.45992,0.459918 -0.52193,1.142045 z"/>
    <path inkscape:connector-curvature="0" id="path938" d="m 283.73563,60.777817 h -0.0517 q -0.21704,-0.05168 -0.42375,-0.07235 -0.20153,-0.02584 -0.48059,-0.02584 -0.44958,0 -0.86816,0.201537 -0.41858,0.19637 -0.80615,0.511595 v 4.097928 h -0.97151 v -5.772239 h 0.97151 v 0.852658 q 0.57878,-0.465086 1.01803,-0.656288 0.44441,-0.19637 0.90433,-0.19637 0.25321,0 0.3669,0.0155 0.11369,0.01033 0.34106,0.04651 z"/>
    <path inkscape:connector-curvature="0" id="path940" d="m 288.78441,63.826716 q 0,0.790647 -0.65629,1.297075 -0.65112,0.506427 -1.78283,0.506427 -0.64079,0 -1.17822,-0.149861 -0.53227,-0.155029 -0.894,-0.335896 v -1.090369 h 0.0517 q 0.45992,0.346231 1.02319,0.552936 0.56327,0.201537 1.08004,0.201537 0.64078,0 1.00252,-0.206705 0.36173,-0.206705 0.36173,-0.651121 0,-0.341063 -0.19637,-0.516762 -0.19637,-0.1757 -0.75447,-0.299723 -0.20671,-0.04651 -0.5426,-0.10852 -0.33073,-0.06201 -0.60462,-0.134358 -0.75964,-0.201538 -1.08003,-0.58911 -0.31522,-0.392739 -0.31522,-0.961178 0,-0.356566 0.14469,-0.671792 0.14986,-0.315225 0.44958,-0.563271 0.28939,-0.242878 0.73381,-0.382404 0.44958,-0.144694 1.00251,-0.144694 0.51677,0 1.04387,0.129191 0.53226,0.124023 0.88366,0.30489 v 1.038693 h -0.0517 q -0.37207,-0.273884 -0.90433,-0.459919 -0.53227,-0.191202 -1.04386,-0.191202 -0.53227,0 -0.89917,0.206705 -0.3669,0.201537 -0.3669,0.604612 0,0.356566 0.22221,0.537433 0.21704,0.180867 0.70279,0.294555 0.26872,0.06201 0.59945,0.124023 0.3359,0.06201 0.5581,0.113688 0.67696,0.155029 1.04386,0.532265 0.36691,0.382405 0.36691,1.012855 z"/>
    <path inkscape:connector-curvature="0" id="path942" d="m 294.44813,65.128958 q -0.48576,0.232543 -0.92501,0.361734 -0.43408,0.129191 -0.925,0.129191 -0.62529,0 -1.14722,-0.180867 -0.52193,-0.186035 -0.894,-0.558104 -0.37723,-0.372069 -0.58394,-0.940508 -0.2067,-0.568439 -0.2067,-1.32808 0,-1.41593 0.77514,-2.222079 0.78031,-0.80615 2.05672,-0.80615 0.49609,0 0.97151,0.139526 0.48059,0.139526 0.8785,0.341063 v 1.080034 h -0.0517 q -0.44442,-0.346231 -0.91984,-0.532266 -0.47025,-0.186034 -0.91984,-0.186034 -0.82682,0 -1.3074,0.558104 -0.47543,0.552936 -0.47543,1.627802 0,1.043861 0.46509,1.607132 0.47025,0.558104 1.31774,0.558104 0.29456,0 0.59945,-0.07751 0.30489,-0.07751 0.54777,-0.201537 0.21187,-0.10852 0.39791,-0.227376 0.18603,-0.124023 0.29455,-0.211872 h 0.0517 z"/>
    <path inkscape:connector-curvature="0" id="path944" d="m 300.52526,65.490692 h -0.97152 v -3.28661 q 0,-0.397908 -0.0465,-0.744139 -0.0465,-0.351398 -0.17054,-0.547768 -0.12919,-0.217041 -0.37207,-0.320393 -0.24287,-0.10852 -0.63045,-0.10852 -0.3979,0 -0.83198,0.19637 -0.43408,0.196369 -0.83199,0.501259 v 4.309801 h -0.97152 v -8.040827 h 0.97152 v 2.909374 q 0.45475,-0.377237 0.94051,-0.58911 0.48575,-0.211872 0.99735,-0.211872 0.93534,0 1.42626,0.563271 0.49093,0.563271 0.49093,1.622635 z"/>
    <path inkscape:connector-curvature="0" id="path946" d="m 303.4398,58.752107 h -1.09554 V 57.74442 h 1.09554 z m -0.062,6.738585 h -0.97152 v -5.772239 h 0.97152 z"/>
    <path inkscape:connector-curvature="0" id="path948" d="m 310.14221,62.705341 h -4.25296 q 0,0.532266 0.1602,0.930173 0.1602,0.39274 0.43925,0.645953 0.26872,0.248047 0.63562,0.37207 0.37207,0.124023 0.81648,0.124023 0.58911,0 1.18339,-0.232544 0.59944,-0.23771 0.85266,-0.465086 h 0.0517 v 1.059364 q -0.49092,0.206705 -1.00252,0.346231 -0.51159,0.139525 -1.07486,0.139525 -1.4366,0 -2.24275,-0.775144 -0.80615,-0.780311 -0.80615,-2.211744 0,-1.41593 0.76997,-2.247917 0.77515,-0.831988 2.03605,-0.831988 1.16788,0 1.79833,0.682126 0.63562,0.682127 0.63562,1.93786 z m -0.94567,-0.744138 q -0.005,-0.764809 -0.38758,-1.183386 -0.37723,-0.418578 -1.15238,-0.418578 -0.78031,0 -1.2454,0.459919 -0.45991,0.459918 -0.52193,1.142045 z"/>
    <path inkscape:connector-curvature="0" id="path950" d="m 316.29685,65.490692 h -0.97151 V 64.88608 q -0.41858,0.361734 -0.87333,0.563271 -0.45475,0.201538 -0.98701,0.201538 -1.03353,0 -1.64331,-0.795815 -0.60461,-0.795814 -0.60461,-2.206577 0,-0.733803 0.2067,-1.307409 0.21188,-0.573607 0.56844,-0.976682 0.3514,-0.392739 0.81649,-0.599444 0.47025,-0.206705 0.97151,-0.206705 0.45475,0 0.80615,0.09819 0.3514,0.09302 0.73897,0.294554 V 57.44987 h 0.97151 z m -0.97151,-1.421097 v -3.312449 q -0.39274,-0.175699 -0.7028,-0.242878 -0.31005,-0.06718 -0.67696,-0.06718 -0.81648,0 -1.27123,0.568439 -0.45475,0.568439 -0.45475,1.6123 0,1.028358 0.3514,1.565791 0.35139,0.532265 1.12654,0.532265 0.41341,0 0.83715,-0.180867 0.42375,-0.186034 0.79065,-0.475421 z"/>
   </g>
  </g>
  <circle cx="285.88315" style="opacity:1;fill:none;fill-opacity:1;stroke:#ff0000;stroke-width:1.06799996;stroke-miterlimit:4;stroke-dasharray:none;stroke-opacity:1" r="17.386906" id="path1891" cy="28.871578"/>
  <circle cx="297.22244" style="opacity:1;fill:none;fill-opacity:1;stroke:#0000ff;stroke-width:1.06799996;stroke-miterlimit:4;stroke-dasharray:none;stroke-opacity:1" r="17.386906" id="circle1893" cy="135.46086"/>
  <path inkscape:connector-curvature="0" style="fill:none;stroke:#000000;stroke-width:0.26496628px;stroke-linecap:butt;stroke-linejoin:miter;stroke-opacity:1" id="path1940" d="M 9.2458292,169.72287 107.08272,153.15232"/>
  <path inkscape:connector-curvature="0" style="fill:none;stroke:#000000;stroke-width:0.26458332px;stroke-linecap:butt;stroke-linejoin:miter;stroke-opacity:1" id="path1942" d="m 57.621627,57.737016 49.712133,16.03617"/>
  <path inkscape:connector-curvature="0" style="fill:none;stroke:#000000;stroke-width:0.26458332px;stroke-linecap:butt;stroke-linejoin:miter;stroke-opacity:1" id="path1944" d="m 72.054182,36.088183 62.808338,9.087165"/>
  <path inkscape:connector-curvature="0" style="fill:none;stroke:#000000;stroke-width:0.26458332px;stroke-linecap:butt;stroke-linejoin:miter;stroke-opacity:1" id="path1946" d="m 95.039361,11.499388 36.081389,0.801809"/>
  <path inkscape:connector-curvature="0" style="display:inline;fill:url(#linearGradient1139);fill-opacity:1;fill-rule:evenodd;stroke:none;stroke-width:0.44524118;stroke-linecap:butt;stroke-linejoin:miter;stroke-miterlimit:8;stroke-opacity:1" sodipodi:nodetypes="cccc" id="path3503-0-6-4-2" d="M 82.137966,72.224972 104.60407,159.67275 104.44799,72.415115 Z"/>
 </g>
</svg>
