<?xml version='1.0' encoding='UTF-8' standalone='no'?>
<svg xmlns:sodipodi="http://sodipodi.sourceforge.net/DTD/sodipodi-0.dtd" xmlns:svg="http://www.w3.org/2000/svg" viewBox="0 0 128.5367 17.232853" sodipodi:docname="Button.svg" width="128.53671mm" xmlns="http://www.w3.org/2000/svg" xmlns:dc="http://purl.org/dc/elements/1.1/" id="svg668" xmlns:cc="http://creativecommons.org/ns#" xmlns:rdf="http://www.w3.org/1999/02/22-rdf-syntax-ns#" version="1.1" height="17.232853mm" inkscape:version="0.92.4 (5da689c313, 2019-01-14)" xmlns:inkscape="http://www.inkscape.org/namespaces/inkscape">
 <defs id="defs662">
  <clipPath clipPathUnits="userSpaceOnUse" id="clipPath143">
   <rect style="stroke-width:1.71212864" y="67.804993" x="-715.1568" width="203.14427" id="rect145" height="203.14427" transform="rotate(-43.315315)"/>
  </clipPath>
  <clipPath clipPathUnits="userSpaceOnUse" id="clipPath4719">
   <rect ry="0.40744901" style="fill:#000000;fill-opacity:1;stroke:#000000" y="25.718069" x="-34.546959" width="8.8779888" id="rect4721" height="42.942448" rx="2.47085"/>
  </clipPath>
  <clipPath clipPathUnits="userSpaceOnUse" id="clipPath4885">
   <circle style="fill:none;stroke:#4d4d4d;stroke-width:0.60246503" r="10.929907" id="circle4887" cx="-52.648228" cy="-28.001387" transform="rotate(-38.419141)"/>
  </clipPath>
  <clipPath clipPathUnits="userSpaceOnUse" id="clipPath4889">
   <circle style="fill:none;stroke:#4d4d4d;stroke-width:0.60246503" r="10.929907" id="circle4891" cx="-52.648228" cy="-28.001387" transform="rotate(-38.419141)"/>
  </clipPath>
  <clipPath clipPathUnits="userSpaceOnUse" id="clipPath4893">
   <circle style="fill:none;stroke:#4d4d4d;stroke-width:0.60246503" r="10.929907" id="circle4895" cx="-52.648228" cy="-28.001387" transform="rotate(-38.419141)"/>
  </clipPath>
  <clipPath clipPathUnits="userSpaceOnUse" id="clipPath4897">
   <circle style="fill:none;stroke:#4d4d4d;stroke-width:0.60246503" r="10.929907" id="circle4899" cx="-52.648228" cy="-28.001387" transform="rotate(-38.419141)"/>
  </clipPath>
  <clipPath clipPathUnits="userSpaceOnUse" id="clipPath4913">
   <circle style="fill:none;stroke:#4d4d4d;stroke-width:1.33852994" r="24.283579" id="circle4915" cx="-88.579475" cy="-54.134789" transform="rotate(-38.419141)"/>
  </clipPath>
  <clipPath clipPathUnits="userSpaceOnUse" id="clipPath4923">
   <path style="fill:none;stroke:#000000;stroke-width:1.67334652px;stroke-linecap:butt;stroke-linejoin:miter;stroke-opacity:1" inkscape:connector-curvature="0" id="path4925" d="m -98.061502,-0.25402155 c -0.494788,0 -0.989577,0 -1.484365,0 -0.190303,0 -0.383677,0.0340426 -0.570913,0 -0.23683,-0.0430607 -0.44905,-0.18115558 -0.68509,-0.22836403 -0.29857,-0.0597146 -0.61488,0.0597145 -0.91346,0 -0.23604,-0.0472085 -0.44905,-0.18115557 -0.68509,-0.22836402 -0.14928,-0.0298572 -0.30541,0.0168124 -0.45673,0 -0.19288,-0.0214317 -0.37833,-0.0901103 -0.5709,-0.114182 -0.11331,-0.0141625 -0.22837,0 -0.34255,0 -0.30449,0 -0.60897,0 -0.91346,0 -0.11419,0 -0.23422,0.0361075 -0.34254,0 -0.0361,-0.0120358 0.0269,-0.0872691 0,-0.11418201 -0.0269,-0.0269129 -0.0761,0 -0.11419,0 -0.22837,0 -0.45673,0 -0.6851,0 -0.0761,0 -0.15451,0.0184621 -0.22836,0 -0.0826,-0.0206413 -0.14653,-0.0908015 -0.22836,-0.11418199 -0.18661,-0.053316 -0.38264,-0.067113 -0.57091,-0.114182 -0.23353,-0.058382 -0.44905,-0.1811556 -0.6851,-0.228364 -0.0746,-0.014928 -0.15371,0.014928 -0.22836,0 -0.11802,-0.023604 -0.22836,-0.076121 -0.34255,-0.114182 -0.11419,-0.038061 -0.23079,-0.069482 -0.34254,-0.114182 -0.0656,-0.026253 -0.3911,-0.2021111 -0.45673,-0.228364 -0.0743,-0.029727 -0.48165,-0.1391049 -0.57091,-0.228364 -0.0269,-0.026913 0.0269,-0.087269 0,-0.114182 -0.0269,-0.026913 -0.0781,0.012036 -0.11419,0 -0.82707,-0.2756892 0.18002,0.032919 -0.34255,-0.228364 -0.33234,-0.1661732 -0.40151,-0.03931 -0.68509,-0.228364 -0.59861,-0.3990767 0.49479,0.2664247 -0.11419,-0.3425461 -0.11419,-0.1141824 -0.22836,0.057091 -0.34254,0 -0.25247,-0.1262305 -0.0354,-0.070866 -0.11419,-0.2283639 -0.0523,-0.1045139 -0.25911,-0.2005496 -0.34255,-0.2283639 -0.0361,-0.012031 -0.0873,0.026912 -0.11417,0 -1.1e-4,-1.092e-4 1.7e-4,-0.3420286 0,-0.3425461 -0.017,-0.051064 -0.0901,-0.066039 -0.11419,-0.1141825 -0.017,-0.034043 0.017,-0.08014 0,-0.1141825 -0.0241,-0.048144 -0.0843,-0.069397 -0.11419,-0.1141825 -0.0472,-0.070813 -0.067,-0.1575506 -0.11419,-0.2283639 -0.0299,-0.044785 -0.0761,-0.076122 -0.11419,-0.1141825 -0.11419,-0.1141825 -0.24167,-0.2164531 -0.34255,-0.3425461 -0.0532,-0.066457 -0.054,-0.1681849 -0.11418,-0.2283639 -0.0602,-0.060179 -0.16819,-0.054002 -0.22837,-0.1141825 -0.0269,-0.026912 0.0269,-0.087268 0,-0.1141825 -0.0602,-0.060179 -0.1773,-0.046097 -0.22836,-0.1141824 -0.0722,-0.096286 -0.042,-0.2462593 -0.11419,-0.3425461 -0.0511,-0.068085 -0.1773,-0.046097 -0.22837,-0.1141825 -0.0722,-0.096286 -0.042,-0.2462592 -0.11418,-0.3425459 -0.0511,-0.068085 -0.15755,-0.066974 -0.22837,-0.1141825 -0.0448,-0.029858 -0.0761,-0.076121 -0.11419,-0.1141825 -0.0761,-0.076122 -0.16865,-0.1387924 -0.22836,-0.2283639 -0.0211,-0.031668 0.0269,-0.087268 0,-0.1141825 -0.0269,-0.026912 -0.0761,0 -0.11419,0 -0.0761,0 -0.16027,0.034043 -0.22836,0 -0.034,-0.017021 0.012,-0.078075 0,-0.1141825 -0.0269,-0.080739 -0.054,-0.1681847 -0.11419,-0.2283639 -0.23625,-0.2362466 0.009,0.3610161 -0.22837,-0.1141825 -0.0787,-0.1574971 0.13829,-0.1021327 -0.11419,-0.2283641 -0.034,-0.017021 -0.0873,0.026912 -0.11419,0 -0.23624,-0.2362466 0.36102,0.00924 -0.11419,-0.228364 -0.15749,-0.078749 -0.10214,0.1382804 -0.22836,-0.1141824 -0.0457,-0.091346 0.0457,-0.2512005 0,-0.3425461 -0.0481,-0.096286 -0.19432,-0.1262356 -0.22836,-0.228364 -0.0241,-0.072215 0,-0.1522427 0,-0.2283641 0,-0.1141825 0,-0.2283639 0,-0.3425459 0,-0.065791 -0.0208,-0.5292936 0,-0.57091 0.0481,-0.096288 0.18022,-0.1320773 0.22836,-0.2283642 0.017,-0.034042 -0.017,-0.08014 0,-0.1141824 0.0241,-0.048144 0.0901,-0.066039 0.11417,-0.1141825 0.017,-0.034043 -0.0211,-0.082515 0,-0.1141826 0.0597,-0.08957 0.15224,-0.152243 0.22837,-0.228364 0.0761,-0.07612 0.15224,-0.152243 0.22836,-0.228364 0.0381,-0.03806 0.0901,-0.06604 0.11419,-0.114182 0.017,-0.03404 -0.0211,-0.08252 0,-0.114183 -0.0977,-0.529736 0.24551,-0.131327 0.34255,-0.228364 0.0602,-0.06018 0.067,-0.15755 0.11419,-0.228364 0.0298,-0.04478 0.0761,-0.07612 0.11418,-0.114182 0.0381,-0.03806 0.066,-0.09011 0.11419,-0.114183 0.034,-0.01702 0.0801,0.01702 0.11419,0 0.0963,-0.04814 0.13208,-0.180221 0.22837,-0.228364 0.0681,-0.03404 0.17454,0.05383 0.22836,0 0.0269,-0.02691 -0.0269,-0.08727 0,-0.114182 0.0269,-0.02691 0.0761,0 0.11419,0 0.22836,0 0.45673,0 0.68509,0 0.53285,0 1.0657,0 1.59855,0 0.22836,0 0.45673,0 0.68509,0 0.0761,0 0.15452,0.01846 0.22837,0 0.0826,-0.02064 0.1458,-0.09354 0.22836,-0.114183 0.0738,-0.01846 0.15224,0 0.22836,0 0.19031,0 0.38061,0 0.57091,0 0.57091,0 1.14182,0 1.71273,0 0.38061,0 0.76122,0 1.14182,0 0.0761,0 0.15225,0 0.22837,0 0.11417,0 0.23177,-0.02769 0.34254,0 0.0522,0.01305 0.066,0.09011 0.11419,0.114183 0.0337,0.01685 0.68165,0 0.79928,0 0.60897,0 1.21794,0 1.82691,0 0.22836,0 0.45673,0 0.68509,0 0.0761,0 0.15224,0 0.22837,0 0.0381,0 0.0781,-0.01203 0.11418,0 0.0807,0.02691 0.15755,0.06697 0.22837,0.114182 0.0448,0.02986 0.0631,0.09716 0.11419,0.114183 0.063,0.02098 0.58819,0 0.68509,0 0.0381,0 0.0761,0 0.11419,0 0.0381,0 0.0801,-0.01702 0.11419,0 0.0481,0.02407 0.066,0.09011 0.11417,0.114182 0.034,0.01702 0.0761,0 0.11419,0 0.0381,0 0.0761,0 0.11419,0 0.22836,0 0.456726,0 0.685089,0 0.723154,0 1.446306,0 2.169459,0 0.228363,0 0.456728,0 0.685092,0 0.114189,0 0.231773,-0.02769 0.342545,0 0.08256,0.02064 0.145799,0.09354 0.228365,0.114183 0.07385,0.01846 0.152241,0 0.228364,0 0.228364,0 0.456728,0 0.685091,0 0.110441,0 0.651228,-0.01693 0.685093,0 0.04814,0.02407 0.06603,0.09011 0.114189,0.114182 0.03404,0.01702 0.08014,-0.01702 0.11419,0 0.290084,0.145042 -0.116934,0.136468 0.342545,0.228364 0.219582,0.04392 0.465512,-0.04392 0.685093,0 0.236043,0.04721 0.44905,0.181156 0.685092,0.228364 0.149279,0.02986 0.30903,-0.03692 0.456728,0 0.08256,0.02064 0.145799,0.09354 0.228363,0.114183 0.07385,0.01846 0.156157,-0.02407 0.228365,0 0.356398,0.118799 -0.03807,0.07612 0.114173,0.228364 0.03044,0.03044 0.524477,-0.03096 0.570911,0 0.07082,0.04721 0.04337,0.181155 0.114189,0.228363 0.06334,0.04223 0.155169,-0.02091 0.228363,0 0.733426,0.2095508 0.346656,0.2008461 0.913456,0.3425466 0.03693,0.00924 0.07612,0 0.11419,0 0.114189,0.03806 0.225781,0.084991 0.342545,0.1141824 0.03693,0.00924 0.07612,0 0.11419,0 0.09687,0 0.609335,-0.018939 0.685091,0 0.165126,0.041283 0.291597,0.1870815 0.456728,0.2283642 0.07385,0.018462 0.156157,-0.024071 0.228364,0 0.05107,0.017021 0.06603,0.09011 0.114189,0.1141824 0.09135,0.045672 0.251201,-0.045672 0.342546,0 0.03404,0.017021 -0.03404,0.097161 0,0.1141825 0.07271,0.03635 0.572881,-0.037403 0.685091,0 0.07612,0.03806 0.152241,0.076122 0.228365,0.1141825 0,0.03806 -0.02691,0.087268 0,0.1141825 0.06017,0.060178 0.152241,0.076121 0.228363,0.1141824 0.07612,0.03806 0.147623,0.087268 0.228365,0.1141825 0.07222,0.024071 0.160273,-0.034043 0.228363,0 0.09628,0.048144 0.138788,0.1686496 0.228365,0.228364 0.498695,0.3324633 -0.03763,-0.050607 0.456729,0.1141824 0.157696,0.052567 0.116448,0.2586122 0.228363,0.3425461 0.09628,0.072215 0.234894,0.060356 0.342546,0.1141825 0.04814,0.024071 0.06939,0.084325 0.114189,0.1141825 0.07082,0.047208 0.181155,0.04337 0.228363,0.1141824 0.04222,0.063336 -0.04222,0.1650272 0,0.228364 0.01255,0.018949 0.410064,0.1933657 0.456728,0.2283641 0.08613,0.064591 0.152241,0.1522427 0.228365,0.228364 0.03807,0.03806 0.09011,0.066039 0.114173,0.1141824 0.01702,0.034043 -0.01702,0.08014 0,0.1141825 0.2376,0.4751983 -0.0079,-0.1220639 0.228365,0.1141825 0.02691,0.026912 -0.02691,0.087268 0,0.1141825 0.02691,0.026912 0.08727,-0.026912 0.114189,0 0.01104,0.011077 0,0.5273985 0,0.57091 0,0.2283639 0,0.4567281 0,0.685092 0,0.076121 0.01846,0.1545151 0,0.2283639 -0.02065,0.082565 -0.08258,0.1493446 -0.114189,0.2283642 -0.0447,0.1117494 -0.06036,0.2348941 -0.114189,0.3425459 -0.02408,0.048144 -0.08189,0.071122 -0.11419,0.1141825 -0.08233,0.1097832 -0.160273,0.2233972 -0.228363,0.3425459 -0.08445,0.1477866 -0.108014,0.3363696 -0.228365,0.456728 -0.08511,0.085106 -0.257439,0.029076 -0.342546,0.1141825 -0.08511,0.085106 -0.07612,0.2283641 -0.114189,0.3425461 -0.114189,0.076122 -0.24551,0.1313276 -0.342547,0.2283639 -0.120364,0.1203588 -0.126237,0.3205582 -0.228364,0.4567281 -0.493869,0.4938704 -0.01789,-0.030247 -0.342545,0.456728 -0.0969,0.145361 -0.351207,0.3160335 -0.456728,0.4567281 -0.05107,0.068085 -0.04337,0.1811555 -0.11419,0.228364 -0.06334,0.042225 -0.152241,0 -0.228363,0 -0.114189,0 -0.234223,-0.036107 -0.342546,0 -0.130186,0.043396 -0.232762,0.1460263 -0.342547,0.228364 -0.04305,0.032296 -0.06196,0.1011274 -0.114189,0.114182 -0.110776,0.027693 -0.234224,-0.036107 -0.342546,0 -0.130186,0.043396 -0.219804,0.16699301 -0.342547,0.228364 -0.03344,0.016743 -0.671243,0.21801376 -0.685043,0.22836341 -0.06809,0.0510637 -0.07612,0.15224274 -0.11419,0.22836401 -0.114172,0.11418198 -0.204079,0.25946643 -0.342545,0.34254604 -0.06528,0.03916417 -0.153714,-0.01492792 -0.228364,0 -0.118021,0.02360423 -0.223825,0.09439515 -0.342545,0.11418197 -0.112633,0.01877144 -0.230583,-0.02239289 -0.342548,0 -0.08345,0.01668996 -0.14441,0.10019062 -0.228363,0.11418198 -0.150166,0.0250286 -0.304486,0 -0.456728,0 -0.114189,0 -0.228364,0 -0.342546,0 -0.418668,0 -0.837334,0 -1.256002,0 -0.532849,0 -1.065699,0 -1.598548,0 -0.114189,0 -0.228364,0 -0.342546,0 -0.114189,0 -0.229918,-0.0187714 -0.342546,0 -0.118724,0.0197868 -0.224526,0.0905777 -0.342547,0.11418197 -0.127041,0.0254064 -0.42216,0 -0.570909,0 -0.380608,0 -0.761214,0 -1.14182,0 -0.190305,0 -0.380608,0 -0.570911,0 -0.07612,0 -0.160273,0.0340426 -0.228363,0 -0.03404,-0.0170213 0.02691,-0.087269 0,-0.11418197 -0.0571,-0.0570911 -0.285456,0.0570911 -0.342547,0 -0.02691,-0.0269129 0.02691,-0.087269 0,-0.11418198 -0.05383,-0.05382587 -0.174537,0.05382587 -0.228364,0 -0.02691,-0.02691293 0.02691,-0.08726904 0,-0.11418197 -0.02691,-0.02691293 -0.08014,0.01702128 -0.114189,0 -0.04814,-0.02407176 -0.07612,-0.07612137 -0.114189,-0.11418197 -0.114189,-0.0380606 -0.228365,-0.0761214 -0.342547,-0.11418198 z"/>
  </clipPath>
  <clipPath clipPathUnits="userSpaceOnUse" id="clipPath4929">
   <path style="fill:none;stroke:#000000;stroke-width:1.67334652px;stroke-linecap:butt;stroke-linejoin:miter;stroke-opacity:1" inkscape:connector-curvature="0" id="path4931" d="m -89.612032,-2.9943897 c -0.114189,-0.1522428 -0.228365,-0.3044855 -0.342546,-0.4567281 0,-0.03806 0.01702,-0.08014 0,-0.1141825 -0.02408,-0.048144 -0.06603,-0.09011 -0.114189,-0.1141824 -0.03404,-0.017021 -0.08727,0.026912 -0.114189,0 -0.02691,-0.026912 0.01205,-0.078075 0,-0.1141825 -0.02691,-0.080739 -0.06312,-0.1602782 -0.114189,-0.228364 -0.615981,-0.8213086 0.126789,0.2409673 -0.456727,-0.3425461 -0.02691,-0.026912 0.01702,-0.08014 0,-0.1141824 -0.06138,-0.1227417 -0.131324,-0.2455101 -0.228365,-0.3425461 -0.120364,-0.1203588 -0.336369,-0.1080062 -0.456728,-0.228364 -0.445622,-0.445622 0.02642,-0.061321 -0.114189,-0.3425461 -0.06851,-0.1370186 -0.274037,-0.2055276 -0.342548,-0.3425459 -0.01702,-0.034042 0.02691,-0.087268 0,-0.1141825 -0.02691,-0.026912 -0.08727,0.026912 -0.114172,0 -0.02691,-0.026912 0.02691,-0.087268 0,-0.1141824 -0.02691,-0.026912 -0.08727,0.026912 -0.114189,0 -0.03986,-0.039856 0.04739,-0.3188478 0,-0.342546 -0.06809,-0.034042 -0.160273,0.034043 -0.228363,0 -0.03014,-0.01506 0.02274,-0.160161 0,-0.2283641 -0.02691,-0.080739 -0.07612,-0.1522427 -0.11419,-0.2283639 -0.07612,-0.1522428 -0.133951,-0.3151027 -0.228365,-0.4567281 -0.02985,-0.044785 -0.09011,-0.066039 -0.114189,-0.1141824 -0.01702,-0.034043 0.01702,-0.08014 0,-0.1141825 -0.2376,-0.4751981 0.0079,0.1220639 -0.228365,-0.1141825 -0.02691,-0.026912 0,-0.076121 0,-0.1141825 -0.03807,-0.076121 -0.054,-0.1681849 -0.114189,-0.2283639 -0.02691,-0.026912 -0.08727,0.026912 -0.114189,0 -0.05383,-0.053827 0.03404,-0.1602798 0,-0.2283641 -0.02408,-0.048144 -0.09011,-0.066039 -0.114189,-0.1141825 -0.03738,-0.074768 0.03377,-0.4695812 0,-0.57091 -0.02691,-0.080739 -0.08727,-0.1476244 -0.114189,-0.228364 -0.02408,-0.072215 0.05383,-0.1745382 0,-0.2283641 -0.236247,-0.2362466 0.0092,0.3610161 -0.228364,-0.1141825 -0.03404,-0.068085 0.05383,-0.1745381 0,-0.2283639 -0.02691,-0.026912 -0.08727,0.026912 -0.114189,0 -0.02691,-0.026912 0.02691,-0.08727 0,-0.1141825 -0.05383,-0.053826 -0.174538,0.053826 -0.228363,0 -0.02691,-0.026912 0.02691,-0.087268 0,-0.1141825 -0.05383,-0.053826 -0.160273,0.034043 -0.228365,0 -0.04814,-0.024071 -0.07612,-0.076122 -0.114189,-0.1141825 -0.07612,-0.076122 -0.152241,-0.1522428 -0.228365,-0.2283638 -0.178066,-0.178066 -0.321015,-0.331781 -0.570911,-0.456728 -0.06809,-0.03404 -0.152241,0 -0.228363,0 -0.03807,0 -0.08727,0.02691 -0.114189,0 -0.06017,-0.06018 -0.054,-0.168185 -0.114173,-0.228364 -0.02691,-0.02691 -0.08014,0.01702 -0.114189,0 -0.04814,-0.02407 -0.06312,-0.09716 -0.114189,-0.114183 -0.07222,-0.02407 -0.160273,0.03404 -0.228363,0 -0.03404,-0.01702 0,-0.07612 0,-0.114182 -0.07612,-0.03806 -0.147623,-0.08727 -0.228365,-0.114183 -0.03611,-0.01203 -0.07612,0 -0.114189,0 -0.11419,-0.03806 -0.230797,-0.06948 -0.342548,-0.114182 -0.158031,-0.06322 -0.291597,-0.187081 -0.456726,-0.228364 -0.07384,-0.01846 -0.160274,0.03404 -0.228365,0 -0.03404,-0.01702 0.03611,-0.102146 0,-0.114183 -0.108316,-0.03611 -0.231774,0.02769 -0.342546,0 -0.104434,-0.02611 -0.132077,-0.18022 -0.228365,-0.228364 -0.157495,-0.07875 -0.102124,0.138281 -0.228363,-0.114182 -0.01702,-0.03404 0.02691,-0.08727 0,-0.114183 -0.03763,-0.03764 -0.3741,0.02754 -0.456729,0 -0.05107,-0.01702 -0.06603,-0.09011 -0.114189,-0.114182 -0.03404,-0.01702 -0.07612,0 -0.114189,0 -0.07612,0 -0.156157,0.02407 -0.228365,0 -0.05107,-0.01702 -0.06196,-0.101127 -0.114172,-0.114183 -0.110776,-0.02769 -0.228365,0 -0.342548,0 -0.114189,0 -0.228363,0 -0.342548,0 -0.0381,0 -0.0773,0.0092 -0.11419,0 -0.11676,-0.02919 -0.22682,-0.08112 -0.34254,-0.114182 -0.15089,-0.04311 -0.3098,-0.05908 -0.45673,-0.114183 -0.56438,-0.28219 -0.29525,-0.174538 -0.79928,-0.342545 -0.11419,-0.03806 -0.23079,-0.06948 -0.34254,-0.114183 -0.079,-0.03161 -0.14441,-0.10019 -0.22837,-0.114182 -0.15016,-0.02503 -0.30448,0 -0.45672,0 -0.15224,0 -0.30449,0 -0.45673,0 -0.11419,0 -0.23178,0.02769 -0.34255,0 -0.0522,-0.01305 -0.0631,-0.09716 -0.11419,-0.114183 -0.0523,-0.01742 -0.50717,0 -0.57091,0 -0.41866,0 -0.83733,0 -1.256,0 -0.72315,0 -1.4463,0 -2.16946,0 -0.1903,0 -0.3806,0 -0.57091,0 -0.11419,0 -0.22992,-0.01877 -0.34254,0 -0.11873,0.01979 -0.2234,0.09716 -0.34255,0.114183 -0.15072,0.02153 -0.30448,0 -0.45673,0 -0.0761,0 -0.15614,-0.02407 -0.22836,0 -0.0511,0.01702 -0.0631,0.09716 -0.11419,0.114182 -0.0722,0.02407 -0.15224,0 -0.22836,0 -0.0761,0 -0.15224,0 -0.22837,0 -0.0967,0 -0.39534,-0.02046 -0.45673,0 -0.0511,0.01702 -0.0631,0.09716 -0.11419,0.114183 -0.43512,0.145042 -0.0195,-0.253404 -0.5709,0.114182 -0.0317,0.02111 0,0.07612 0,0.114182 -0.0381,0.03806 -0.066,0.09011 -0.11419,0.114183 -0.0681,0.03404 -0.15616,-0.02407 -0.22837,0 -0.0761,0.03806 -0.15224,0.07612 -0.22836,0.114182 0,0.03806 0.0269,0.08727 0,0.114183 -0.0602,0.06018 -0.15755,0.06697 -0.22836,0.114182 -0.0448,0.02986 -0.0631,0.09716 -0.11419,0.114183 -0.0722,0.02407 -0.15614,-0.02407 -0.22837,0 -0.22721,0.07574 -0.0533,0.10657 -0.11419,0.228364 -0.0241,0.04814 -0.0843,0.0694 -0.11419,0.114182 -0.0472,0.07081 -0.067,0.157551 -0.11418,0.228364 -0.0299,0.04479 -0.0901,0.06604 -0.11419,0.114183 -0.034,0.06808 0.034,0.160278 0,0.228364 -0.0241,0.04814 -0.0761,0.07612 -0.11419,0.114182 -0.0381,0.03806 -0.0694,0.08432 -0.11419,0.114183 -0.0708,0.04721 -0.1773,0.0461 -0.22837,0.114182 -0.13825,0.184339 -0.11418,0.36792 -0.11418,0.57091 0,0.07612 0,0.152243 0,0.228364 0,0.03806 0.0361,0.1021465 0,0.1141828 -0.10832,0.036107 -0.2512,-0.068509 -0.34255,0 -0.0963,0.072215 -0.0695,0.230796 -0.11419,0.3425461 -0.0316,0.079019 -0.067,0.1575506 -0.11417,0.228364 -0.12433,0.1864829 -0.16923,0.046872 -0.22837,0.3425461 0,0.1141824 0,0.2283639 0,0.3425459 -0.0381,0.03806 -0.0971,0.063119 -0.11419,0.1141825 -0.0195,0.058448 0,0.6034621 0,0.6850921 0,0.03806 0.017,0.08014 0,0.1141825 -0.0241,0.048144 -0.0901,0.066039 -0.11419,0.1141825 -0.017,0.034043 0,0.076122 0,0.1141825 0,0.2664247 0,0.5328494 0,0.7992741 0,0.076122 0,0.1522428 0,0.228364 0,0.076121 -0.034,0.1602781 0,0.2283641 0.017,0.034042 0.0801,-0.017021 0.11419,0 0.0482,0.024071 0.0901,0.066039 0.11419,0.1141825 0.034,0.068085 -0.034,0.1602798 0,0.2283639 0.0614,0.1227416 0.15777,0.2248725 0.22837,0.3425461 0.13515,0.225254 0.13211,0.3604815 0.34254,0.57091 0.0602,0.060179 0.16819,0.054002 0.22837,0.1141825 0.17232,0.1723271 0.2695,0.4148926 0.45673,0.57091 0.0585,0.048731 0.15451,-0.018462 0.22836,0 0.0826,0.020641 0.16027,0.063119 0.22836,0.1141825 0.17225,0.1291824 0.28861,0.322229 0.45673,0.4567281 0.10716,0.085727 0.22836,0.1522427 0.34255,0.2283641 0.11419,0.07612 0.21641,0.1743065 0.34254,0.2283639 0.81108,0.3476041 0.16374,0.00991 0.68509,0.1141825 0.41041,0.082081 0.72899,0.3879227 1.14183,0.4567281 0.11263,0.018772 0.22836,0 0.34254,0 0.1903,0 0.38061,0 0.57091,0 0.0381,0 0.0766,-0.00626 0.11419,0 0.19143,0.031906 0.38542,0.057108 0.57091,0.1141824 0.73223,0.2253011 0.81118,0.3894099 1.48437,0.4567281 0.45446,0.045446 0.91461,-0.03254 1.37018,0 0.26845,0.019175 0.53083,0.095008 0.79927,0.1141825 0.26575,0.018982 0.53377,-0.022125 0.79928,0 0.1934,0.016114 0.3778,0.094872 0.57091,0.1141825 0.18936,0.018935 0.38061,0 0.57091,0 0.64703,0 1.29406,0 1.94109,0 0.38061,0 0.761216,0 1.141824,0 0.148677,0 0.570661,0.022886 0.685091,0 0.08345,-0.016683 0.145799,-0.09354 0.228363,-0.1141825 0.07384,-0.018462 0.152242,0 0.228365,0 0.11685,0 0.819109,0.023588 0.913457,0 0.165126,-0.041283 0.29525,-0.1745381 0.456726,-0.228364 0.0618,-0.020599 0.41783,0 0.456729,0 0.304485,0 0.608971,0 0.913456,0 0.165126,0 0.678699,0.024115 0.799274,0 0.911335,-0.1822671 -0.834889,-0.1141824 0.685092,-0.1141824 0.228365,0 0.456728,0 0.685093,0 0.07612,0 0.152241,0 0.228363,0 0.03807,0 0.08014,0.017021 0.114189,0 0.04814,-0.024071 0.06603,-0.09011 0.114189,-0.1141825 0.02559,-0.012801 0.429595,0 0.456729,0 0.418666,0 0.837334,0 1.256,0 0.139741,0 0.455072,0.00497 0.456728,0 0.03611,-0.1083224 0.03611,-0.2342234 0,-0.3425459 -0.01205,-0.036107 -0.08727,0.026912 -0.114172,0 -0.02691,-0.026912 -0.02691,-0.087268 0,-0.1141825 0.0045,-0.0046 0.414796,0 0.456727,0 0.03807,0 0.08014,0.017021 0.114189,0 0.04814,-0.024071 0.06036,-0.1141825 0.114189,-0.1141825 0.156926,0 0.304485,0.076122 0.456728,0.1141825 z"/>
  </clipPath>
  <clipPath clipPathUnits="userSpaceOnUse" id="clipPath4937">
   <path style="fill:none;stroke:#000000;stroke-width:0.33466932;stroke-linecap:butt;stroke-linejoin:miter;stroke-miterlimit:4;stroke-dasharray:none;stroke-opacity:1" inkscape:connector-curvature="0" id="path4939" d="m -106.60726,-13.805544 3.31029,2.502905 9.527187,2.5029055 1.937734,3.7139881 -15.178911,2.7451217 -9.28497,-6.2976321 z"/>
  </clipPath>
  <clipPath clipPathUnits="userSpaceOnUse" id="clipPath5191">
   <path style="fill:none;stroke:#000000;stroke-width:1px;stroke-linecap:butt;stroke-linejoin:miter;stroke-opacity:1" inkscape:connector-curvature="0" id="path5193" d="M -69.327492,0.81882864 -46.127346,24.018974 -43.05674,8.3247579 V -2.7294289 Z"/>
  </clipPath>
  <clipPath clipPathUnits="userSpaceOnUse" id="clipPath5742">
   <path style="fill:none;stroke:#000000;stroke-width:1px;stroke-linecap:butt;stroke-linejoin:miter;stroke-opacity:1" inkscape:connector-curvature="0" id="path5744" d="m -74.513412,-4.640029 24.974273,24.974273 V -4.640029 Z"/>
  </clipPath>
  <clipPath clipPathUnits="userSpaceOnUse" id="clipPath5785">
   <rect ry="0.83432478" style="fill:#333333;fill-opacity:1;stroke:none;stroke-width:0.22472635;stroke-miterlimit:4;stroke-dasharray:none;stroke-opacity:1" y="42.647324" x="-29.375477" width="20.811895" id="rect5787" height="11.156541" transform="rotate(45)"/>
  </clipPath>
  <clipPath clipPathUnits="userSpaceOnUse" id="clipPath5799">
   <rect ry="5.8891525" style="fill:#333333;fill-opacity:1;stroke:none;stroke-width:0.25457799;stroke-miterlimit:4;stroke-dasharray:none;stroke-opacity:1" y="7.8397613" x="-89.513351" width="29.725763" id="rect5801" height="29.357262" transform="rotate(-45)"/>
  </clipPath>
  <clipPath clipPathUnits="userSpaceOnUse" id="clipPath5799-1">
   <rect ry="5.8891525" style="fill:#333333;fill-opacity:1;stroke:none;stroke-width:0.25457799;stroke-miterlimit:4;stroke-dasharray:none;stroke-opacity:1" y="7.8397613" x="-89.513351" width="29.725763" id="rect5801-2" height="29.357262" transform="rotate(-45)"/>
  </clipPath>
  <pattern x="0" y="0" width="6" id="EMFhbasepattern" height="6" patternUnits="userSpaceOnUse"/>
 </defs>
 <sodipodi:namedview inkscape:zoom="1.4" inkscape:cy="151.78015" inkscape:window-x="-9" borderopacity="1.0" inkscape:window-y="-9" inkscape:document-rotation="0" inkscape:pageopacity="0.0" fit-margin-right="0" inkscape:window-width="1920" bordercolor="#666666" inkscape:document-units="mm" fit-margin-left="0" id="base" inkscape:pageshadow="2" showgrid="false" inkscape:window-maximized="1" pagecolor="#ffffff" inkscape:window-height="1001" fit-margin-bottom="0" inkscape:cx="255.53947" inkscape:current-layer="layer1" fit-margin-top="0"/>
 <metadata id="metadata665">
  <rdf:RDF>
   <cc:Work rdf:about="">
    <dc:format>image/svg+xml</dc:format>
    <dc:type rdf:resource="http://purl.org/dc/dcmitype/StillImage"/>
    <dc:title/>
   </cc:Work>
  </rdf:RDF>
 </metadata>
 <g inkscape:groupmode="layer" id="layer1" transform="translate(-64.353838,-64.284179)" inkscape:label="Ebene 1">
  <path style="fill:#0088aa;fill-opacity:1;stroke:#333333;stroke-width:0.933321;stroke-miterlimit:4;stroke-dasharray:none;stroke-dashoffset:0;stroke-opacity:1" inkscape:connector-curvature="0" id="path2038-3" sodipodi:nodetypes="ccccccc" d="m 187.70123,64.940255 4.65047,8.054847 -4.65047,8.054839 -118.158079,-0.188988 -4.65046,-8.054843 4.650463,-8.054839 z"/>
 </g>
</svg>
