<?xml version='1.0' encoding='UTF-8' standalone='no'?>
<svg xmlns:dc="http://purl.org/dc/elements/1.1/" height="64.414513" xmlns="http://www.w3.org/2000/svg" sodipodi:docname="Station1Q.svg" xmlns:cc="http://creativecommons.org/ns#" viewBox="0 0 74.379464 64.414514" version="1.1" inkscape:version="0.92.4 (5da689c313, 2019-01-14)" xmlns:rdf="http://www.w3.org/1999/02/22-rdf-syntax-ns#" xmlns:sodipodi="http://sodipodi.sourceforge.net/DTD/sodipodi-0.dtd" xmlns:svg="http://www.w3.org/2000/svg" xmlns:inkscape="http://www.inkscape.org/namespaces/inkscape" width="74.379463" id="svg2">
 <sodipodi:namedview inkscape:pageshadow="2" guidetolerance="10" inkscape:cy="140.1213" fit-margin-bottom="0" fit-margin-right="0" inkscape:window-height="1001" showgrid="false" pagecolor="#ffffff" inkscape:window-maximized="1" fit-margin-top="0" objecttolerance="10" inkscape:zoom="2" inkscape:snap-global="true" bordercolor="#666666" inkscape:current-layer="svg2" gridtolerance="10" id="namedview10" inkscape:window-x="-9" inkscape:window-width="1920" inkscape:window-y="1071" borderopacity="1" fit-margin-left="0" inkscape:cx="-184.00505" inkscape:pageopacity="0"/>
 <metadata id="metadata8">
  <rdf:RDF>
   <cc:Work rdf:about="">
    <dc:format>image/svg+xml</dc:format>
    <dc:type rdf:resource="http://purl.org/dc/dcmitype/StillImage"/>
    <dc:title/>
   </cc:Work>
  </rdf:RDF>
 </metadata>
 <defs id="defs6">
  <clipPath clipPathUnits="userSpaceOnUse" id="clipPath143">
   <rect height="203.14427" x="-715.1568" transform="rotate(-43.315315)" style="stroke-width:1.71212864" y="67.804993" width="203.14427" id="rect145"/>
  </clipPath>
  <clipPath clipPathUnits="userSpaceOnUse" id="clipPath4719">
   <rect height="42.942448" ry="0.40744901" x="-34.546959" style="fill:#000000;fill-opacity:1;stroke:#000000" y="25.718069" rx="2.47085" width="8.8779888" id="rect4721"/>
  </clipPath>
  <clipPath clipPathUnits="userSpaceOnUse" id="clipPath4885">
   <circle r="10.929907" transform="rotate(-38.419141)" style="fill:none;stroke:#4d4d4d;stroke-width:0.60246503" cy="-28.001387" cx="-52.648228" id="circle4887"/>
  </clipPath>
  <clipPath clipPathUnits="userSpaceOnUse" id="clipPath4889">
   <circle r="10.929907" transform="rotate(-38.419141)" style="fill:none;stroke:#4d4d4d;stroke-width:0.60246503" cy="-28.001387" cx="-52.648228" id="circle4891"/>
  </clipPath>
  <clipPath clipPathUnits="userSpaceOnUse" id="clipPath4893">
   <circle r="10.929907" transform="rotate(-38.419141)" style="fill:none;stroke:#4d4d4d;stroke-width:0.60246503" cy="-28.001387" cx="-52.648228" id="circle4895"/>
  </clipPath>
  <clipPath clipPathUnits="userSpaceOnUse" id="clipPath4897">
   <circle r="10.929907" transform="rotate(-38.419141)" style="fill:none;stroke:#4d4d4d;stroke-width:0.60246503" cy="-28.001387" cx="-52.648228" id="circle4899"/>
  </clipPath>
  <clipPath clipPathUnits="userSpaceOnUse" id="clipPath4913">
   <circle r="24.283579" transform="rotate(-38.419141)" style="fill:none;stroke:#4d4d4d;stroke-width:1.33852994" cy="-54.134789" cx="-88.579475" id="circle4915"/>
  </clipPath>
  <clipPath clipPathUnits="userSpaceOnUse" id="clipPath4923">
   <path inkscape:connector-curvature="0" style="fill:none;stroke:#000000;stroke-width:1.67334652px;stroke-linecap:butt;stroke-linejoin:miter;stroke-opacity:1" d="m -98.061502,-0.25402155 c -0.494788,0 -0.989577,0 -1.484365,0 -0.190303,0 -0.383677,0.0340426 -0.570913,0 -0.23683,-0.0430607 -0.44905,-0.18115558 -0.68509,-0.22836403 -0.29857,-0.0597146 -0.61488,0.0597145 -0.91346,0 -0.23604,-0.0472085 -0.44905,-0.18115557 -0.68509,-0.22836402 -0.14928,-0.0298572 -0.30541,0.0168124 -0.45673,0 -0.19288,-0.0214317 -0.37833,-0.0901103 -0.5709,-0.114182 -0.11331,-0.0141625 -0.22837,0 -0.34255,0 -0.30449,0 -0.60897,0 -0.91346,0 -0.11419,0 -0.23422,0.0361075 -0.34254,0 -0.0361,-0.0120358 0.0269,-0.0872691 0,-0.11418201 -0.0269,-0.0269129 -0.0761,0 -0.11419,0 -0.22837,0 -0.45673,0 -0.6851,0 -0.0761,0 -0.15451,0.0184621 -0.22836,0 -0.0826,-0.0206413 -0.14653,-0.0908015 -0.22836,-0.11418199 -0.18661,-0.053316 -0.38264,-0.067113 -0.57091,-0.114182 -0.23353,-0.058382 -0.44905,-0.1811556 -0.6851,-0.228364 -0.0746,-0.014928 -0.15371,0.014928 -0.22836,0 -0.11802,-0.023604 -0.22836,-0.076121 -0.34255,-0.114182 -0.11419,-0.038061 -0.23079,-0.069482 -0.34254,-0.114182 -0.0656,-0.026253 -0.3911,-0.2021111 -0.45673,-0.228364 -0.0743,-0.029727 -0.48165,-0.1391049 -0.57091,-0.228364 -0.0269,-0.026913 0.0269,-0.087269 0,-0.114182 -0.0269,-0.026913 -0.0781,0.012036 -0.11419,0 -0.82707,-0.2756892 0.18002,0.032919 -0.34255,-0.228364 -0.33234,-0.1661732 -0.40151,-0.03931 -0.68509,-0.228364 -0.59861,-0.3990767 0.49479,0.2664247 -0.11419,-0.3425461 -0.11419,-0.1141824 -0.22836,0.057091 -0.34254,0 -0.25247,-0.1262305 -0.0354,-0.070866 -0.11419,-0.2283639 -0.0523,-0.1045139 -0.25911,-0.2005496 -0.34255,-0.2283639 -0.0361,-0.012031 -0.0873,0.026912 -0.11417,0 -1.1e-4,-1.092e-4 1.7e-4,-0.3420286 0,-0.3425461 -0.017,-0.051064 -0.0901,-0.066039 -0.11419,-0.1141825 -0.017,-0.034043 0.017,-0.08014 0,-0.1141825 -0.0241,-0.048144 -0.0843,-0.069397 -0.11419,-0.1141825 -0.0472,-0.070813 -0.067,-0.1575506 -0.11419,-0.2283639 -0.0299,-0.044785 -0.0761,-0.076122 -0.11419,-0.1141825 -0.11419,-0.1141825 -0.24167,-0.2164531 -0.34255,-0.3425461 -0.0532,-0.066457 -0.054,-0.1681849 -0.11418,-0.2283639 -0.0602,-0.060179 -0.16819,-0.054002 -0.22837,-0.1141825 -0.0269,-0.026912 0.0269,-0.087268 0,-0.1141825 -0.0602,-0.060179 -0.1773,-0.046097 -0.22836,-0.1141824 -0.0722,-0.096286 -0.042,-0.2462593 -0.11419,-0.3425461 -0.0511,-0.068085 -0.1773,-0.046097 -0.22837,-0.1141825 -0.0722,-0.096286 -0.042,-0.2462592 -0.11418,-0.3425459 -0.0511,-0.068085 -0.15755,-0.066974 -0.22837,-0.1141825 -0.0448,-0.029858 -0.0761,-0.076121 -0.11419,-0.1141825 -0.0761,-0.076122 -0.16865,-0.1387924 -0.22836,-0.2283639 -0.0211,-0.031668 0.0269,-0.087268 0,-0.1141825 -0.0269,-0.026912 -0.0761,0 -0.11419,0 -0.0761,0 -0.16027,0.034043 -0.22836,0 -0.034,-0.017021 0.012,-0.078075 0,-0.1141825 -0.0269,-0.080739 -0.054,-0.1681847 -0.11419,-0.2283639 -0.23625,-0.2362466 0.009,0.3610161 -0.22837,-0.1141825 -0.0787,-0.1574971 0.13829,-0.1021327 -0.11419,-0.2283641 -0.034,-0.017021 -0.0873,0.026912 -0.11419,0 -0.23624,-0.2362466 0.36102,0.00924 -0.11419,-0.228364 -0.15749,-0.078749 -0.10214,0.1382804 -0.22836,-0.1141824 -0.0457,-0.091346 0.0457,-0.2512005 0,-0.3425461 -0.0481,-0.096286 -0.19432,-0.1262356 -0.22836,-0.228364 -0.0241,-0.072215 0,-0.1522427 0,-0.2283641 0,-0.1141825 0,-0.2283639 0,-0.3425459 0,-0.065791 -0.0208,-0.5292936 0,-0.57091 0.0481,-0.096288 0.18022,-0.1320773 0.22836,-0.2283642 0.017,-0.034042 -0.017,-0.08014 0,-0.1141824 0.0241,-0.048144 0.0901,-0.066039 0.11417,-0.1141825 0.017,-0.034043 -0.0211,-0.082515 0,-0.1141826 0.0597,-0.08957 0.15224,-0.152243 0.22837,-0.228364 0.0761,-0.07612 0.15224,-0.152243 0.22836,-0.228364 0.0381,-0.03806 0.0901,-0.06604 0.11419,-0.114182 0.017,-0.03404 -0.0211,-0.08252 0,-0.114183 -0.0977,-0.529736 0.24551,-0.131327 0.34255,-0.228364 0.0602,-0.06018 0.067,-0.15755 0.11419,-0.228364 0.0298,-0.04478 0.0761,-0.07612 0.11418,-0.114182 0.0381,-0.03806 0.066,-0.09011 0.11419,-0.114183 0.034,-0.01702 0.0801,0.01702 0.11419,0 0.0963,-0.04814 0.13208,-0.180221 0.22837,-0.228364 0.0681,-0.03404 0.17454,0.05383 0.22836,0 0.0269,-0.02691 -0.0269,-0.08727 0,-0.114182 0.0269,-0.02691 0.0761,0 0.11419,0 0.22836,0 0.45673,0 0.68509,0 0.53285,0 1.0657,0 1.59855,0 0.22836,0 0.45673,0 0.68509,0 0.0761,0 0.15452,0.01846 0.22837,0 0.0826,-0.02064 0.1458,-0.09354 0.22836,-0.114183 0.0738,-0.01846 0.15224,0 0.22836,0 0.19031,0 0.38061,0 0.57091,0 0.57091,0 1.14182,0 1.71273,0 0.38061,0 0.76122,0 1.14182,0 0.0761,0 0.15225,0 0.22837,0 0.11417,0 0.23177,-0.02769 0.34254,0 0.0522,0.01305 0.066,0.09011 0.11419,0.114183 0.0337,0.01685 0.68165,0 0.79928,0 0.60897,0 1.21794,0 1.82691,0 0.22836,0 0.45673,0 0.68509,0 0.0761,0 0.15224,0 0.22837,0 0.0381,0 0.0781,-0.01203 0.11418,0 0.0807,0.02691 0.15755,0.06697 0.22837,0.114182 0.0448,0.02986 0.0631,0.09716 0.11419,0.114183 0.063,0.02098 0.58819,0 0.68509,0 0.0381,0 0.0761,0 0.11419,0 0.0381,0 0.0801,-0.01702 0.11419,0 0.0481,0.02407 0.066,0.09011 0.11417,0.114182 0.034,0.01702 0.0761,0 0.11419,0 0.0381,0 0.0761,0 0.11419,0 0.22836,0 0.456726,0 0.685089,0 0.723154,0 1.446306,0 2.169459,0 0.228363,0 0.456728,0 0.685092,0 0.114189,0 0.231773,-0.02769 0.342545,0 0.08256,0.02064 0.145799,0.09354 0.228365,0.114183 0.07385,0.01846 0.152241,0 0.228364,0 0.228364,0 0.456728,0 0.685091,0 0.110441,0 0.651228,-0.01693 0.685093,0 0.04814,0.02407 0.06603,0.09011 0.114189,0.114182 0.03404,0.01702 0.08014,-0.01702 0.11419,0 0.290084,0.145042 -0.116934,0.136468 0.342545,0.228364 0.219582,0.04392 0.465512,-0.04392 0.685093,0 0.236043,0.04721 0.44905,0.181156 0.685092,0.228364 0.149279,0.02986 0.30903,-0.03692 0.456728,0 0.08256,0.02064 0.145799,0.09354 0.228363,0.114183 0.07385,0.01846 0.156157,-0.02407 0.228365,0 0.356398,0.118799 -0.03807,0.07612 0.114173,0.228364 0.03044,0.03044 0.524477,-0.03096 0.570911,0 0.07082,0.04721 0.04337,0.181155 0.114189,0.228363 0.06334,0.04223 0.155169,-0.02091 0.228363,0 0.733426,0.2095508 0.346656,0.2008461 0.913456,0.3425466 0.03693,0.00924 0.07612,0 0.11419,0 0.114189,0.03806 0.225781,0.084991 0.342545,0.1141824 0.03693,0.00924 0.07612,0 0.11419,0 0.09687,0 0.609335,-0.018939 0.685091,0 0.165126,0.041283 0.291597,0.1870815 0.456728,0.2283642 0.07385,0.018462 0.156157,-0.024071 0.228364,0 0.05107,0.017021 0.06603,0.09011 0.114189,0.1141824 0.09135,0.045672 0.251201,-0.045672 0.342546,0 0.03404,0.017021 -0.03404,0.097161 0,0.1141825 0.07271,0.03635 0.572881,-0.037403 0.685091,0 0.07612,0.03806 0.152241,0.076122 0.228365,0.1141825 0,0.03806 -0.02691,0.087268 0,0.1141825 0.06017,0.060178 0.152241,0.076121 0.228363,0.1141824 0.07612,0.03806 0.147623,0.087268 0.228365,0.1141825 0.07222,0.024071 0.160273,-0.034043 0.228363,0 0.09628,0.048144 0.138788,0.1686496 0.228365,0.228364 0.498695,0.3324633 -0.03763,-0.050607 0.456729,0.1141824 0.157696,0.052567 0.116448,0.2586122 0.228363,0.3425461 0.09628,0.072215 0.234894,0.060356 0.342546,0.1141825 0.04814,0.024071 0.06939,0.084325 0.114189,0.1141825 0.07082,0.047208 0.181155,0.04337 0.228363,0.1141824 0.04222,0.063336 -0.04222,0.1650272 0,0.228364 0.01255,0.018949 0.410064,0.1933657 0.456728,0.2283641 0.08613,0.064591 0.152241,0.1522427 0.228365,0.228364 0.03807,0.03806 0.09011,0.066039 0.114173,0.1141824 0.01702,0.034043 -0.01702,0.08014 0,0.1141825 0.2376,0.4751983 -0.0079,-0.1220639 0.228365,0.1141825 0.02691,0.026912 -0.02691,0.087268 0,0.1141825 0.02691,0.026912 0.08727,-0.026912 0.114189,0 0.01104,0.011077 0,0.5273985 0,0.57091 0,0.2283639 0,0.4567281 0,0.685092 0,0.076121 0.01846,0.1545151 0,0.2283639 -0.02065,0.082565 -0.08258,0.1493446 -0.114189,0.2283642 -0.0447,0.1117494 -0.06036,0.2348941 -0.114189,0.3425459 -0.02408,0.048144 -0.08189,0.071122 -0.11419,0.1141825 -0.08233,0.1097832 -0.160273,0.2233972 -0.228363,0.3425459 -0.08445,0.1477866 -0.108014,0.3363696 -0.228365,0.456728 -0.08511,0.085106 -0.257439,0.029076 -0.342546,0.1141825 -0.08511,0.085106 -0.07612,0.2283641 -0.114189,0.3425461 -0.114189,0.076122 -0.24551,0.1313276 -0.342547,0.2283639 -0.120364,0.1203588 -0.126237,0.3205582 -0.228364,0.4567281 -0.493869,0.4938704 -0.01789,-0.030247 -0.342545,0.456728 -0.0969,0.145361 -0.351207,0.3160335 -0.456728,0.4567281 -0.05107,0.068085 -0.04337,0.1811555 -0.11419,0.228364 -0.06334,0.042225 -0.152241,0 -0.228363,0 -0.114189,0 -0.234223,-0.036107 -0.342546,0 -0.130186,0.043396 -0.232762,0.1460263 -0.342547,0.228364 -0.04305,0.032296 -0.06196,0.1011274 -0.114189,0.114182 -0.110776,0.027693 -0.234224,-0.036107 -0.342546,0 -0.130186,0.043396 -0.219804,0.16699301 -0.342547,0.228364 -0.03344,0.016743 -0.671243,0.21801376 -0.685043,0.22836341 -0.06809,0.0510637 -0.07612,0.15224274 -0.11419,0.22836401 -0.114172,0.11418198 -0.204079,0.25946643 -0.342545,0.34254604 -0.06528,0.03916417 -0.153714,-0.01492792 -0.228364,0 -0.118021,0.02360423 -0.223825,0.09439515 -0.342545,0.11418197 -0.112633,0.01877144 -0.230583,-0.02239289 -0.342548,0 -0.08345,0.01668996 -0.14441,0.10019062 -0.228363,0.11418198 -0.150166,0.0250286 -0.304486,0 -0.456728,0 -0.114189,0 -0.228364,0 -0.342546,0 -0.418668,0 -0.837334,0 -1.256002,0 -0.532849,0 -1.065699,0 -1.598548,0 -0.114189,0 -0.228364,0 -0.342546,0 -0.114189,0 -0.229918,-0.0187714 -0.342546,0 -0.118724,0.0197868 -0.224526,0.0905777 -0.342547,0.11418197 -0.127041,0.0254064 -0.42216,0 -0.570909,0 -0.380608,0 -0.761214,0 -1.14182,0 -0.190305,0 -0.380608,0 -0.570911,0 -0.07612,0 -0.160273,0.0340426 -0.228363,0 -0.03404,-0.0170213 0.02691,-0.087269 0,-0.11418197 -0.0571,-0.0570911 -0.285456,0.0570911 -0.342547,0 -0.02691,-0.0269129 0.02691,-0.087269 0,-0.11418198 -0.05383,-0.05382587 -0.174537,0.05382587 -0.228364,0 -0.02691,-0.02691293 0.02691,-0.08726904 0,-0.11418197 -0.02691,-0.02691293 -0.08014,0.01702128 -0.114189,0 -0.04814,-0.02407176 -0.07612,-0.07612137 -0.114189,-0.11418197 -0.114189,-0.0380606 -0.228365,-0.0761214 -0.342547,-0.11418198 z" id="path4925"/>
  </clipPath>
  <clipPath clipPathUnits="userSpaceOnUse" id="clipPath4929">
   <path inkscape:connector-curvature="0" style="fill:none;stroke:#000000;stroke-width:1.67334652px;stroke-linecap:butt;stroke-linejoin:miter;stroke-opacity:1" d="m -89.612032,-2.9943897 c -0.114189,-0.1522428 -0.228365,-0.3044855 -0.342546,-0.4567281 0,-0.03806 0.01702,-0.08014 0,-0.1141825 -0.02408,-0.048144 -0.06603,-0.09011 -0.114189,-0.1141824 -0.03404,-0.017021 -0.08727,0.026912 -0.114189,0 -0.02691,-0.026912 0.01205,-0.078075 0,-0.1141825 -0.02691,-0.080739 -0.06312,-0.1602782 -0.114189,-0.228364 -0.615981,-0.8213086 0.126789,0.2409673 -0.456727,-0.3425461 -0.02691,-0.026912 0.01702,-0.08014 0,-0.1141824 -0.06138,-0.1227417 -0.131324,-0.2455101 -0.228365,-0.3425461 -0.120364,-0.1203588 -0.336369,-0.1080062 -0.456728,-0.228364 -0.445622,-0.445622 0.02642,-0.061321 -0.114189,-0.3425461 -0.06851,-0.1370186 -0.274037,-0.2055276 -0.342548,-0.3425459 -0.01702,-0.034042 0.02691,-0.087268 0,-0.1141825 -0.02691,-0.026912 -0.08727,0.026912 -0.114172,0 -0.02691,-0.026912 0.02691,-0.087268 0,-0.1141824 -0.02691,-0.026912 -0.08727,0.026912 -0.114189,0 -0.03986,-0.039856 0.04739,-0.3188478 0,-0.342546 -0.06809,-0.034042 -0.160273,0.034043 -0.228363,0 -0.03014,-0.01506 0.02274,-0.160161 0,-0.2283641 -0.02691,-0.080739 -0.07612,-0.1522427 -0.11419,-0.2283639 -0.07612,-0.1522428 -0.133951,-0.3151027 -0.228365,-0.4567281 -0.02985,-0.044785 -0.09011,-0.066039 -0.114189,-0.1141824 -0.01702,-0.034043 0.01702,-0.08014 0,-0.1141825 -0.2376,-0.4751981 0.0079,0.1220639 -0.228365,-0.1141825 -0.02691,-0.026912 0,-0.076121 0,-0.1141825 -0.03807,-0.076121 -0.054,-0.1681849 -0.114189,-0.2283639 -0.02691,-0.026912 -0.08727,0.026912 -0.114189,0 -0.05383,-0.053827 0.03404,-0.1602798 0,-0.2283641 -0.02408,-0.048144 -0.09011,-0.066039 -0.114189,-0.1141825 -0.03738,-0.074768 0.03377,-0.4695812 0,-0.57091 -0.02691,-0.080739 -0.08727,-0.1476244 -0.114189,-0.228364 -0.02408,-0.072215 0.05383,-0.1745382 0,-0.2283641 -0.236247,-0.2362466 0.0092,0.3610161 -0.228364,-0.1141825 -0.03404,-0.068085 0.05383,-0.1745381 0,-0.2283639 -0.02691,-0.026912 -0.08727,0.026912 -0.114189,0 -0.02691,-0.026912 0.02691,-0.08727 0,-0.1141825 -0.05383,-0.053826 -0.174538,0.053826 -0.228363,0 -0.02691,-0.026912 0.02691,-0.087268 0,-0.1141825 -0.05383,-0.053826 -0.160273,0.034043 -0.228365,0 -0.04814,-0.024071 -0.07612,-0.076122 -0.114189,-0.1141825 -0.07612,-0.076122 -0.152241,-0.1522428 -0.228365,-0.2283638 -0.178066,-0.178066 -0.321015,-0.331781 -0.570911,-0.456728 -0.06809,-0.03404 -0.152241,0 -0.228363,0 -0.03807,0 -0.08727,0.02691 -0.114189,0 -0.06017,-0.06018 -0.054,-0.168185 -0.114173,-0.228364 -0.02691,-0.02691 -0.08014,0.01702 -0.114189,0 -0.04814,-0.02407 -0.06312,-0.09716 -0.114189,-0.114183 -0.07222,-0.02407 -0.160273,0.03404 -0.228363,0 -0.03404,-0.01702 0,-0.07612 0,-0.114182 -0.07612,-0.03806 -0.147623,-0.08727 -0.228365,-0.114183 -0.03611,-0.01203 -0.07612,0 -0.114189,0 -0.11419,-0.03806 -0.230797,-0.06948 -0.342548,-0.114182 -0.158031,-0.06322 -0.291597,-0.187081 -0.456726,-0.228364 -0.07384,-0.01846 -0.160274,0.03404 -0.228365,0 -0.03404,-0.01702 0.03611,-0.102146 0,-0.114183 -0.108316,-0.03611 -0.231774,0.02769 -0.342546,0 -0.104434,-0.02611 -0.132077,-0.18022 -0.228365,-0.228364 -0.157495,-0.07875 -0.102124,0.138281 -0.228363,-0.114182 -0.01702,-0.03404 0.02691,-0.08727 0,-0.114183 -0.03763,-0.03764 -0.3741,0.02754 -0.456729,0 -0.05107,-0.01702 -0.06603,-0.09011 -0.114189,-0.114182 -0.03404,-0.01702 -0.07612,0 -0.114189,0 -0.07612,0 -0.156157,0.02407 -0.228365,0 -0.05107,-0.01702 -0.06196,-0.101127 -0.114172,-0.114183 -0.110776,-0.02769 -0.228365,0 -0.342548,0 -0.114189,0 -0.228363,0 -0.342548,0 -0.0381,0 -0.0773,0.0092 -0.11419,0 -0.11676,-0.02919 -0.22682,-0.08112 -0.34254,-0.114182 -0.15089,-0.04311 -0.3098,-0.05908 -0.45673,-0.114183 -0.56438,-0.28219 -0.29525,-0.174538 -0.79928,-0.342545 -0.11419,-0.03806 -0.23079,-0.06948 -0.34254,-0.114183 -0.079,-0.03161 -0.14441,-0.10019 -0.22837,-0.114182 -0.15016,-0.02503 -0.30448,0 -0.45672,0 -0.15224,0 -0.30449,0 -0.45673,0 -0.11419,0 -0.23178,0.02769 -0.34255,0 -0.0522,-0.01305 -0.0631,-0.09716 -0.11419,-0.114183 -0.0523,-0.01742 -0.50717,0 -0.57091,0 -0.41866,0 -0.83733,0 -1.256,0 -0.72315,0 -1.4463,0 -2.16946,0 -0.1903,0 -0.3806,0 -0.57091,0 -0.11419,0 -0.22992,-0.01877 -0.34254,0 -0.11873,0.01979 -0.2234,0.09716 -0.34255,0.114183 -0.15072,0.02153 -0.30448,0 -0.45673,0 -0.0761,0 -0.15614,-0.02407 -0.22836,0 -0.0511,0.01702 -0.0631,0.09716 -0.11419,0.114182 -0.0722,0.02407 -0.15224,0 -0.22836,0 -0.0761,0 -0.15224,0 -0.22837,0 -0.0967,0 -0.39534,-0.02046 -0.45673,0 -0.0511,0.01702 -0.0631,0.09716 -0.11419,0.114183 -0.43512,0.145042 -0.0195,-0.253404 -0.5709,0.114182 -0.0317,0.02111 0,0.07612 0,0.114182 -0.0381,0.03806 -0.066,0.09011 -0.11419,0.114183 -0.0681,0.03404 -0.15616,-0.02407 -0.22837,0 -0.0761,0.03806 -0.15224,0.07612 -0.22836,0.114182 0,0.03806 0.0269,0.08727 0,0.114183 -0.0602,0.06018 -0.15755,0.06697 -0.22836,0.114182 -0.0448,0.02986 -0.0631,0.09716 -0.11419,0.114183 -0.0722,0.02407 -0.15614,-0.02407 -0.22837,0 -0.22721,0.07574 -0.0533,0.10657 -0.11419,0.228364 -0.0241,0.04814 -0.0843,0.0694 -0.11419,0.114182 -0.0472,0.07081 -0.067,0.157551 -0.11418,0.228364 -0.0299,0.04479 -0.0901,0.06604 -0.11419,0.114183 -0.034,0.06808 0.034,0.160278 0,0.228364 -0.0241,0.04814 -0.0761,0.07612 -0.11419,0.114182 -0.0381,0.03806 -0.0694,0.08432 -0.11419,0.114183 -0.0708,0.04721 -0.1773,0.0461 -0.22837,0.114182 -0.13825,0.184339 -0.11418,0.36792 -0.11418,0.57091 0,0.07612 0,0.152243 0,0.228364 0,0.03806 0.0361,0.1021465 0,0.1141828 -0.10832,0.036107 -0.2512,-0.068509 -0.34255,0 -0.0963,0.072215 -0.0695,0.230796 -0.11419,0.3425461 -0.0316,0.079019 -0.067,0.1575506 -0.11417,0.228364 -0.12433,0.1864829 -0.16923,0.046872 -0.22837,0.3425461 0,0.1141824 0,0.2283639 0,0.3425459 -0.0381,0.03806 -0.0971,0.063119 -0.11419,0.1141825 -0.0195,0.058448 0,0.6034621 0,0.6850921 0,0.03806 0.017,0.08014 0,0.1141825 -0.0241,0.048144 -0.0901,0.066039 -0.11419,0.1141825 -0.017,0.034043 0,0.076122 0,0.1141825 0,0.2664247 0,0.5328494 0,0.7992741 0,0.076122 0,0.1522428 0,0.228364 0,0.076121 -0.034,0.1602781 0,0.2283641 0.017,0.034042 0.0801,-0.017021 0.11419,0 0.0482,0.024071 0.0901,0.066039 0.11419,0.1141825 0.034,0.068085 -0.034,0.1602798 0,0.2283639 0.0614,0.1227416 0.15777,0.2248725 0.22837,0.3425461 0.13515,0.225254 0.13211,0.3604815 0.34254,0.57091 0.0602,0.060179 0.16819,0.054002 0.22837,0.1141825 0.17232,0.1723271 0.2695,0.4148926 0.45673,0.57091 0.0585,0.048731 0.15451,-0.018462 0.22836,0 0.0826,0.020641 0.16027,0.063119 0.22836,0.1141825 0.17225,0.1291824 0.28861,0.322229 0.45673,0.4567281 0.10716,0.085727 0.22836,0.1522427 0.34255,0.2283641 0.11419,0.07612 0.21641,0.1743065 0.34254,0.2283639 0.81108,0.3476041 0.16374,0.00991 0.68509,0.1141825 0.41041,0.082081 0.72899,0.3879227 1.14183,0.4567281 0.11263,0.018772 0.22836,0 0.34254,0 0.1903,0 0.38061,0 0.57091,0 0.0381,0 0.0766,-0.00626 0.11419,0 0.19143,0.031906 0.38542,0.057108 0.57091,0.1141824 0.73223,0.2253011 0.81118,0.3894099 1.48437,0.4567281 0.45446,0.045446 0.91461,-0.03254 1.37018,0 0.26845,0.019175 0.53083,0.095008 0.79927,0.1141825 0.26575,0.018982 0.53377,-0.022125 0.79928,0 0.1934,0.016114 0.3778,0.094872 0.57091,0.1141825 0.18936,0.018935 0.38061,0 0.57091,0 0.64703,0 1.29406,0 1.94109,0 0.38061,0 0.761216,0 1.141824,0 0.148677,0 0.570661,0.022886 0.685091,0 0.08345,-0.016683 0.145799,-0.09354 0.228363,-0.1141825 0.07384,-0.018462 0.152242,0 0.228365,0 0.11685,0 0.819109,0.023588 0.913457,0 0.165126,-0.041283 0.29525,-0.1745381 0.456726,-0.228364 0.0618,-0.020599 0.41783,0 0.456729,0 0.304485,0 0.608971,0 0.913456,0 0.165126,0 0.678699,0.024115 0.799274,0 0.911335,-0.1822671 -0.834889,-0.1141824 0.685092,-0.1141824 0.228365,0 0.456728,0 0.685093,0 0.07612,0 0.152241,0 0.228363,0 0.03807,0 0.08014,0.017021 0.114189,0 0.04814,-0.024071 0.06603,-0.09011 0.114189,-0.1141825 0.02559,-0.012801 0.429595,0 0.456729,0 0.418666,0 0.837334,0 1.256,0 0.139741,0 0.455072,0.00497 0.456728,0 0.03611,-0.1083224 0.03611,-0.2342234 0,-0.3425459 -0.01205,-0.036107 -0.08727,0.026912 -0.114172,0 -0.02691,-0.026912 -0.02691,-0.087268 0,-0.1141825 0.0045,-0.0046 0.414796,0 0.456727,0 0.03807,0 0.08014,0.017021 0.114189,0 0.04814,-0.024071 0.06036,-0.1141825 0.114189,-0.1141825 0.156926,0 0.304485,0.076122 0.456728,0.1141825 z" id="path4931"/>
  </clipPath>
  <clipPath clipPathUnits="userSpaceOnUse" id="clipPath4937">
   <path inkscape:connector-curvature="0" style="fill:none;stroke:#000000;stroke-width:0.33466932;stroke-linecap:butt;stroke-linejoin:miter;stroke-miterlimit:4;stroke-dasharray:none;stroke-opacity:1" d="m -106.60726,-13.805544 3.31029,2.502905 9.527187,2.5029055 1.937734,3.7139881 -15.178911,2.7451217 -9.28497,-6.2976321 z" id="path4939"/>
  </clipPath>
  <clipPath clipPathUnits="userSpaceOnUse" id="clipPath5191">
   <path inkscape:connector-curvature="0" style="fill:none;stroke:#000000;stroke-width:1px;stroke-linecap:butt;stroke-linejoin:miter;stroke-opacity:1" d="M -69.327492,0.81882864 -46.127346,24.018974 -43.05674,8.3247579 V -2.7294289 Z" id="path5193"/>
  </clipPath>
  <clipPath clipPathUnits="userSpaceOnUse" id="clipPath5742">
   <path inkscape:connector-curvature="0" style="fill:none;stroke:#000000;stroke-width:1px;stroke-linecap:butt;stroke-linejoin:miter;stroke-opacity:1" d="m -74.513412,-4.640029 24.974273,24.974273 V -4.640029 Z" id="path5744"/>
  </clipPath>
  <clipPath clipPathUnits="userSpaceOnUse" id="clipPath5785">
   <rect height="11.156541" ry="0.83432478" x="-29.375477" transform="rotate(45)" style="fill:#333333;fill-opacity:1;stroke:none;stroke-width:0.22472635;stroke-miterlimit:4;stroke-dasharray:none;stroke-opacity:1" y="42.647324" width="20.811895" id="rect5787"/>
  </clipPath>
  <clipPath clipPathUnits="userSpaceOnUse" id="clipPath5799">
   <rect height="29.357262" ry="5.8891525" x="-89.513351" transform="rotate(-45)" style="fill:#333333;fill-opacity:1;stroke:none;stroke-width:0.25457799;stroke-miterlimit:4;stroke-dasharray:none;stroke-opacity:1" y="7.8397613" width="29.725763" id="rect5801"/>
  </clipPath>
  <clipPath clipPathUnits="userSpaceOnUse" id="clipPath5799-1">
   <rect height="29.357262" ry="5.8891525" x="-89.513351" transform="rotate(-45)" style="fill:#333333;fill-opacity:1;stroke:none;stroke-width:0.25457799;stroke-miterlimit:4;stroke-dasharray:none;stroke-opacity:1" y="7.8397613" width="29.725763" id="rect5801-2"/>
  </clipPath>
  <clipPath clipPathUnits="userSpaceOnUse" id="clipPath1540">
   <rect height="15.511255" ry="1.1256225" x="75.154999" transform="rotate(90)" style="fill:none;fill-opacity:1;stroke:#000000;stroke-width:0.08992032;stroke-miterlimit:4;stroke-dasharray:none;stroke-opacity:1" y="24.288628" width="23.604084" id="rect1542"/>
  </clipPath>
  <clipPath clipPathUnits="userSpaceOnUse" id="clipPath1119">
   <rect ry="1.5809379" height="20.326616" x="330.99872" style="opacity:0.51099997;fill:none;fill-opacity:1;stroke:#000000;stroke-width:0.42558613;stroke-miterlimit:4;stroke-dasharray:none;stroke-dashoffset:0;stroke-opacity:1" y="74.346153" rx="2.6286676" width="20.003973" id="rect1121"/>
  </clipPath>
  <clipPath clipPathUnits="userSpaceOnUse" id="clipPath3321">
   <rect height="20.326616" ry="1.5809379" x="753.90729" style="opacity:0.51099997;fill:none;fill-opacity:1;stroke:#000000;stroke-width:0.42558613;stroke-miterlimit:4;stroke-dasharray:none;stroke-dashoffset:0;stroke-opacity:1" y="386.0423" rx="2.6286676" width="20.003973" id="rect3323"/>
  </clipPath>
  <clipPath clipPathUnits="userSpaceOnUse" id="clipPath4719-1">
   <rect height="42.942448" ry="0.40744901" x="-34.546959" style="fill:#000000;fill-opacity:1;stroke:#000000" y="25.718069" rx="2.47085" width="8.8779888" id="rect4721-4"/>
  </clipPath>
  <clipPath clipPathUnits="userSpaceOnUse" id="clipPath5350">
   <rect height="42.942448" ry="0.40744901" x="-34.546959" style="fill:#000000;fill-opacity:1;stroke:#000000" y="25.718069" rx="2.47085" width="8.8779888" id="rect5348"/>
  </clipPath>
 </defs>
 <path inkscape:connector-curvature="0" style="fill:#d4aa00;fill-opacity:1;stroke:#333333;stroke-width:3.52751255;stroke-miterlimit:4;stroke-dasharray:none;stroke-dashoffset:0;stroke-opacity:1" d="M 54.766285,1.7637567 72.342855,32.207276 54.766305,62.650755 H 19.61316 L 2.0366102,32.207259 19.61317,1.7637727 Z" id="path3524"/>
 <g transform="matrix(0.1604363,0,0,-0.1604363,7.6863802,67.827775)" style="fill:#333333" id="g3746">
  <g transform="translate(260.97199,179.47664)" style="fill:#333333" id="g3528">
   <path inkscape:connector-curvature="0" style="fill:#333333;fill-opacity:1;fill-rule:nonzero;stroke:none" d="m 0,0 c -6.703,0.472 -12.735,-2.586 -16.02,-7.485 2.667,-5.313 8.282,-9.187 14.979,-9.655 6.703,-0.469 12.735,2.588 16.017,7.483 C 12.312,-4.347 6.694,-0.464 0,0" id="path3526"/>
  </g>
  <g transform="translate(264.78589,202.14844)" style="fill:#333333" id="g3532">
   <path inkscape:connector-curvature="0" style="fill:#333333;fill-opacity:1;fill-rule:nonzero;stroke:none" d="m 0,0 c -6.525,-1.73 -11.421,-6.604 -13.185,-12.345 4.029,-4.2 10.466,-6.067 16.985,-4.337 6.519,1.73 11.418,6.609 13.179,12.343 C 12.954,-0.144 6.513,1.73 0,0" id="path3530"/>
  </g>
  <g transform="translate(274.85579,224.33594)" style="fill:#333333" id="g3536">
   <path inkscape:connector-curvature="0" style="fill:#333333;fill-opacity:1;fill-rule:nonzero;stroke:none" d="m 0,0 c -5.995,-3.267 -9.748,-9.206 -10.265,-15.227 4.799,-3.116 11.461,-3.372 17.452,-0.104 5.992,3.267 9.745,9.209 10.264,15.224 C 12.655,3.004 5.989,3.266 0,0" id="path3534"/>
  </g>
  <g transform="translate(278.85869,250.00734)" style="fill:#333333" id="g3540">
   <path inkscape:connector-curvature="0" style="fill:#333333;fill-opacity:1;fill-rule:nonzero;stroke:none" d="m 0,0 c -5.417,-4.278 -8.218,-10.801 -7.814,-16.832 5.209,-2.224 11.819,-1.302 17.233,2.978 5.414,4.283 8.217,10.805 7.813,16.83 C 12.027,5.201 5.413,4.282 0,0" id="path3538"/>
  </g>
  <g transform="translate(277.76399,260.58504)" style="fill:#333333" id="g3544">
   <path inkscape:connector-curvature="0" style="fill:#333333;fill-opacity:1;fill-rule:nonzero;stroke:none" d="m 0,0 c 5.523,-0.999 11.81,1.395 16.272,6.799 4.463,5.41 5.938,12.42 4.375,18.221 C 15.123,26.018 8.833,23.631 4.376,18.224 -0.094,12.813 -1.565,5.805 0,0" id="path3542"/>
  </g>
  <g transform="translate(271.04279,298.10454)" style="fill:#333333" id="g3548">
   <path inkscape:connector-curvature="0" style="fill:#333333;fill-opacity:1;fill-rule:nonzero;stroke:none" d="m 0,0 c -3.901,-5.895 -4.667,-13.036 -2.527,-18.626 5.59,-0.351 11.601,2.758 15.498,8.655 C 16.867,-4.078 17.63,3.063 15.495,8.65 9.907,9.001 3.89,5.894 0,0" id="path3546"/>
  </g>
  <g transform="translate(266.27519,301.99364)" style="fill:#333333" id="g3552">
   <path inkscape:connector-curvature="0" style="fill:#333333;fill-opacity:1;fill-rule:nonzero;stroke:none" d="m 0,0 c 5.528,0.975 10.761,5.428 13.368,12.099 2.605,6.672 1.903,13.819 -1.312,18.767 C 6.529,29.892 1.291,25.44 -1.313,18.771 -3.924,12.098 -3.222,4.951 0,0" id="path3550"/>
  </g>
  <g transform="translate(267.23809,333.36824)" style="fill:#333333" id="g3556">
   <path inkscape:connector-curvature="0" style="fill:#333333;fill-opacity:1;fill-rule:nonzero;stroke:none" d="m 0,0 c 1.538,7.043 -0.26,13.965 -4.196,18.265 -5.3,-1.955 -9.776,-7.284 -11.314,-14.327 -1.54,-7.049 0.26,-13.97 4.202,-18.272 C -6.01,-12.381 -1.54,-7.05 0,0" id="path3554"/>
  </g>
  <g transform="translate(250.17219,344.66164)" style="fill:#333333" id="g3560">
   <path inkscape:connector-curvature="0" style="fill:#333333;fill-opacity:1;fill-rule:nonzero;stroke:none" d="m 0,0 c 1.089,7.142 -1.14,13.916 -5.339,17.917 -5.164,-2.34 -9.293,-7.984 -10.382,-15.125 -1.093,-7.146 1.137,-13.917 5.342,-17.92 C -5.215,-12.79 -1.093,-7.146 0,0" id="path3558"/>
  </g>
  <g transform="translate(217.67749,332.77644)" style="fill:#333333" id="g3564">
   <path inkscape:connector-curvature="0" style="fill:#333333;fill-opacity:1;fill-rule:nonzero;stroke:none" d="M 0,0 C 4.849,3.022 8.283,9.183 8.53,16.42 8.776,23.652 5.77,30.069 1.138,33.466 -3.711,30.445 -7.149,24.284 -7.394,17.052 -7.643,9.815 -4.64,3.4 0,0" id="path3562"/>
  </g>
  <g transform="translate(194.49979,332.77644)" style="fill:#333333" id="g3568">
   <path inkscape:connector-curvature="0" style="fill:#333333;fill-opacity:1;fill-rule:nonzero;stroke:none" d="M 0,0 C 4.847,3.022 8.28,9.183 8.528,16.42 8.776,23.652 5.77,30.069 1.137,33.466 -3.712,30.445 -7.149,24.284 -7.396,17.052 -7.643,9.815 -4.64,3.4 0,0" id="path3566"/>
  </g>
  <g transform="translate(169.49689,335.49714)" style="fill:#333333" id="g3572">
   <path inkscape:connector-curvature="0" style="fill:#333333;fill-opacity:1;fill-rule:nonzero;stroke:none" d="M 0,0 C 4.569,3.492 7.457,9.97 7.082,17.201 6.707,24.427 3.165,30.515 -1.74,33.437 -6.312,29.943 -9.203,23.468 -8.829,16.241 -8.453,9.009 -4.91,2.923 0,0" id="path3570"/>
  </g>
  <g transform="translate(247.76839,227.73934)" style="fill:#333333" id="g3576">
   <path inkscape:connector-curvature="0" style="fill:#333333;fill-opacity:1;fill-rule:nonzero;stroke:none" d="m 0,0 c -6.622,-1.21 -11.836,-5.687 -13.979,-11.275 3.731,-4.502 10.025,-6.874 16.644,-5.659 6.621,1.209 11.832,5.69 13.977,11.271 C 12.913,-1.159 6.615,1.217 0,0" id="path3574"/>
  </g>
  <g transform="translate(270.01979,248.28274)" style="fill:#333333" id="g3580">
   <path inkscape:connector-curvature="0" style="fill:#333333;fill-opacity:1;fill-rule:nonzero;stroke:none" d="m 0,0 c -4.73,3.232 -11.388,3.663 -17.445,0.543 -6.059,-3.117 -9.939,-8.961 -10.587,-14.967 4.732,-3.234 11.389,-3.658 17.447,-0.535 C -4.527,-11.845 -0.647,-6 0,0" id="path3578"/>
  </g>
  <g transform="translate(274.60529,274.32814)" style="fill:#333333" id="g3584">
   <path inkscape:connector-curvature="0" style="fill:#333333;fill-opacity:1;fill-rule:nonzero;stroke:none" d="m 0,0 c -5.318,1.886 -11.874,0.543 -17.034,-4.08 -5.171,-4.622 -7.604,-11.315 -6.865,-17.308 5.322,-1.882 11.87,-0.536 17.036,4.088 C -1.696,-12.678 0.735,-5.984 0,0" id="path3582"/>
  </g>
  <g transform="translate(218.02519,205.21294)" style="fill:#333333" id="g3588">
   <path inkscape:connector-curvature="0" style="fill:#333333;fill-opacity:1;fill-rule:nonzero;stroke:none" d="m 0,0 c 0.761,5.979 -1.645,12.69 -6.794,17.332 -5.145,4.649 -11.69,6.024 -17.024,4.163 C -24.581,15.51 -22.17,8.807 -17.021,4.162 -11.875,-0.485 -5.331,-1.857 0,0" id="path3586"/>
  </g>
  <g transform="translate(223.68049,228.39064)" style="fill:#333333" id="g3592">
   <path inkscape:connector-curvature="0" style="fill:#333333;fill-opacity:1;fill-rule:nonzero;stroke:none" d="m 0,0 c 0.735,5.983 -1.697,12.681 -6.865,17.299 -5.167,4.619 -11.719,5.967 -17.045,4.076 C -24.645,15.39 -22.207,8.696 -17.039,4.078 -11.872,-0.543 -5.326,-1.886 0,0" id="path3590"/>
  </g>
  <g transform="translate(226.18779,264.77154)" style="fill:#333333" id="g3596">
   <path inkscape:connector-curvature="0" style="fill:#333333;fill-opacity:1;fill-rule:nonzero;stroke:none" d="m 0,0 c -3.454,6.21 -9.22,9.824 -14.826,9.948 -2.533,-5.385 -2.295,-12.572 1.158,-18.776 3.452,-6.211 9.215,-9.821 14.817,-9.948 C 3.686,-13.392 3.452,-6.205 0,0" id="path3594"/>
  </g>
  <g transform="translate(235.30299,265.04394)" style="fill:#333333" id="g3600">
   <path inkscape:connector-curvature="0" style="fill:#333333;fill-opacity:1;fill-rule:nonzero;stroke:none" d="M 0,0 C 4.107,4.106 6.187,10.938 4.935,18.05 3.685,25.162 -0.569,30.699 -5.792,32.9 -9.896,28.791 -11.974,21.96 -10.721,14.85 -9.47,7.737 -5.216,2.203 0,0" id="path3598"/>
  </g>
  <g transform="translate(261.82109,284.41214)" style="fill:#333333" id="g3604">
   <path inkscape:connector-curvature="0" style="fill:#333333;fill-opacity:1;fill-rule:nonzero;stroke:none" d="M 0,0 C 2.477,6.729 1.636,13.864 -1.683,18.736 -7.188,17.635 -12.335,13.064 -14.808,6.334 -17.284,-0.393 -16.438,-7.523 -13.129,-12.395 -7.621,-11.293 -2.471,-6.729 0,0" id="path3602"/>
  </g>
  <g transform="translate(175.03149,235.60164)" style="fill:#333333" id="g3608">
   <path inkscape:connector-curvature="0" style="fill:#333333;fill-opacity:1;fill-rule:nonzero;stroke:none" d="M 0,0 C 3.512,6.17 3.821,13.354 1.331,18.772 -4.272,18.708 -10.07,15.159 -13.58,8.989 -17.092,2.821 -17.397,-4.358 -14.914,-9.775 -9.313,-9.71 -3.51,-6.167 0,0" id="path3606"/>
  </g>
  <g transform="translate(181.09009,253.96044)" style="fill:#333333" id="g3612">
   <path inkscape:connector-curvature="0" style="fill:#333333;fill-opacity:1;fill-rule:nonzero;stroke:none" d="m 0,0 c 1.178,-7.127 5.374,-12.71 10.566,-14.976 4.149,4.056 6.301,10.862 5.123,17.985 C 14.511,10.136 10.315,15.725 5.115,17.991 0.969,13.93 -1.177,7.125 0,0" id="path3610"/>
  </g>
  <g transform="translate(158.68779,289.40824)" style="fill:#333333" id="g3616">
   <path inkscape:connector-curvature="0" style="fill:#333333;fill-opacity:1;fill-rule:nonzero;stroke:none" d="M 0,0 C 0.506,7.216 -2.267,13.757 -6.78,17.348 -11.731,14.53 -15.382,8.516 -15.889,1.299 -16.396,-5.918 -13.624,-12.453 -9.12,-16.045 -4.165,-13.229 -0.506,-7.219 0,0" id="path3614"/>
  </g>
  <g transform="translate(100.97049,214.44634)" style="fill:#333333" id="g3620">
   <path inkscape:connector-curvature="0" style="fill:#333333;fill-opacity:1;fill-rule:nonzero;stroke:none" d="M 0,0 C 5.593,-4.003 12.234,-4.588 17.344,-2.108 17.485,3.93 14.409,10.31 8.817,14.312 3.228,18.314 -3.422,18.903 -8.533,16.416 -8.673,10.378 -5.591,4.004 0,0" id="path3618"/>
  </g>
  <g transform="translate(95.792794,249.45174)" style="fill:#333333" id="g3624">
   <path inkscape:connector-curvature="0" style="fill:#333333;fill-opacity:1;fill-rule:nonzero;stroke:none" d="m 0,0 c 1.414,-7.08 5.789,-12.492 11.053,-14.561 4.012,4.215 5.937,11.099 4.524,18.173 C 14.166,10.688 9.783,16.112 4.512,18.176 0.505,13.962 -1.416,7.075 0,0" id="path3622"/>
  </g>
  <g transform="translate(105.86889,271.00934)" style="fill:#333333" id="g3628">
   <path inkscape:connector-curvature="0" style="fill:#333333;fill-opacity:1;fill-rule:nonzero;stroke:none" d="m 0,0 c 3.045,-6.45 8.564,-10.476 14.144,-11.026 2.873,5.184 3.101,12.37 0.057,18.818 C 11.157,14.242 5.635,18.278 0.049,18.819 -2.826,13.636 -3.046,6.453 0,0" id="path3626"/>
  </g>
  <g transform="translate(134.43729,300.03274)" style="fill:#333333" id="g3632">
   <path inkscape:connector-curvature="0" style="fill:#333333;fill-opacity:1;fill-rule:nonzero;stroke:none" d="M 0,0 C 5.282,2.018 9.701,7.4 11.167,14.463 12.627,21.526 10.757,28.43 6.771,32.684 1.495,30.663 -2.921,25.275 -4.388,18.211 -5.851,11.146 -3.975,4.253 0,0" id="path3630"/>
  </g>
  <g transform="translate(119.32889,314.86574)" style="fill:#333333" id="g3636">
   <path inkscape:connector-curvature="0" style="fill:#333333;fill-opacity:1;fill-rule:nonzero;stroke:none" d="m 0,0 c -4.266,-3.911 -6.619,-10.637 -5.664,-17.802 0.959,-7.163 4.984,-12.889 10.1,-15.343 4.272,3.91 6.631,10.633 5.675,17.796 C 9.152,-8.186 5.127,-2.449 0,0" id="path3634"/>
  </g>
  <g transform="translate(109.86749,311.40044)" style="fill:#333333" id="g3640">
   <path inkscape:connector-curvature="0" style="fill:#333333;fill-opacity:1;fill-rule:nonzero;stroke:none" d="M 0,0 C 4.018,4.209 5.956,11.088 4.557,18.167 3.155,25.244 -1.215,30.679 -6.48,32.755 -10.498,28.545 -12.43,21.664 -11.029,14.585 -9.628,7.507 -5.259,2.083 0,0" id="path3638"/>
  </g>
  <g transform="translate(126.67849,326.81304)" style="fill:#333333" id="g3644">
   <path inkscape:connector-curvature="0" style="fill:#333333;fill-opacity:1;fill-rule:nonzero;stroke:none" d="M 0,0 C 4.288,3.892 6.67,10.606 5.744,17.773 4.812,24.941 0.812,30.694 -4.307,33.168 -8.588,29.278 -10.97,22.562 -10.039,15.392 -9.109,8.226 -5.108,2.48 0,0" id="path3642"/>
  </g>
  <g transform="translate(145.75519,338.17484)" style="fill:#333333" id="g3648">
   <path inkscape:connector-curvature="0" style="fill:#333333;fill-opacity:1;fill-rule:nonzero;stroke:none" d="M 0,0 C 4.492,3.613 7.241,10.165 6.703,17.378 6.16,24.591 2.481,30.59 -2.493,33.383 -6.978,29.769 -9.722,23.215 -9.181,16 -8.642,8.786 -4.96,2.797 0,0" id="path3646"/>
  </g>
  <g transform="translate(151.72099,320.29694)" style="fill:#333333" id="g3652">
   <path inkscape:connector-curvature="0" style="fill:#333333;fill-opacity:1;fill-rule:nonzero;stroke:none" d="m 0,0 c 1.857,-6.956 6.568,-12.037 11.95,-13.715 3.736,4.501 5.22,11.51 3.366,18.466 C 13.457,11.707 8.744,16.797 3.355,18.469 -0.377,13.967 -1.854,6.957 0,0" id="path3650"/>
  </g>
  <g transform="translate(174.74389,316.38534)" style="fill:#333333" id="g3656">
   <path inkscape:connector-curvature="0" style="fill:#333333;fill-opacity:1;fill-rule:nonzero;stroke:none" d="M 0,0 C 2.46,-6.734 7.595,-11.313 13.1,-12.434 16.425,-7.57 17.287,-0.441 14.829,6.292 12.371,13.029 7.229,17.614 1.718,18.729 -1.601,13.866 -2.458,6.736 0,0" id="path3654"/>
  </g>
  <g transform="translate(195.89919,320.03864)" style="fill:#333333" id="g3660">
   <path inkscape:connector-curvature="0" style="fill:#333333;fill-opacity:1;fill-rule:nonzero;stroke:none" d="m 0,0 c -0.502,-7.215 2.276,-13.746 6.781,-17.338 4.954,2.822 8.608,8.836 9.112,16.053 0.5,7.22 -2.277,13.759 -6.792,17.346 C 4.152,13.241 0.504,7.22 0,0" id="path3658"/>
  </g>
  <g transform="translate(218.70439,322.98494)" style="fill:#333333" id="g3664">
   <path inkscape:connector-curvature="0" style="fill:#333333;fill-opacity:1;fill-rule:nonzero;stroke:none" d="m 0,0 c -0.86,-7.178 1.59,-13.857 5.911,-17.706 5.084,2.532 9.032,8.327 9.893,15.507 C 16.665,4.979 14.213,11.668 9.883,15.513 4.801,12.982 0.858,7.18 0,0" id="path3662"/>
  </g>
  <g transform="translate(170.57009,307.97024)" style="fill:#333333" id="g3668">
   <path inkscape:connector-curvature="0" style="fill:#333333;fill-opacity:1;fill-rule:nonzero;stroke:none" d="m 0,0 c -3.83,-4.41 -5.456,-11.378 -3.75,-18.377 1.707,-7 6.311,-12.2 11.654,-14.011 3.828,4.408 5.467,11.378 3.759,18.377 C 9.955,-7.013 5.353,-1.806 0,0" id="path3666"/>
  </g>
  <g transform="translate(191.92359,299.00154)" style="fill:#333333" id="g3672">
   <path inkscape:connector-curvature="0" style="fill:#333333;fill-opacity:1;fill-rule:nonzero;stroke:none" d="m 0,0 c -3.344,-4.846 -4.232,-11.968 -1.805,-18.715 2.425,-6.75 7.542,-11.36 13.042,-12.506 3.344,4.842 4.245,11.969 1.815,18.713 C 10.624,-5.758 5.509,-1.145 0,0" id="path3670"/>
  </g>
  <g transform="translate(215.48169,278.03474)" style="fill:#333333" id="g3676">
   <path inkscape:connector-curvature="0" style="fill:#333333;fill-opacity:1;fill-rule:nonzero;stroke:none" d="M 0,0 C 4.494,3.6 7.254,10.146 6.727,17.361 6.199,24.575 2.529,30.58 -2.438,33.384 -6.934,29.781 -9.687,23.232 -9.159,16.017 -8.633,8.8 -4.963,2.803 0,0" id="path3674"/>
  </g>
  <g transform="translate(245.11549,325.90674)" style="fill:#333333" id="g3680">
   <path inkscape:connector-curvature="0" style="fill:#333333;fill-opacity:1;fill-rule:nonzero;stroke:none" d="m 0,0 c -5.138,-2.405 -9.203,-8.104 -10.211,-15.258 -1.018,-7.155 1.292,-13.9 5.531,-17.848 5.135,2.403 9.208,8.098 10.218,15.253 C 6.55,-10.697 4.249,-3.95 0,0" id="path3678"/>
  </g>
  <g transform="translate(167.60329,260.31204)" style="fill:#333333" id="g3684">
   <path inkscape:connector-curvature="0" style="fill:#333333;fill-opacity:1;fill-rule:nonzero;stroke:none" d="M 0,0 C 2.25,6.819 1.175,13.916 -2.298,18.662 -7.766,17.348 -12.758,12.584 -15.009,5.766 -17.261,-1.051 -16.184,-8.147 -12.714,-12.889 -7.249,-11.58 -2.25,-6.819 0,0" id="path3682"/>
  </g>
  <g transform="translate(180.40999,211.44924)" style="fill:#333333" id="g3688">
   <path inkscape:connector-curvature="0" style="fill:#333333;fill-opacity:1;fill-rule:nonzero;stroke:none" d="M 0,0 C 5.901,3.45 9.498,9.507 9.851,15.543 4.969,18.503 -1.698,18.556 -7.596,15.102 -13.497,11.651 -17.09,5.597 -17.449,-0.432 -12.568,-3.396 -5.9,-3.454 0,0" id="path3686"/>
  </g>
  <g transform="translate(150.65799,214.09574)" style="fill:#333333" id="g3692">
   <path inkscape:connector-curvature="0" style="fill:#333333;fill-opacity:1;fill-rule:nonzero;stroke:none" d="M 0,0 C -1.654,5.771 -6.46,10.752 -12.945,12.62 -19.428,14.495 -25.9,12.765 -30.006,8.655 -28.353,2.886 -23.551,-2.104 -17.068,-3.973 -10.581,-5.846 -4.106,-4.117 0,0" id="path3690"/>
  </g>
  <g transform="translate(130.99199,179.41804)" style="fill:#333333" id="g3696">
   <path inkscape:connector-curvature="0" style="fill:#333333;fill-opacity:1;fill-rule:nonzero;stroke:none" d="m 0,0 c -6.645,-1.021 -11.967,-5.348 -14.248,-10.863 3.618,-4.609 9.851,-7.167 16.495,-6.146 6.647,1.021 11.974,5.349 14.255,10.874 C 12.88,-1.525 6.648,1.023 0,0" id="path3694"/>
  </g>
  <g transform="translate(125.50029,182.02154)" style="fill:#333333" id="g3700">
   <path inkscape:connector-curvature="0" style="fill:#333333;fill-opacity:1;fill-rule:nonzero;stroke:none" d="m 0,0 c -2.806,5.226 -8.52,8.928 -15.228,9.192 -6.709,0.263 -12.66,-2.98 -15.814,-7.971 2.806,-5.227 8.517,-8.937 15.228,-9.2 C -9.108,-8.243 -3.151,-5 0,0" id="path3698"/>
  </g>
  <g transform="translate(105.34309,196.53814)" style="fill:#333333" id="g3704">
   <path inkscape:connector-curvature="0" style="fill:#333333;fill-opacity:1;fill-rule:nonzero;stroke:none" d="m 0,0 c -1.086,5.925 -5.386,11.422 -11.654,14.009 -6.268,2.588 -12.871,1.596 -17.352,-2.03 1.087,-5.925 5.381,-11.425 11.648,-14.013 C -11.09,-4.624 -4.483,-3.633 0,0" id="path3702"/>
  </g>
  <g transform="translate(91.673094,214.61524)" style="fill:#333333" id="g3708">
   <path inkscape:connector-curvature="0" style="fill:#333333;fill-opacity:1;fill-rule:nonzero;stroke:none" d="m 0,0 c 1.083,5.927 -0.96,12.771 -5.85,17.73 -4.887,4.959 -11.343,6.747 -16.766,5.224 -1.082,-5.926 0.954,-12.77 5.843,-17.731 C -11.888,0.263 -5.425,-1.523 0,0" id="path3706"/>
  </g>
  <g transform="translate(88.420194,238.94344)" style="fill:#333333" id="g3712">
   <path inkscape:connector-curvature="0" style="fill:#333333;fill-opacity:1;fill-rule:nonzero;stroke:none" d="m 0,0 c 2.176,5.567 1.466,12.716 -2.385,18.642 -3.85,5.928 -9.837,9.093 -15.432,8.794 C -19.994,21.867 -19.29,14.718 -15.438,8.791 -11.592,2.862 -5.6,-0.305 0,0" id="path3710"/>
  </g>
  <g transform="translate(93.321594,262.81354)" style="fill:#333333" id="g3716">
   <path inkscape:connector-curvature="0" style="fill:#333333;fill-opacity:1;fill-rule:nonzero;stroke:none" d="m 0,0 c 2.806,5.228 2.935,12.416 -0.198,18.816 -3.134,6.404 -8.705,10.349 -14.29,10.808 -2.806,-5.226 -2.938,-12.416 0.191,-18.819 C -11.167,4.406 -5.593,0.453 0,0" id="path3714"/>
  </g>
  <g transform="translate(100.41919,288.57284)" style="fill:#333333" id="g3720">
   <path inkscape:connector-curvature="0" style="fill:#333333;fill-opacity:1;fill-rule:nonzero;stroke:none" d="M 0,0 C 3.719,4.512 5.182,11.529 3.303,18.477 1.426,25.426 -3.299,30.497 -8.688,32.155 -12.407,27.638 -13.875,20.624 -11.995,13.675 -10.125,6.729 -5.395,1.651 0,0" id="path3718"/>
  </g>
  <g transform="translate(119.29079,191.89944)" style="fill:#333333" id="g3724">
   <path inkscape:connector-curvature="0" style="fill:#333333;fill-opacity:1;fill-rule:nonzero;stroke:none" d="M 0,0 C 6.51,-1.763 12.958,0.078 17.003,4.268 15.263,10.008 10.384,14.906 3.872,16.663 -2.64,18.422 -9.083,16.58 -13.129,12.399 -11.391,6.659 -6.515,1.753 0,0" id="path3722"/>
  </g>
  <g transform="translate(115.78499,250.77444)" style="fill:#333333" id="g3728">
   <path inkscape:connector-curvature="0" style="fill:#333333;fill-opacity:1;fill-rule:nonzero;stroke:none" d="m 0,0 c 0.331,-6.024 3.894,-12.104 9.779,-15.586 5.883,-3.482 12.555,-3.465 17.452,-0.522 -0.333,6.028 -3.898,12.102 -9.784,15.58 C 11.561,2.958 4.896,2.936 0,0" id="path3726"/>
  </g>
  <g transform="translate(143.43829,269.48344)" style="fill:#333333" id="g3732">
   <path inkscape:connector-curvature="0" style="fill:#333333;fill-opacity:1;fill-rule:nonzero;stroke:none" d="m 0,0 c -3.179,6.377 -8.777,10.273 -14.366,10.684 -2.765,-5.248 -2.847,-12.438 0.333,-18.812 3.177,-6.375 8.779,-10.277 14.375,-10.684 C 3.109,-13.56 3.183,-6.372 0,0" id="path3730"/>
  </g>
  <g transform="translate(181.67119,188.10454)" style="fill:#333333" id="g3736">
   <path inkscape:connector-curvature="0" style="fill:#333333;fill-opacity:1;fill-rule:nonzero;stroke:none" d="M 0,0 C 6.699,-0.449 12.729,2.629 16,7.537 13.32,12.842 7.692,16.698 0.995,17.146 -5.707,17.599 -11.73,14.523 -15,9.619 -12.324,4.315 -6.7,0.45 0,0" id="path3734"/>
  </g>
  <g transform="translate(187.90799,166.78034)" style="fill:#333333" id="g3740">
   <path inkscape:connector-curvature="0" style="fill:#333333;fill-opacity:1;fill-rule:nonzero;stroke:none" d="M 0,0 C 6.653,-0.959 12.871,1.651 16.454,6.304 14.126,11.794 8.768,16.073 2.115,17.028 -4.54,17.989 -10.75,15.38 -14.334,10.737 -12.01,5.244 -6.654,0.96 0,0" id="path3738"/>
  </g>
  <g transform="translate(218.73319,129.55374)" style="fill:#333333" id="g3744">
   <path inkscape:connector-curvature="0" style="fill:#333333;fill-opacity:1;fill-rule:nonzero;stroke:none" d="m 0,0 c 13.317,41.476 38.467,77.633 38.467,77.633 l -3.451,2.127 c 0,0 -19.234,-35.096 -28.111,-30.309 -8.877,4.786 18.247,84.012 18.247,84.012 l -3.453,2.127 c 0,0 -24.164,-78.162 -38.466,-113.258 -7.264,-17.826 -20.714,-22.865 -31.07,18.612 -4.758,19.052 -19.233,65.935 -19.233,65.935 l -3.401,-1.598 c 0,0 11.828,-36.203 13.757,-61.149 0.493,-6.38 -4.805,-1.063 -9.736,7.978 -6.917,12.675 -13.904,23.396 -13.904,23.396 l -2.004,-3.192 c 0,0 32.056,-53.705 35.014,-97.307 2.733,-40.277 -11.835,-62.742 -11.835,-62.742 H 2.96 c 0,0 -16.277,46.261 -2.96,87.735" id="path3742"/>
  </g>
 </g>
</svg>
