<?xml version='1.0' encoding='UTF-8' standalone='no'?>
<svg height="64.414513" id="svg2" xmlns:rdf="http://www.w3.org/1999/02/22-rdf-syntax-ns#" xmlns:inkscape="http://www.inkscape.org/namespaces/inkscape" version="1.1" xmlns:svg="http://www.w3.org/2000/svg" sodipodi:docname="Tipp.svg" xmlns:sodipodi="http://sodipodi.sourceforge.net/DTD/sodipodi-0.dtd" xmlns:dc="http://purl.org/dc/elements/1.1/" xmlns:cc="http://creativecommons.org/ns#" viewBox="0 0 74.379472 64.414514" inkscape:version="0.92.4 (5da689c313, 2019-01-14)" xmlns="http://www.w3.org/2000/svg" width="74.379471">
 <sodipodi:namedview inkscape:window-y="-9" inkscape:snap-global="true" guidetolerance="10" borderopacity="1" showgrid="false" id="namedview10" inkscape:current-layer="svg2" inkscape:cx="-47.52229" inkscape:window-maximized="1" inkscape:cy="16.901175" fit-margin-top="0" bordercolor="#666666" gridtolerance="10" fit-margin-left="0" fit-margin-bottom="0" inkscape:window-height="1001" objecttolerance="10" inkscape:pageshadow="2" inkscape:window-width="1920" inkscape:pageopacity="0" inkscape:zoom="3.6203867" fit-margin-right="0" pagecolor="#ffffff" inkscape:window-x="-9"/>
 <metadata id="metadata8">
  <rdf:RDF>
   <cc:Work rdf:about="">
    <dc:format>image/svg+xml</dc:format>
    <dc:type rdf:resource="http://purl.org/dc/dcmitype/StillImage"/>
    <dc:title/>
   </cc:Work>
  </rdf:RDF>
 </metadata>
 <defs id="defs6">
  <clipPath clipPathUnits="userSpaceOnUse" id="clipPath143">
   <rect height="203.14427" id="rect145" style="stroke-width:1.71212864" y="67.804993" transform="rotate(-43.315315)" width="203.14427" x="-715.1568"/>
  </clipPath>
  <clipPath clipPathUnits="userSpaceOnUse" id="clipPath4719">
   <rect height="42.942448" id="rect4721" style="fill:#000000;fill-opacity:1;stroke:#000000" ry="0.40744901" y="25.718069" rx="2.47085" width="8.8779888" x="-34.546959"/>
  </clipPath>
  <clipPath clipPathUnits="userSpaceOnUse" id="clipPath4885">
   <circle id="circle4887" cx="-52.648228" style="fill:none;stroke:#4d4d4d;stroke-width:0.60246503" cy="-28.001387" r="10.929907" transform="rotate(-38.419141)"/>
  </clipPath>
  <clipPath clipPathUnits="userSpaceOnUse" id="clipPath4889">
   <circle id="circle4891" cx="-52.648228" style="fill:none;stroke:#4d4d4d;stroke-width:0.60246503" cy="-28.001387" r="10.929907" transform="rotate(-38.419141)"/>
  </clipPath>
  <clipPath clipPathUnits="userSpaceOnUse" id="clipPath4893">
   <circle id="circle4895" cx="-52.648228" style="fill:none;stroke:#4d4d4d;stroke-width:0.60246503" cy="-28.001387" r="10.929907" transform="rotate(-38.419141)"/>
  </clipPath>
  <clipPath clipPathUnits="userSpaceOnUse" id="clipPath4897">
   <circle id="circle4899" cx="-52.648228" style="fill:none;stroke:#4d4d4d;stroke-width:0.60246503" cy="-28.001387" r="10.929907" transform="rotate(-38.419141)"/>
  </clipPath>
  <clipPath clipPathUnits="userSpaceOnUse" id="clipPath4913">
   <circle id="circle4915" cx="-88.579475" style="fill:none;stroke:#4d4d4d;stroke-width:1.33852994" cy="-54.134789" r="24.283579" transform="rotate(-38.419141)"/>
  </clipPath>
  <clipPath clipPathUnits="userSpaceOnUse" id="clipPath4923">
   <path id="path4925" style="fill:none;stroke:#000000;stroke-width:1.67334652px;stroke-linecap:butt;stroke-linejoin:miter;stroke-opacity:1" d="m -98.061502,-0.25402155 c -0.494788,0 -0.989577,0 -1.484365,0 -0.190303,0 -0.383677,0.0340426 -0.570913,0 -0.23683,-0.0430607 -0.44905,-0.18115558 -0.68509,-0.22836403 -0.29857,-0.0597146 -0.61488,0.0597145 -0.91346,0 -0.23604,-0.0472085 -0.44905,-0.18115557 -0.68509,-0.22836402 -0.14928,-0.0298572 -0.30541,0.0168124 -0.45673,0 -0.19288,-0.0214317 -0.37833,-0.0901103 -0.5709,-0.114182 -0.11331,-0.0141625 -0.22837,0 -0.34255,0 -0.30449,0 -0.60897,0 -0.91346,0 -0.11419,0 -0.23422,0.0361075 -0.34254,0 -0.0361,-0.0120358 0.0269,-0.0872691 0,-0.11418201 -0.0269,-0.0269129 -0.0761,0 -0.11419,0 -0.22837,0 -0.45673,0 -0.6851,0 -0.0761,0 -0.15451,0.0184621 -0.22836,0 -0.0826,-0.0206413 -0.14653,-0.0908015 -0.22836,-0.11418199 -0.18661,-0.053316 -0.38264,-0.067113 -0.57091,-0.114182 -0.23353,-0.058382 -0.44905,-0.1811556 -0.6851,-0.228364 -0.0746,-0.014928 -0.15371,0.014928 -0.22836,0 -0.11802,-0.023604 -0.22836,-0.076121 -0.34255,-0.114182 -0.11419,-0.038061 -0.23079,-0.069482 -0.34254,-0.114182 -0.0656,-0.026253 -0.3911,-0.2021111 -0.45673,-0.228364 -0.0743,-0.029727 -0.48165,-0.1391049 -0.57091,-0.228364 -0.0269,-0.026913 0.0269,-0.087269 0,-0.114182 -0.0269,-0.026913 -0.0781,0.012036 -0.11419,0 -0.82707,-0.2756892 0.18002,0.032919 -0.34255,-0.228364 -0.33234,-0.1661732 -0.40151,-0.03931 -0.68509,-0.228364 -0.59861,-0.3990767 0.49479,0.2664247 -0.11419,-0.3425461 -0.11419,-0.1141824 -0.22836,0.057091 -0.34254,0 -0.25247,-0.1262305 -0.0354,-0.070866 -0.11419,-0.2283639 -0.0523,-0.1045139 -0.25911,-0.2005496 -0.34255,-0.2283639 -0.0361,-0.012031 -0.0873,0.026912 -0.11417,0 -1.1e-4,-1.092e-4 1.7e-4,-0.3420286 0,-0.3425461 -0.017,-0.051064 -0.0901,-0.066039 -0.11419,-0.1141825 -0.017,-0.034043 0.017,-0.08014 0,-0.1141825 -0.0241,-0.048144 -0.0843,-0.069397 -0.11419,-0.1141825 -0.0472,-0.070813 -0.067,-0.1575506 -0.11419,-0.2283639 -0.0299,-0.044785 -0.0761,-0.076122 -0.11419,-0.1141825 -0.11419,-0.1141825 -0.24167,-0.2164531 -0.34255,-0.3425461 -0.0532,-0.066457 -0.054,-0.1681849 -0.11418,-0.2283639 -0.0602,-0.060179 -0.16819,-0.054002 -0.22837,-0.1141825 -0.0269,-0.026912 0.0269,-0.087268 0,-0.1141825 -0.0602,-0.060179 -0.1773,-0.046097 -0.22836,-0.1141824 -0.0722,-0.096286 -0.042,-0.2462593 -0.11419,-0.3425461 -0.0511,-0.068085 -0.1773,-0.046097 -0.22837,-0.1141825 -0.0722,-0.096286 -0.042,-0.2462592 -0.11418,-0.3425459 -0.0511,-0.068085 -0.15755,-0.066974 -0.22837,-0.1141825 -0.0448,-0.029858 -0.0761,-0.076121 -0.11419,-0.1141825 -0.0761,-0.076122 -0.16865,-0.1387924 -0.22836,-0.2283639 -0.0211,-0.031668 0.0269,-0.087268 0,-0.1141825 -0.0269,-0.026912 -0.0761,0 -0.11419,0 -0.0761,0 -0.16027,0.034043 -0.22836,0 -0.034,-0.017021 0.012,-0.078075 0,-0.1141825 -0.0269,-0.080739 -0.054,-0.1681847 -0.11419,-0.2283639 -0.23625,-0.2362466 0.009,0.3610161 -0.22837,-0.1141825 -0.0787,-0.1574971 0.13829,-0.1021327 -0.11419,-0.2283641 -0.034,-0.017021 -0.0873,0.026912 -0.11419,0 -0.23624,-0.2362466 0.36102,0.00924 -0.11419,-0.228364 -0.15749,-0.078749 -0.10214,0.1382804 -0.22836,-0.1141824 -0.0457,-0.091346 0.0457,-0.2512005 0,-0.3425461 -0.0481,-0.096286 -0.19432,-0.1262356 -0.22836,-0.228364 -0.0241,-0.072215 0,-0.1522427 0,-0.2283641 0,-0.1141825 0,-0.2283639 0,-0.3425459 0,-0.065791 -0.0208,-0.5292936 0,-0.57091 0.0481,-0.096288 0.18022,-0.1320773 0.22836,-0.2283642 0.017,-0.034042 -0.017,-0.08014 0,-0.1141824 0.0241,-0.048144 0.0901,-0.066039 0.11417,-0.1141825 0.017,-0.034043 -0.0211,-0.082515 0,-0.1141826 0.0597,-0.08957 0.15224,-0.152243 0.22837,-0.228364 0.0761,-0.07612 0.15224,-0.152243 0.22836,-0.228364 0.0381,-0.03806 0.0901,-0.06604 0.11419,-0.114182 0.017,-0.03404 -0.0211,-0.08252 0,-0.114183 -0.0977,-0.529736 0.24551,-0.131327 0.34255,-0.228364 0.0602,-0.06018 0.067,-0.15755 0.11419,-0.228364 0.0298,-0.04478 0.0761,-0.07612 0.11418,-0.114182 0.0381,-0.03806 0.066,-0.09011 0.11419,-0.114183 0.034,-0.01702 0.0801,0.01702 0.11419,0 0.0963,-0.04814 0.13208,-0.180221 0.22837,-0.228364 0.0681,-0.03404 0.17454,0.05383 0.22836,0 0.0269,-0.02691 -0.0269,-0.08727 0,-0.114182 0.0269,-0.02691 0.0761,0 0.11419,0 0.22836,0 0.45673,0 0.68509,0 0.53285,0 1.0657,0 1.59855,0 0.22836,0 0.45673,0 0.68509,0 0.0761,0 0.15452,0.01846 0.22837,0 0.0826,-0.02064 0.1458,-0.09354 0.22836,-0.114183 0.0738,-0.01846 0.15224,0 0.22836,0 0.19031,0 0.38061,0 0.57091,0 0.57091,0 1.14182,0 1.71273,0 0.38061,0 0.76122,0 1.14182,0 0.0761,0 0.15225,0 0.22837,0 0.11417,0 0.23177,-0.02769 0.34254,0 0.0522,0.01305 0.066,0.09011 0.11419,0.114183 0.0337,0.01685 0.68165,0 0.79928,0 0.60897,0 1.21794,0 1.82691,0 0.22836,0 0.45673,0 0.68509,0 0.0761,0 0.15224,0 0.22837,0 0.0381,0 0.0781,-0.01203 0.11418,0 0.0807,0.02691 0.15755,0.06697 0.22837,0.114182 0.0448,0.02986 0.0631,0.09716 0.11419,0.114183 0.063,0.02098 0.58819,0 0.68509,0 0.0381,0 0.0761,0 0.11419,0 0.0381,0 0.0801,-0.01702 0.11419,0 0.0481,0.02407 0.066,0.09011 0.11417,0.114182 0.034,0.01702 0.0761,0 0.11419,0 0.0381,0 0.0761,0 0.11419,0 0.22836,0 0.456726,0 0.685089,0 0.723154,0 1.446306,0 2.169459,0 0.228363,0 0.456728,0 0.685092,0 0.114189,0 0.231773,-0.02769 0.342545,0 0.08256,0.02064 0.145799,0.09354 0.228365,0.114183 0.07385,0.01846 0.152241,0 0.228364,0 0.228364,0 0.456728,0 0.685091,0 0.110441,0 0.651228,-0.01693 0.685093,0 0.04814,0.02407 0.06603,0.09011 0.114189,0.114182 0.03404,0.01702 0.08014,-0.01702 0.11419,0 0.290084,0.145042 -0.116934,0.136468 0.342545,0.228364 0.219582,0.04392 0.465512,-0.04392 0.685093,0 0.236043,0.04721 0.44905,0.181156 0.685092,0.228364 0.149279,0.02986 0.30903,-0.03692 0.456728,0 0.08256,0.02064 0.145799,0.09354 0.228363,0.114183 0.07385,0.01846 0.156157,-0.02407 0.228365,0 0.356398,0.118799 -0.03807,0.07612 0.114173,0.228364 0.03044,0.03044 0.524477,-0.03096 0.570911,0 0.07082,0.04721 0.04337,0.181155 0.114189,0.228363 0.06334,0.04223 0.155169,-0.02091 0.228363,0 0.733426,0.2095508 0.346656,0.2008461 0.913456,0.3425466 0.03693,0.00924 0.07612,0 0.11419,0 0.114189,0.03806 0.225781,0.084991 0.342545,0.1141824 0.03693,0.00924 0.07612,0 0.11419,0 0.09687,0 0.609335,-0.018939 0.685091,0 0.165126,0.041283 0.291597,0.1870815 0.456728,0.2283642 0.07385,0.018462 0.156157,-0.024071 0.228364,0 0.05107,0.017021 0.06603,0.09011 0.114189,0.1141824 0.09135,0.045672 0.251201,-0.045672 0.342546,0 0.03404,0.017021 -0.03404,0.097161 0,0.1141825 0.07271,0.03635 0.572881,-0.037403 0.685091,0 0.07612,0.03806 0.152241,0.076122 0.228365,0.1141825 0,0.03806 -0.02691,0.087268 0,0.1141825 0.06017,0.060178 0.152241,0.076121 0.228363,0.1141824 0.07612,0.03806 0.147623,0.087268 0.228365,0.1141825 0.07222,0.024071 0.160273,-0.034043 0.228363,0 0.09628,0.048144 0.138788,0.1686496 0.228365,0.228364 0.498695,0.3324633 -0.03763,-0.050607 0.456729,0.1141824 0.157696,0.052567 0.116448,0.2586122 0.228363,0.3425461 0.09628,0.072215 0.234894,0.060356 0.342546,0.1141825 0.04814,0.024071 0.06939,0.084325 0.114189,0.1141825 0.07082,0.047208 0.181155,0.04337 0.228363,0.1141824 0.04222,0.063336 -0.04222,0.1650272 0,0.228364 0.01255,0.018949 0.410064,0.1933657 0.456728,0.2283641 0.08613,0.064591 0.152241,0.1522427 0.228365,0.228364 0.03807,0.03806 0.09011,0.066039 0.114173,0.1141824 0.01702,0.034043 -0.01702,0.08014 0,0.1141825 0.2376,0.4751983 -0.0079,-0.1220639 0.228365,0.1141825 0.02691,0.026912 -0.02691,0.087268 0,0.1141825 0.02691,0.026912 0.08727,-0.026912 0.114189,0 0.01104,0.011077 0,0.5273985 0,0.57091 0,0.2283639 0,0.4567281 0,0.685092 0,0.076121 0.01846,0.1545151 0,0.2283639 -0.02065,0.082565 -0.08258,0.1493446 -0.114189,0.2283642 -0.0447,0.1117494 -0.06036,0.2348941 -0.114189,0.3425459 -0.02408,0.048144 -0.08189,0.071122 -0.11419,0.1141825 -0.08233,0.1097832 -0.160273,0.2233972 -0.228363,0.3425459 -0.08445,0.1477866 -0.108014,0.3363696 -0.228365,0.456728 -0.08511,0.085106 -0.257439,0.029076 -0.342546,0.1141825 -0.08511,0.085106 -0.07612,0.2283641 -0.114189,0.3425461 -0.114189,0.076122 -0.24551,0.1313276 -0.342547,0.2283639 -0.120364,0.1203588 -0.126237,0.3205582 -0.228364,0.4567281 -0.493869,0.4938704 -0.01789,-0.030247 -0.342545,0.456728 -0.0969,0.145361 -0.351207,0.3160335 -0.456728,0.4567281 -0.05107,0.068085 -0.04337,0.1811555 -0.11419,0.228364 -0.06334,0.042225 -0.152241,0 -0.228363,0 -0.114189,0 -0.234223,-0.036107 -0.342546,0 -0.130186,0.043396 -0.232762,0.1460263 -0.342547,0.228364 -0.04305,0.032296 -0.06196,0.1011274 -0.114189,0.114182 -0.110776,0.027693 -0.234224,-0.036107 -0.342546,0 -0.130186,0.043396 -0.219804,0.16699301 -0.342547,0.228364 -0.03344,0.016743 -0.671243,0.21801376 -0.685043,0.22836341 -0.06809,0.0510637 -0.07612,0.15224274 -0.11419,0.22836401 -0.114172,0.11418198 -0.204079,0.25946643 -0.342545,0.34254604 -0.06528,0.03916417 -0.153714,-0.01492792 -0.228364,0 -0.118021,0.02360423 -0.223825,0.09439515 -0.342545,0.11418197 -0.112633,0.01877144 -0.230583,-0.02239289 -0.342548,0 -0.08345,0.01668996 -0.14441,0.10019062 -0.228363,0.11418198 -0.150166,0.0250286 -0.304486,0 -0.456728,0 -0.114189,0 -0.228364,0 -0.342546,0 -0.418668,0 -0.837334,0 -1.256002,0 -0.532849,0 -1.065699,0 -1.598548,0 -0.114189,0 -0.228364,0 -0.342546,0 -0.114189,0 -0.229918,-0.0187714 -0.342546,0 -0.118724,0.0197868 -0.224526,0.0905777 -0.342547,0.11418197 -0.127041,0.0254064 -0.42216,0 -0.570909,0 -0.380608,0 -0.761214,0 -1.14182,0 -0.190305,0 -0.380608,0 -0.570911,0 -0.07612,0 -0.160273,0.0340426 -0.228363,0 -0.03404,-0.0170213 0.02691,-0.087269 0,-0.11418197 -0.0571,-0.0570911 -0.285456,0.0570911 -0.342547,0 -0.02691,-0.0269129 0.02691,-0.087269 0,-0.11418198 -0.05383,-0.05382587 -0.174537,0.05382587 -0.228364,0 -0.02691,-0.02691293 0.02691,-0.08726904 0,-0.11418197 -0.02691,-0.02691293 -0.08014,0.01702128 -0.114189,0 -0.04814,-0.02407176 -0.07612,-0.07612137 -0.114189,-0.11418197 -0.114189,-0.0380606 -0.228365,-0.0761214 -0.342547,-0.11418198 z" inkscape:connector-curvature="0"/>
  </clipPath>
  <clipPath clipPathUnits="userSpaceOnUse" id="clipPath4929">
   <path id="path4931" style="fill:none;stroke:#000000;stroke-width:1.67334652px;stroke-linecap:butt;stroke-linejoin:miter;stroke-opacity:1" d="m -89.612032,-2.9943897 c -0.114189,-0.1522428 -0.228365,-0.3044855 -0.342546,-0.4567281 0,-0.03806 0.01702,-0.08014 0,-0.1141825 -0.02408,-0.048144 -0.06603,-0.09011 -0.114189,-0.1141824 -0.03404,-0.017021 -0.08727,0.026912 -0.114189,0 -0.02691,-0.026912 0.01205,-0.078075 0,-0.1141825 -0.02691,-0.080739 -0.06312,-0.1602782 -0.114189,-0.228364 -0.615981,-0.8213086 0.126789,0.2409673 -0.456727,-0.3425461 -0.02691,-0.026912 0.01702,-0.08014 0,-0.1141824 -0.06138,-0.1227417 -0.131324,-0.2455101 -0.228365,-0.3425461 -0.120364,-0.1203588 -0.336369,-0.1080062 -0.456728,-0.228364 -0.445622,-0.445622 0.02642,-0.061321 -0.114189,-0.3425461 -0.06851,-0.1370186 -0.274037,-0.2055276 -0.342548,-0.3425459 -0.01702,-0.034042 0.02691,-0.087268 0,-0.1141825 -0.02691,-0.026912 -0.08727,0.026912 -0.114172,0 -0.02691,-0.026912 0.02691,-0.087268 0,-0.1141824 -0.02691,-0.026912 -0.08727,0.026912 -0.114189,0 -0.03986,-0.039856 0.04739,-0.3188478 0,-0.342546 -0.06809,-0.034042 -0.160273,0.034043 -0.228363,0 -0.03014,-0.01506 0.02274,-0.160161 0,-0.2283641 -0.02691,-0.080739 -0.07612,-0.1522427 -0.11419,-0.2283639 -0.07612,-0.1522428 -0.133951,-0.3151027 -0.228365,-0.4567281 -0.02985,-0.044785 -0.09011,-0.066039 -0.114189,-0.1141824 -0.01702,-0.034043 0.01702,-0.08014 0,-0.1141825 -0.2376,-0.4751981 0.0079,0.1220639 -0.228365,-0.1141825 -0.02691,-0.026912 0,-0.076121 0,-0.1141825 -0.03807,-0.076121 -0.054,-0.1681849 -0.114189,-0.2283639 -0.02691,-0.026912 -0.08727,0.026912 -0.114189,0 -0.05383,-0.053827 0.03404,-0.1602798 0,-0.2283641 -0.02408,-0.048144 -0.09011,-0.066039 -0.114189,-0.1141825 -0.03738,-0.074768 0.03377,-0.4695812 0,-0.57091 -0.02691,-0.080739 -0.08727,-0.1476244 -0.114189,-0.228364 -0.02408,-0.072215 0.05383,-0.1745382 0,-0.2283641 -0.236247,-0.2362466 0.0092,0.3610161 -0.228364,-0.1141825 -0.03404,-0.068085 0.05383,-0.1745381 0,-0.2283639 -0.02691,-0.026912 -0.08727,0.026912 -0.114189,0 -0.02691,-0.026912 0.02691,-0.08727 0,-0.1141825 -0.05383,-0.053826 -0.174538,0.053826 -0.228363,0 -0.02691,-0.026912 0.02691,-0.087268 0,-0.1141825 -0.05383,-0.053826 -0.160273,0.034043 -0.228365,0 -0.04814,-0.024071 -0.07612,-0.076122 -0.114189,-0.1141825 -0.07612,-0.076122 -0.152241,-0.1522428 -0.228365,-0.2283638 -0.178066,-0.178066 -0.321015,-0.331781 -0.570911,-0.456728 -0.06809,-0.03404 -0.152241,0 -0.228363,0 -0.03807,0 -0.08727,0.02691 -0.114189,0 -0.06017,-0.06018 -0.054,-0.168185 -0.114173,-0.228364 -0.02691,-0.02691 -0.08014,0.01702 -0.114189,0 -0.04814,-0.02407 -0.06312,-0.09716 -0.114189,-0.114183 -0.07222,-0.02407 -0.160273,0.03404 -0.228363,0 -0.03404,-0.01702 0,-0.07612 0,-0.114182 -0.07612,-0.03806 -0.147623,-0.08727 -0.228365,-0.114183 -0.03611,-0.01203 -0.07612,0 -0.114189,0 -0.11419,-0.03806 -0.230797,-0.06948 -0.342548,-0.114182 -0.158031,-0.06322 -0.291597,-0.187081 -0.456726,-0.228364 -0.07384,-0.01846 -0.160274,0.03404 -0.228365,0 -0.03404,-0.01702 0.03611,-0.102146 0,-0.114183 -0.108316,-0.03611 -0.231774,0.02769 -0.342546,0 -0.104434,-0.02611 -0.132077,-0.18022 -0.228365,-0.228364 -0.157495,-0.07875 -0.102124,0.138281 -0.228363,-0.114182 -0.01702,-0.03404 0.02691,-0.08727 0,-0.114183 -0.03763,-0.03764 -0.3741,0.02754 -0.456729,0 -0.05107,-0.01702 -0.06603,-0.09011 -0.114189,-0.114182 -0.03404,-0.01702 -0.07612,0 -0.114189,0 -0.07612,0 -0.156157,0.02407 -0.228365,0 -0.05107,-0.01702 -0.06196,-0.101127 -0.114172,-0.114183 -0.110776,-0.02769 -0.228365,0 -0.342548,0 -0.114189,0 -0.228363,0 -0.342548,0 -0.0381,0 -0.0773,0.0092 -0.11419,0 -0.11676,-0.02919 -0.22682,-0.08112 -0.34254,-0.114182 -0.15089,-0.04311 -0.3098,-0.05908 -0.45673,-0.114183 -0.56438,-0.28219 -0.29525,-0.174538 -0.79928,-0.342545 -0.11419,-0.03806 -0.23079,-0.06948 -0.34254,-0.114183 -0.079,-0.03161 -0.14441,-0.10019 -0.22837,-0.114182 -0.15016,-0.02503 -0.30448,0 -0.45672,0 -0.15224,0 -0.30449,0 -0.45673,0 -0.11419,0 -0.23178,0.02769 -0.34255,0 -0.0522,-0.01305 -0.0631,-0.09716 -0.11419,-0.114183 -0.0523,-0.01742 -0.50717,0 -0.57091,0 -0.41866,0 -0.83733,0 -1.256,0 -0.72315,0 -1.4463,0 -2.16946,0 -0.1903,0 -0.3806,0 -0.57091,0 -0.11419,0 -0.22992,-0.01877 -0.34254,0 -0.11873,0.01979 -0.2234,0.09716 -0.34255,0.114183 -0.15072,0.02153 -0.30448,0 -0.45673,0 -0.0761,0 -0.15614,-0.02407 -0.22836,0 -0.0511,0.01702 -0.0631,0.09716 -0.11419,0.114182 -0.0722,0.02407 -0.15224,0 -0.22836,0 -0.0761,0 -0.15224,0 -0.22837,0 -0.0967,0 -0.39534,-0.02046 -0.45673,0 -0.0511,0.01702 -0.0631,0.09716 -0.11419,0.114183 -0.43512,0.145042 -0.0195,-0.253404 -0.5709,0.114182 -0.0317,0.02111 0,0.07612 0,0.114182 -0.0381,0.03806 -0.066,0.09011 -0.11419,0.114183 -0.0681,0.03404 -0.15616,-0.02407 -0.22837,0 -0.0761,0.03806 -0.15224,0.07612 -0.22836,0.114182 0,0.03806 0.0269,0.08727 0,0.114183 -0.0602,0.06018 -0.15755,0.06697 -0.22836,0.114182 -0.0448,0.02986 -0.0631,0.09716 -0.11419,0.114183 -0.0722,0.02407 -0.15614,-0.02407 -0.22837,0 -0.22721,0.07574 -0.0533,0.10657 -0.11419,0.228364 -0.0241,0.04814 -0.0843,0.0694 -0.11419,0.114182 -0.0472,0.07081 -0.067,0.157551 -0.11418,0.228364 -0.0299,0.04479 -0.0901,0.06604 -0.11419,0.114183 -0.034,0.06808 0.034,0.160278 0,0.228364 -0.0241,0.04814 -0.0761,0.07612 -0.11419,0.114182 -0.0381,0.03806 -0.0694,0.08432 -0.11419,0.114183 -0.0708,0.04721 -0.1773,0.0461 -0.22837,0.114182 -0.13825,0.184339 -0.11418,0.36792 -0.11418,0.57091 0,0.07612 0,0.152243 0,0.228364 0,0.03806 0.0361,0.1021465 0,0.1141828 -0.10832,0.036107 -0.2512,-0.068509 -0.34255,0 -0.0963,0.072215 -0.0695,0.230796 -0.11419,0.3425461 -0.0316,0.079019 -0.067,0.1575506 -0.11417,0.228364 -0.12433,0.1864829 -0.16923,0.046872 -0.22837,0.3425461 0,0.1141824 0,0.2283639 0,0.3425459 -0.0381,0.03806 -0.0971,0.063119 -0.11419,0.1141825 -0.0195,0.058448 0,0.6034621 0,0.6850921 0,0.03806 0.017,0.08014 0,0.1141825 -0.0241,0.048144 -0.0901,0.066039 -0.11419,0.1141825 -0.017,0.034043 0,0.076122 0,0.1141825 0,0.2664247 0,0.5328494 0,0.7992741 0,0.076122 0,0.1522428 0,0.228364 0,0.076121 -0.034,0.1602781 0,0.2283641 0.017,0.034042 0.0801,-0.017021 0.11419,0 0.0482,0.024071 0.0901,0.066039 0.11419,0.1141825 0.034,0.068085 -0.034,0.1602798 0,0.2283639 0.0614,0.1227416 0.15777,0.2248725 0.22837,0.3425461 0.13515,0.225254 0.13211,0.3604815 0.34254,0.57091 0.0602,0.060179 0.16819,0.054002 0.22837,0.1141825 0.17232,0.1723271 0.2695,0.4148926 0.45673,0.57091 0.0585,0.048731 0.15451,-0.018462 0.22836,0 0.0826,0.020641 0.16027,0.063119 0.22836,0.1141825 0.17225,0.1291824 0.28861,0.322229 0.45673,0.4567281 0.10716,0.085727 0.22836,0.1522427 0.34255,0.2283641 0.11419,0.07612 0.21641,0.1743065 0.34254,0.2283639 0.81108,0.3476041 0.16374,0.00991 0.68509,0.1141825 0.41041,0.082081 0.72899,0.3879227 1.14183,0.4567281 0.11263,0.018772 0.22836,0 0.34254,0 0.1903,0 0.38061,0 0.57091,0 0.0381,0 0.0766,-0.00626 0.11419,0 0.19143,0.031906 0.38542,0.057108 0.57091,0.1141824 0.73223,0.2253011 0.81118,0.3894099 1.48437,0.4567281 0.45446,0.045446 0.91461,-0.03254 1.37018,0 0.26845,0.019175 0.53083,0.095008 0.79927,0.1141825 0.26575,0.018982 0.53377,-0.022125 0.79928,0 0.1934,0.016114 0.3778,0.094872 0.57091,0.1141825 0.18936,0.018935 0.38061,0 0.57091,0 0.64703,0 1.29406,0 1.94109,0 0.38061,0 0.761216,0 1.141824,0 0.148677,0 0.570661,0.022886 0.685091,0 0.08345,-0.016683 0.145799,-0.09354 0.228363,-0.1141825 0.07384,-0.018462 0.152242,0 0.228365,0 0.11685,0 0.819109,0.023588 0.913457,0 0.165126,-0.041283 0.29525,-0.1745381 0.456726,-0.228364 0.0618,-0.020599 0.41783,0 0.456729,0 0.304485,0 0.608971,0 0.913456,0 0.165126,0 0.678699,0.024115 0.799274,0 0.911335,-0.1822671 -0.834889,-0.1141824 0.685092,-0.1141824 0.228365,0 0.456728,0 0.685093,0 0.07612,0 0.152241,0 0.228363,0 0.03807,0 0.08014,0.017021 0.114189,0 0.04814,-0.024071 0.06603,-0.09011 0.114189,-0.1141825 0.02559,-0.012801 0.429595,0 0.456729,0 0.418666,0 0.837334,0 1.256,0 0.139741,0 0.455072,0.00497 0.456728,0 0.03611,-0.1083224 0.03611,-0.2342234 0,-0.3425459 -0.01205,-0.036107 -0.08727,0.026912 -0.114172,0 -0.02691,-0.026912 -0.02691,-0.087268 0,-0.1141825 0.0045,-0.0046 0.414796,0 0.456727,0 0.03807,0 0.08014,0.017021 0.114189,0 0.04814,-0.024071 0.06036,-0.1141825 0.114189,-0.1141825 0.156926,0 0.304485,0.076122 0.456728,0.1141825 z" inkscape:connector-curvature="0"/>
  </clipPath>
  <clipPath clipPathUnits="userSpaceOnUse" id="clipPath4937">
   <path id="path4939" style="fill:none;stroke:#000000;stroke-width:0.33466932;stroke-linecap:butt;stroke-linejoin:miter;stroke-miterlimit:4;stroke-dasharray:none;stroke-opacity:1" d="m -106.60726,-13.805544 3.31029,2.502905 9.527187,2.5029055 1.937734,3.7139881 -15.178911,2.7451217 -9.28497,-6.2976321 z" inkscape:connector-curvature="0"/>
  </clipPath>
  <clipPath clipPathUnits="userSpaceOnUse" id="clipPath5191">
   <path id="path5193" style="fill:none;stroke:#000000;stroke-width:1px;stroke-linecap:butt;stroke-linejoin:miter;stroke-opacity:1" d="M -69.327492,0.81882864 -46.127346,24.018974 -43.05674,8.3247579 V -2.7294289 Z" inkscape:connector-curvature="0"/>
  </clipPath>
  <clipPath clipPathUnits="userSpaceOnUse" id="clipPath5742">
   <path id="path5744" style="fill:none;stroke:#000000;stroke-width:1px;stroke-linecap:butt;stroke-linejoin:miter;stroke-opacity:1" d="m -74.513412,-4.640029 24.974273,24.974273 V -4.640029 Z" inkscape:connector-curvature="0"/>
  </clipPath>
  <clipPath clipPathUnits="userSpaceOnUse" id="clipPath5785">
   <rect height="11.156541" id="rect5787" style="fill:#333333;fill-opacity:1;stroke:none;stroke-width:0.22472635;stroke-miterlimit:4;stroke-dasharray:none;stroke-opacity:1" ry="0.83432478" y="42.647324" transform="rotate(45)" width="20.811895" x="-29.375477"/>
  </clipPath>
  <clipPath clipPathUnits="userSpaceOnUse" id="clipPath5799">
   <rect height="29.357262" id="rect5801" style="fill:#333333;fill-opacity:1;stroke:none;stroke-width:0.25457799;stroke-miterlimit:4;stroke-dasharray:none;stroke-opacity:1" ry="5.8891525" y="7.8397613" transform="rotate(-45)" width="29.725763" x="-89.513351"/>
  </clipPath>
  <clipPath clipPathUnits="userSpaceOnUse" id="clipPath5799-1">
   <rect height="29.357262" id="rect5801-2" style="fill:#333333;fill-opacity:1;stroke:none;stroke-width:0.25457799;stroke-miterlimit:4;stroke-dasharray:none;stroke-opacity:1" ry="5.8891525" y="7.8397613" transform="rotate(-45)" width="29.725763" x="-89.513351"/>
  </clipPath>
  <clipPath clipPathUnits="userSpaceOnUse" id="clipPath1540">
   <rect height="15.511255" id="rect1542" style="fill:none;fill-opacity:1;stroke:#000000;stroke-width:0.08992032;stroke-miterlimit:4;stroke-dasharray:none;stroke-opacity:1" ry="1.1256225" y="24.288628" transform="rotate(90)" width="23.604084" x="75.154999"/>
  </clipPath>
  <clipPath clipPathUnits="userSpaceOnUse" id="clipPath1119">
   <rect height="20.326616" id="rect1121" style="opacity:0.51099997;fill:none;fill-opacity:1;stroke:#000000;stroke-width:0.42558613;stroke-miterlimit:4;stroke-dasharray:none;stroke-dashoffset:0;stroke-opacity:1" ry="1.5809379" rx="2.6286676" y="74.346153" width="20.003973" x="330.99872"/>
  </clipPath>
  <clipPath clipPathUnits="userSpaceOnUse" id="clipPath3321">
   <rect height="20.326616" id="rect3323" style="opacity:0.51099997;fill:none;fill-opacity:1;stroke:#000000;stroke-width:0.42558613;stroke-miterlimit:4;stroke-dasharray:none;stroke-dashoffset:0;stroke-opacity:1" ry="1.5809379" y="386.0423" rx="2.6286676" width="20.003973" x="753.90729"/>
  </clipPath>
  <clipPath clipPathUnits="userSpaceOnUse" id="clipPath4719-1">
   <rect height="42.942448" id="rect4721-4" style="fill:#000000;fill-opacity:1;stroke:#000000" ry="0.40744901" y="25.718069" rx="2.47085" width="8.8779888" x="-34.546959"/>
  </clipPath>
  <clipPath clipPathUnits="userSpaceOnUse" id="clipPath5350">
   <rect height="42.942448" id="rect5348" style="fill:#000000;fill-opacity:1;stroke:#000000" ry="0.40744901" y="25.718069" rx="2.47085" width="8.8779888" x="-34.546959"/>
  </clipPath>
 </defs>
 <path id="path4018" style="fill:#00aa88;fill-opacity:1;stroke:#333333;stroke-width:3.52751255;stroke-miterlimit:4;stroke-dasharray:none;stroke-dashoffset:0;stroke-opacity:1" d="M 54.76629,1.7637566 72.34286,32.207276 54.76631,62.650756 H 19.61316 L 2.0366102,32.207256 19.61317,1.7637667 Z" inkscape:connector-curvature="0"/>
 <g id="g988" style="stroke-width:1.59154105" transform="matrix(0.50605116,-0.37242524,0.37242524,0.50605116,49.516492,24.397601)">
  <path id="path3774" style="fill:#333333;fill-opacity:1;stroke-width:1.59154093" sodipodi:nodetypes="ccccccccccccccccccccccccccccccccccccccccccccccccccccccccccccccccccccccccccccccccccccccccccccccccccccccccccccccccccccccccc" d="m -18.186795,-18.471557 c -0.502461,-0.256584 -1.008952,-0.401749 -1.511808,-0.437639 -0.295986,-0.01214 -0.599248,0.01175 -0.906328,0.07481 -0.290249,0.05987 -0.563522,0.139876 -0.819272,0.239209 -0.190389,0.08461 -0.378956,0.185918 -0.565424,0.303552 -0.552953,0.349281 -1.015402,0.754294 -1.376139,1.214369 -0.33525,0.479241 -0.587806,1.040003 -0.760762,1.670436 -0.05821,0.212335 -0.100146,0.422246 -0.125576,0.629031 -0.02041,0.273925 -0.01763,0.55837 0.01002,0.85342 0.0292,0.312123 0.09471,0.609187 0.192665,0.88877 0.180928,0.470547 0.467447,0.912719 0.859364,1.318552 0.153029,0.15823 0.313495,0.29938 0.481075,0.423497 0.75022,0.554776 1.640926,0.777137 2.620781,0.744616 0.29534,-0.01006 0.59805,-0.0332 0.885423,0.01716 0.174929,0.0305 0.317999,0.08839 0.427321,0.169939 0.248507,0.182608 0.326495,0.4871302 0.213526,0.8746802 -0.06937,0.237958 -0.185432,0.475218 -0.330527,0.676207 l -0.07695,0.106645 c -0.108926,0.146679 -0.177635,0.239448 -0.195366,0.263388 -0.08657,0.118058 -0.168754,0.229805 -0.250566,0.341829 l -0.0822,0.109419 c -0.29116,0.395465 -0.584143,0.789871 -0.877175,1.18395 -0.630262,0.853316 -1.262447,1.704921 -1.894533,2.557176 -0.207784,0.280546 -0.415568,0.561091 -0.6234,0.84131 -0.09591,0.1291 -0.19922,0.241999 -0.308309,0.338454 -0.05269,0.04844 -0.102751,0.08985 -0.153309,0.128001 -0.590111,0.417046 -1.320049,0.393694 -1.986203,-0.0994 -0.201992,-0.149604 -0.397252,-0.294222 -0.592838,-0.43879 -1.131533,-0.838064 -2.262512,-1.676875 -3.395155,-2.513441 -0.321221,-0.237331 -0.640523,-0.472951 -0.960149,-0.708523 -2.29564,-1.867305 -5.048629,-3.7045262 -5.737672,-4.1702622 -0.270385,-0.256669 -0.552275,-0.3751 -0.720986,-0.540314 -0.202987,-0.198707 -0.422277,-0.384003 -0.650226,-0.553702 -0.31852,-0.237068 -0.637316,-0.473761 -0.956112,-0.710455 -1.007263,-0.747759 -2.014137,-1.492914 -3.020686,-2.238119 l -0.375193,-0.277876 c -0.195259,-0.144617 -0.390893,-0.289511 -0.570865,-0.423097 -0.687946,-0.509812 -0.922709,-1.200959 -0.695811,-1.887018 0.02175,-0.05947 0.04681,-0.119122 0.07577,-0.179344 0.06244,-0.137091 0.140312,-0.268829 0.235844,-0.398204 0.207458,-0.280497 0.415243,-0.561042 0.623026,-0.841589 0.630639,-0.853038 1.261278,-1.706076 1.893786,-2.557729 0.291535,-0.395189 0.58307,-0.790378 0.876801,-1.184228 l 0.0807,-0.110531 c 0.08293,-0.111185 0.166241,-0.222107 0.249175,-0.333301 0.02211,-0.03025 0.09082,-0.123018 0.199376,-0.269975 l 0.07958,-0.104701 c 0.149958,-0.197386 0.343126,-0.37725 0.550477,-0.513304 0.337782,-0.221048 0.651485,-0.235175 0.898933,-0.05074 0.109878,0.0808 0.206956,0.200778 0.287136,0.359215 0.131622,0.260257 0.197737,0.556565 0.274539,0.841962 0.254547,0.94677 0.726868,1.733638 1.476256,2.289536 0.167905,0.124068 0.349379,0.236463 0.545348,0.336716 0.502462,0.256581 1.008953,0.401749 1.511808,0.437639 0.295985,0.01214 0.59925,-0.01175 0.906329,-0.07481 0.290246,-0.0599 0.563522,-0.139876 0.819273,-0.239211 0.190389,-0.08461 0.378955,-0.185914 0.565423,-0.30355 0.552951,-0.34928 1.015403,-0.754296 1.37614,-1.214371 0.33525,-0.479238 0.587806,-1.040001 0.760759,-1.670433 0.05821,-0.212337 0.100149,-0.422247 0.125578,-0.629031 0.02041,-0.273926 0.01763,-0.558373 -0.01002,-0.85342 -0.0292,-0.312126 -0.09481,-0.609172 -0.192665,-0.888771 -0.180928,-0.470549 -0.467447,-0.912719 -0.859365,-1.318551 -0.153028,-0.158233 -0.313495,-0.299381 -0.481073,-0.423497 -0.750221,-0.554779 -1.64093,-0.777139 -2.620782,-0.744619 -0.29534,0.01007 -0.59805,0.0332 -0.885422,-0.01716 -0.17493,-0.0305 -0.318,-0.08839 -0.427322,-0.16994 -0.248507,-0.182608 -0.326495,-0.48713 -0.213526,-0.87468 0.06937,-0.23796 0.185432,-0.47522 0.330527,-0.676208 l 0.07695,-0.106636 c 0.108925,-0.146681 0.177634,-0.239448 0.195364,-0.263389 0.08657,-0.118057 0.168756,-0.229805 0.250567,-0.341829 l 0.0822,-0.109419 c 0.29116,-0.395464 0.584143,-0.789869 0.877175,-1.18395 0.630263,-0.853316 1.262447,-1.704921 1.894582,-2.556849 0.207784,-0.280545 0.415568,-0.56109 0.623402,-0.841311 0.0959,-0.1291 0.199218,-0.241997 0.308307,-0.338452 0.05268,-0.04845 0.102751,-0.08985 0.153308,-0.128001 0.590109,-0.417047 1.320049,-0.393694 1.986204,0.0994 0.201992,0.149604 0.397252,0.294221 0.592838,0.43879 1.131533,0.838064 2.262512,1.676874 3.395154,2.51344 0.32122,0.237331 0.640524,0.47295 0.960152,0.708523 0.228779,0.168576 0.469956,0.32432 0.719535,0.460512 0.20722,0.113219 0.413986,0.189898 0.615613,0.23207 0.724377,0.135663 1.357865,-0.135432 1.715478,-0.696874 0.100752,-0.174749 0.1771,-0.374811 0.223521,-0.597036 0.06675,-0.3181 0.05531,-0.656166 0.04966,-0.984444 -0.02253,-1.245569 0.507992,-2.352907 1.421533,-2.962241 0.225809,-0.15511 0.473818,-0.279585 0.740333,-0.369213 0.251974,-0.08447 0.510962,-0.133035 0.7714,-0.149547 0.872845,-0.08512 1.674331,0.186136 2.388353,0.728002 0.0628,0.04622 0.0785,0.05785 0.09389,0.06954 0.726438,0.524707 1.219623,1.212625 1.392602,2.072048 0.06046,0.253889 0.08917,0.515835 0.08183,0.78149 -0.0077,0.281017 -0.05475,0.554917 -0.137347,0.81581 -0.31654,1.051497 -1.221491,1.881515 -2.419199,2.223035 -0.315715,0.08997 -0.64238,0.177913 -0.927205,0.334495 -0.213516,0.117004 -0.392569,0.259826 -0.535394,0.42021 -0.409568,0.498631 -0.479478,1.157305 -0.164123,1.766227 0.126154,0.225798 0.259459,0.401278 0.428171,0.56649 0.202985,0.198708 0.422276,0.384007 0.650226,0.553703 0.31852,0.237068 0.637315,0.47376 0.956112,0.710456 1.132248,0.840617 2.264659,1.677885 3.395867,2.515995 0.19526,0.144618 0.390895,0.289511 0.570864,0.423097 0.6879473,0.509812 0.9227103,1.200959 0.6958143,1.887019 -0.02175,0.05948 -0.04682,0.119122 -0.07577,0.179343 -0.06244,0.137091 -0.1403103,0.268829 -0.2358423,0.398204 -0.207459,0.280499 -0.415245,0.561044 -0.623029,0.841589 -0.630639,0.853038 -1.261277,1.706076 -1.893786,2.557729 -0.291536,0.395189 -0.583071,0.790378 -0.8768,1.184228 l -0.0807,0.11053 c -0.08294,0.111197 -0.166242,0.222108 -0.249175,0.333302 -0.02211,0.03025 -0.09082,0.123018 -0.199376,0.269975 l -0.07958,0.104701 c -0.149959,0.197386 -0.343127,0.377251 -0.550477,0.513304 -0.337781,0.221047 -0.651486,0.235175 -0.898933,0.05075 -0.109877,-0.0808 -0.206955,-0.200779 -0.287137,-0.359215 -0.131622,-0.260257 -0.197737,-0.556566 -0.274537,-0.841961 -0.254548,-0.946771 -0.726869,-1.73364 -1.476257,-2.289538 -0.167628,-0.124443 -0.349475,-0.237114 -0.545397,-0.33704 z" inkscape:connector-curvature="0"/>
  <path id="path3774-9" style="fill:#333333;fill-opacity:1;stroke-width:1.59154093" sodipodi:nodetypes="ccccccccccccccccccccccccccccccccccccccccccccccccccccccccccccccccccccccccccccccccccccccccccccccccccccccccccccccccccccccccc" d="m -5.1035377,-12.534909 c -0.256584,0.502461 -0.401749,1.008952 -0.437639,1.511808 -0.01214,0.295986 0.01175,0.599248 0.07481,0.906328 0.05987,0.2902492 0.139876,0.5635222 0.239209,0.8192722 0.08461,0.190389 0.185918,0.378956 0.303552,0.565424 0.349281,0.552953 0.754294,1.015402 1.214369,1.376139 0.479241,0.33525 1.040003,0.587806 1.670436,0.760762 0.212335,0.05821 0.422246,0.100146 0.629031,0.125576 0.273925,0.02041 0.55837002,0.01763 0.85342002,-0.01002 0.312123,-0.0292 0.609187,-0.09471 0.88877,-0.192665 0.470547,-0.180928 0.91271898,-0.467447 1.31855198,-0.859364 0.15823,-0.153029 0.29938,-0.313495 0.423497,-0.481075 0.554776,-0.75022 0.777137,-1.640926 0.744616,-2.6207812 -0.01006,-0.29534 -0.0332,-0.59805 0.01716,-0.885423 0.0305,-0.174929 0.08839,-0.317999 0.169939,-0.427321 0.182608,-0.248507 0.48713,-0.326495 0.87468,-0.213526 0.237958,0.06937 0.475218,0.185432 0.676207,0.330527 l 0.106645,0.07695 c 0.146679,0.108926 0.239448,0.177635 0.263388,0.195366 0.118058,0.08657 0.229805,0.168754 0.341829,0.250566 l 0.109419,0.0822 c 0.395465,0.29116 0.789871,0.584143 1.18395,0.877175 0.853316,0.6302622 1.704921,1.2624472 2.557176,1.8945332 0.280546,0.207784 0.561091,0.415568 0.84131,0.6234 0.1290997,0.09591 0.2419987,0.19922 0.3384537,0.308309 0.04844,0.05269 0.08985,0.102751 0.128001,0.153309 0.417046,0.590111 0.393694,1.320049 -0.0994,1.986203 -0.149604,0.201992 -0.294222,0.397252 -0.4387897,0.592838 -0.838064,1.131533 -1.676875,2.262512 -2.513441,3.395155 -0.237331,0.321221 -0.472951,0.64052302 -0.708523,0.96014902 -1.867305,2.29563998 -3.704526,5.04862998 -4.170262,5.73767298 -0.256669,0.270385 -0.3751,0.552275 -0.540314,0.720986 -0.198707,0.202987 -0.384003,0.422277 -0.553702,0.650226 -0.237068,0.31852 -0.47376098,0.637316 -0.71045498,0.956112 -0.747759,1.007263 -1.492914,2.014137 -2.23811902,3.0206858 l -0.277876,0.375193 c -0.144617,0.195259 -0.289511,0.390893 -0.423097,0.570865 -0.509812,0.687946 -1.200959,0.922709 -1.887018,0.695811 -0.05947,-0.02175 -0.119122,-0.04681 -0.179344,-0.07577 -0.137091,-0.06244 -0.268829,-0.140312 -0.398204,-0.235844 -0.280497,-0.207458 -0.561042,-0.415243 -0.841589,-0.623026 -0.853038,-0.630639 -1.706076,-1.261278 -2.557729,-1.8937858 -0.395189,-0.291535 -0.790378,-0.58307 -1.184228,-0.876801 l -0.110531,-0.0807 c -0.111185,-0.08293 -0.222107,-0.166241 -0.333301,-0.249175 -0.03025,-0.02211 -0.123018,-0.09082 -0.2699753,-0.199376 l -0.104701,-0.07958 c -0.197386,-0.149958 -0.37725,-0.343126 -0.513304,-0.550477 -0.221048,-0.337782 -0.235175,-0.651485 -0.05074,-0.898933 0.0808,-0.109878 0.200778,-0.206956 0.359215,-0.287136 0.260257,-0.131622 0.5565653,-0.197737 0.8419623,-0.274539 0.94677,-0.254547 1.733638,-0.726868 2.289536,-1.476256 0.124068,-0.167905 0.236463,-0.349379 0.336716,-0.545348 0.256581,-0.502462 0.401749,-1.008953 0.437639,-1.511808 0.01214,-0.295986 -0.01175,-0.599251 -0.07481,-0.90633 -0.0599,-0.290246 -0.139876,-0.56352198 -0.239211,-0.81927298 -0.08461,-0.190389 -0.185914,-0.378955 -0.30355,-0.565423 -0.34928,-0.552951 -0.754296,-1.015403 -1.214371,-1.37614002 -0.479238,-0.33525 -1.040001,-0.587806 -1.670433,-0.760759 -0.2123373,-0.05821 -0.4222473,-0.100149 -0.6290313,-0.125578 -0.273926,-0.02041 -0.558373,-0.01763 -0.85342,0.01002 -0.312126,0.0292 -0.609172,0.09481 -0.888771,0.192665 -0.470549,0.180928 -0.912719,0.467447 -1.318551,0.859365 -0.158232,0.15302802 -0.29938,0.31349502 -0.423496,0.48107302 -0.554779,0.750221 -0.777139,1.64092998 -0.744619,2.62078198 0.01007,0.29534 0.0332,0.598051 -0.01716,0.885423 -0.0305,0.17493 -0.08839,0.318 -0.16994,0.427322 -0.182608,0.248507 -0.48713,0.326495 -0.87468,0.213526 -0.23796,-0.06937 -0.47522,-0.185432 -0.676208,-0.330527 l -0.106636,-0.07695 c -0.146681,-0.108925 -0.239448,-0.177634 -0.263389,-0.195364 -0.118057,-0.08657 -0.229805,-0.168756 -0.341829,-0.250567 l -0.109419,-0.0822 c -0.395464,-0.291161 -0.789869,-0.584144 -1.18395,-0.877176 -0.853316,-0.630263 -1.704921,-1.26244698 -2.556849,-1.89458198 -0.280545,-0.207784 -0.56109,-0.415568 -0.841311,-0.623402 -0.1291,-0.0959 -0.241997,-0.199218 -0.338452,-0.30830702 -0.04845,-0.05268 -0.08985,-0.102751 -0.128001,-0.153308 -0.417048,-0.590109 -0.393695,-1.320049 0.0994,-1.986204 0.149604,-0.201992 0.294221,-0.397252 0.43879,-0.592838 0.838064,-1.131533 1.676874,-2.262512 2.51344,-3.395154 0.237331,-0.32122 0.47295,-0.640524 0.708523,-0.960152 0.168576,-0.228779 0.32432,-0.469956 0.460512,-0.719535 0.113219,-0.20722 0.189898,-0.413986 0.23207,-0.615613 0.135663,-0.7243772 -0.135432,-1.3578652 -0.696874,-1.7154782 -0.174749,-0.100752 -0.374811,-0.1771 -0.597036,-0.223521 -0.3181,-0.06675 -0.656166,-0.05531 -0.984444,-0.04966 -1.245569,0.02253 -2.352907,-0.507992 -2.962242,-1.421533 -0.15511,-0.225809 -0.279585,-0.473818 -0.369213,-0.740333 -0.08447,-0.251974 -0.133035,-0.510962 -0.149546,-0.7714 -0.08512,-0.872845 0.186135,-1.674331 0.728001,-2.388353 0.04622,-0.0628 0.05785,-0.0785 0.06954,-0.09389 0.524708,-0.726438 1.212626,-1.219623 2.072049,-1.392602 0.253889,-0.06046 0.515835,-0.08917 0.78149,-0.08183 0.281017,0.0077 0.554917,0.05475 0.81581,0.137347 1.051497,0.31654 1.881515,1.221491 2.223035,2.419199 0.08997,0.315715 0.177913,0.64238 0.334495,0.927205 0.117004,0.213516 0.259826,0.392569 0.42021,0.535394 0.498631,0.409568 1.157305,0.479478 1.766227,0.164123 0.225798,-0.126154 0.401278,-0.259459 0.56649,-0.428171 0.198708,-0.202985 0.384006,-0.422276 0.553702,-0.650226 0.237068,-0.31852 0.47376,-0.637315 0.710456,-0.956112 0.840617,-1.132248 1.677885,-2.264659 2.515995,-3.395867 0.1446183,-0.19526 0.2895113,-0.390895 0.4230973,-0.570864 0.509812,-0.687947 1.200959,-0.92271 1.887019,-0.695814 0.05948,0.02175 0.119122,0.04682 0.179343,0.07577 0.137091,0.06244 0.268829,0.14031 0.398204,0.235842 0.280499,0.207459 0.561044,0.415245 0.841589,0.623029 0.853038,0.630639 1.706076,1.261277 2.557729,1.893786 0.395189,0.291536 0.790378,0.583071 1.184228,0.8768 l 0.11053,0.0807 c 0.111197,0.08294 0.222108,0.166242 0.333302,0.249175 0.03025,0.02211 0.123018,0.09082 0.269975,0.199376 l 0.104701,0.07958 c 0.197386,0.149959 0.377251,0.343127 0.513304,0.550477 0.221047,0.337781 0.235175,0.651486 0.05075,0.898933 -0.0808,0.109877 -0.200779,0.206955 -0.359215,0.287137 -0.260257,0.131622 -0.556566,0.197737 -0.841961,0.274537 -0.946771,0.254548 -1.73364,0.726869 -2.289538,1.476257 -0.124443,0.167628 -0.237114,0.349475 -0.33704,0.545397 z" inkscape:connector-curvature="0"/>
  <path id="path3774-9-7" style="fill:#333333;fill-opacity:1;stroke-width:1.59154093" sodipodi:nodetypes="ccccccccccccccccccccccccccccccccccccccccccccccccccccccccccccccccccccccccccccccccccccccccccccccccccccccccccccccccccccccccc" d="m -12.889047,17.050296 c -0.502461,-0.256584 -1.008952,-0.401749 -1.511808,-0.437639 -0.295986,-0.01214 -0.599248,0.01175 -0.906328,0.07481 -0.290249,0.05987 -0.563522,0.139876 -0.819272,0.239209 -0.190389,0.08461 -0.378956,0.185918 -0.565424,0.303552 -0.552953,0.349281 -1.015402,0.754294 -1.376139,1.214369 -0.33525,0.479241 -0.587806,1.040003 -0.760762,1.670436 -0.05821,0.212335 -0.100146,0.422246 -0.125576,0.629031 -0.02041,0.273925 -0.01763,0.55837 0.01002,0.85342 0.0292,0.312123 0.09471,0.609187 0.192665,0.88877 0.180928,0.470547 0.467447,0.912719 0.859364,1.318552 0.153029,0.15823 0.313495,0.29938 0.481075,0.423497 0.75022,0.554776 1.640926,0.777137 2.620781,0.744616 0.29534,-0.01006 0.59805,-0.0332 0.885423,0.01716 0.174929,0.0305 0.317999,0.08839 0.427321,0.169939 0.248507,0.182608 0.326495,0.48713 0.213526,0.87468 -0.06937,0.237958 -0.185432,0.475218 -0.330527,0.676207 l -0.07695,0.106645 c -0.108926,0.146679 -0.177635,0.239448 -0.195366,0.263388 -0.08657,0.118058 -0.168754,0.229805 -0.250566,0.341829 l -0.0822,0.109419 c -0.29116,0.395465 -0.584143,0.789871 -0.877175,1.18395 -0.630262,0.853316 -1.262447,1.704921 -1.894533,2.557176 -0.207784,0.280546 -0.415568,0.561091 -0.6234,0.84131 -0.09591,0.129099 -0.19922,0.241998 -0.308309,0.338453 -0.05269,0.04844 -0.102751,0.08985 -0.153309,0.128001 -0.590111,0.417046 -1.320049,0.393694 -1.986203,-0.0994 -0.201992,-0.149604 -0.397252,-0.294222 -0.592838,-0.438789 -1.131533,-0.838064 -2.262512,-1.676875 -3.395155,-2.513441 -0.321221,-0.237331 -0.640523,-0.472951 -0.960149,-0.708523 -2.29564,-1.867305 -5.04863,-3.704526 -5.737673,-4.170262 -0.270385,-0.256669 -0.552275,-0.3751 -0.720986,-0.540314 -0.202987,-0.198707 -0.422277,-0.384003 -0.650226,-0.553702 -0.31852,-0.237068 -0.637316,-0.473761 -0.956112,-0.710455 -1.007263,-0.747759 -2.014137,-1.492914 -3.020686,-2.238119 l -0.375193,-0.277876 c -0.195259,-0.144617 -0.390893,-0.289511 -0.570865,-0.423097 -0.687946,-0.509812 -0.922709,-1.200959 -0.695811,-1.887018 0.02175,-0.05947 0.04681,-0.119122 0.07577,-0.179344 0.06244,-0.137091 0.140312,-0.268829 0.235844,-0.398204 0.207458,-0.280497 0.415243,-0.561042 0.623026,-0.841589 0.630639,-0.853038 1.261278,-1.706076 1.893786,-2.557729 0.291535,-0.395189 0.58307,-0.790378 0.876801,-1.184228 l 0.0807,-0.110531 c 0.08293,-0.111185 0.166241,-0.222107 0.249175,-0.333301 0.02211,-0.03025 0.09082,-0.123018 0.199376,-0.269976 l 0.07958,-0.104701 c 0.149958,-0.197386 0.343126,-0.37725 0.550477,-0.513304 0.337782,-0.221048 0.651485,-0.235175 0.898933,-0.05074 0.109878,0.0808 0.206956,0.200778 0.287136,0.359215 0.131622,0.260257 0.197737,0.556566 0.274539,0.841963 0.254547,0.94677 0.726868,1.733638 1.476256,2.289536 0.167905,0.124068 0.349379,0.236463 0.545348,0.336716 0.502462,0.256581 1.008953,0.401749 1.511808,0.437639 0.295986,0.01214 0.599251,-0.01175 0.90633,-0.07481 0.290246,-0.0599 0.563522,-0.139876 0.819273,-0.239211 0.190389,-0.08461 0.378955,-0.185914 0.565423,-0.30355 0.552951,-0.34928 1.015403,-0.754296 1.37614,-1.214371 0.33525,-0.479238 0.587806,-1.040001 0.760759,-1.670433 0.05821,-0.212338 0.100149,-0.422248 0.125578,-0.629032 0.02041,-0.273926 0.01763,-0.558373 -0.01002,-0.85342 -0.0292,-0.312126 -0.09481,-0.609172 -0.192665,-0.8887709 -0.180928,-0.470549 -0.467447,-0.912719 -0.859365,-1.318551 -0.153028,-0.158232 -0.313495,-0.29938 -0.481073,-0.423496 -0.750221,-0.554779 -1.64093,-0.777139 -2.620782,-0.744619 -0.29534,0.01007 -0.598051,0.0332 -0.885423,-0.01716 -0.17493,-0.0305 -0.318,-0.08839 -0.427322,-0.1699401 -0.248507,-0.182608 -0.326495,-0.48713 -0.213526,-0.87468 0.06937,-0.23796 0.185432,-0.47522 0.330527,-0.676208 l 0.07695,-0.106636 c 0.108925,-0.146681 0.177634,-0.239448 0.195364,-0.263389 0.08657,-0.118057 0.168756,-0.229805 0.250567,-0.341829 l 0.0822,-0.109419 c 0.291161,-0.395464 0.584144,-0.789869 0.877176,-1.18395 0.630263,-0.853316 1.262447,-1.704921 1.894582,-2.556849 0.207784,-0.28054498 0.415568,-0.56108998 0.623402,-0.84131098 0.0959,-0.1291 0.199218,-0.241997 0.308307,-0.338452 0.05268,-0.04845 0.102751,-0.08985 0.153308,-0.128001 0.590109,-0.417048 1.320049,-0.393695 1.986204,0.0994 0.201992,0.149604 0.397252,0.294221 0.592838,0.43879 1.131533,0.83806398 2.262512,1.67687398 3.395154,2.51343998 0.32122,0.237331 0.640524,0.47295 0.960152,0.708523 0.228779,0.168576 0.469956,0.32432 0.719535,0.460512 0.20722,0.113219 0.413986,0.189898 0.615613,0.23207 0.724377,0.135663 1.357865,-0.135432 1.715478,-0.696874 0.100752,-0.174749 0.1771,-0.374811 0.223521,-0.597036 0.06675,-0.3181 0.05531,-0.656166 0.04966,-0.984444 -0.02253,-1.24556898 0.507992,-2.35290698 1.421533,-2.962242 0.225809,-0.15511 0.473818,-0.279585 0.740333,-0.369213 0.251974,-0.08447 0.510962,-0.133035 0.7714,-0.149546 0.872845,-0.08512 1.6743306,0.186135 2.3883526,0.72800102 0.0628,0.04622 0.0785,0.05785 0.09389,0.06954 0.726438,0.524708 1.219623,1.212626 1.392602,2.07204898 0.06046,0.253889 0.08917,0.515835 0.08183,0.78149 -0.0077,0.281017 -0.05475,0.554917 -0.137347,0.81581 -0.31654,1.051497 -1.221491,1.881515 -2.419199,2.223035 -0.315715,0.08997 -0.6423786,0.177913 -0.9272046,0.334495 -0.213516,0.117004 -0.392569,0.259826 -0.535394,0.42021 -0.409568,0.498631 -0.479478,1.157305 -0.164123,1.7662271 0.126154,0.225798 0.259459,0.401278 0.428171,0.56649 0.202985,0.198708 0.422276,0.384006 0.650226,0.553702 0.3185196,0.237068 0.6373146,0.47376 0.9561116,0.710456 1.132248,0.8406169 2.264659,1.6778849 3.395867,2.5159949 0.1952599,0.144619 0.3908959,0.289512 0.5708649,0.423098 0.687947,0.509812 0.92271,1.200959 0.695814,1.887019 -0.02175,0.05948 -0.04682,0.119122 -0.07577,0.179343 -0.06244,0.137091 -0.14031,0.268829 -0.235842,0.398204 -0.207459,0.280499 -0.415245,0.561044 -0.62303,0.841589 -0.6306389,0.853038 -1.2612769,1.706076 -1.8937859,2.557729 -0.291536,0.395189 -0.583071,0.790378 -0.8768,1.184228 l -0.0807,0.11053 c -0.08294,0.111197 -0.166242,0.222108 -0.249175,0.333302 -0.02211,0.03025 -0.09082,0.123018 -0.199376,0.269975 l -0.07958,0.104701 c -0.149959,0.197386 -0.343127,0.377251 -0.550477,0.513304 -0.337781,0.221047 -0.6514856,0.235175 -0.8989326,0.05075 -0.109877,-0.0808 -0.206955,-0.200779 -0.287137,-0.359215 -0.131622,-0.260257 -0.197737,-0.556566 -0.274537,-0.841961 -0.254548,-0.946771 -0.726869,-1.73364 -1.476257,-2.289538 -0.167628,-0.124443 -0.349475,-0.237114 -0.545397,-0.33704 z" inkscape:connector-curvature="0"/>
  <path id="path3774-9-7-5" style="fill:#333333;fill-opacity:1;stroke-width:1.59154093" sodipodi:nodetypes="cccccccccccccccccccccccccccccccccccccccccccccccccccccccccccccccccccccccccccccccccccccccccccccccccccc" d="m -42.681413,9.1266803 c 0.256584,-0.502461 0.401749,-1.008952 0.437639,-1.511808 0.01214,-0.295986 -0.01175,-0.599248 -0.07481,-0.906328 -0.05987,-0.290249 -0.139876,-0.563522 -0.239209,-0.819272 -0.08461,-0.190389 -0.185918,-0.378956 -0.303552,-0.565424 -0.349281,-0.552953 -0.754294,-1.015402 -1.214369,-1.376139 -0.479241,-0.33525 -1.040003,-0.587806 -1.670436,-0.760762 -0.212335,-0.05821 -0.422246,-0.100146 -0.629031,-0.125576 -0.273925,-0.02041 -0.55837,-0.01763 -0.85342,0.01002 -0.312123,0.0292 -0.609187,0.09471 -0.88877,0.192665 -0.470547,0.180928 -0.912719,0.467447 -1.318552,0.859364 -0.15823,0.153029 -0.29938,0.313495 -0.423497,0.481075 -0.554776,0.75022 -0.777137,1.640926 -0.744616,2.620781 0.01006,0.29534 0.0332,0.59805 -0.01716,0.885423 -0.0305,0.174929 -0.08839,0.317999 -0.169939,0.427321 -0.182608,0.248507 -0.48713,0.326495 -0.87468,0.213526 -0.237958,-0.06937 -0.475218,-0.185432 -0.676207,-0.330527 l -0.106645,-0.07695 c -0.146679,-0.108926 -0.239448,-0.177635 -0.263388,-0.195366 -0.118058,-0.08657 -0.229805,-0.168754 -0.341829,-0.250566 l -0.109419,-0.0822 c -0.395465,-0.29116 -0.789871,-0.584143 -1.18395,-0.877175 -0.853316,-0.630262 -1.704921,-1.262447 -2.557176,-1.894533 -0.280546,-0.207784 -0.561091,-0.415568 -0.84131,-0.6234 -0.129099,-0.09591 -0.241998,-0.19922 -0.338453,-0.308309 -0.04844,-0.05269 -0.08985,-0.102751 -0.128001,-0.153309 -0.417046,-0.590111 -0.393694,-1.320049 0.0994,-1.986203 0.149604,-0.201992 0.294222,-0.397252 0.438789,-0.592838 0.838064,-1.13153298 1.676875,-2.26251201 2.513441,-3.395155 0.237331,-0.321221 0.472951,-0.640523 0.708523,-0.960149 1.867305,-2.29564 3.704526,-5.04863 4.170262,-5.737673 0.256669,-0.270385 0.3751,-0.552275 0.540314,-0.720986 0.198707,-0.202987 0.384003,-0.422277 0.553702,-0.6502253 0.237068,-0.31852 0.473761,-0.637316 0.710455,-0.956112 0.747759,-1.007263 1.492914,-2.014137 2.238119,-3.020686 l 0.277876,-0.375193 c 0.144617,-0.195259 0.289511,-0.390893 0.423097,-0.570865 0.509812,-0.687946 1.200959,-0.922709 1.887018,-0.695811 0.05947,0.02175 0.119122,0.04681 0.179344,0.07577 0.137091,0.06244 0.268829,0.140312 0.398204,0.235844 0.280497,0.207458 0.561042,0.415243 0.841589,0.623026 0.853038,0.630639 1.706076,1.261278 2.557729,1.893786 0.395189,0.291535 0.771454,0.554213 1.165304,0.847944 l 0.110531,0.0807 c 0.111185,0.08293 0.222107,0.166241 0.333301,0.249175 0.03025,0.02211 0.123018,0.09082 0.269976,0.199376 l 0.104701,0.07958 c 0.422018,0.381087 4.273392,3.2459023 6.416151,4.7672073 l 0.106636,0.07695 c 0.146681,0.108925 0.239448,0.177634 0.263389,0.195364 0.118057,0.08657 0.229805,0.168756 0.341829,0.250567 l 0.109419,0.0822 c 0.395464,0.291161 0.789869,0.584144 1.18395,0.877176 0.853316,0.630263 1.704921,1.262447 2.556849,1.894582 0.280545,0.207784 0.56109,0.415568 0.841311,0.623402 0.1291,0.0959 0.241997,0.199218 0.338452,0.308307 0.04845,0.05268 0.08985,0.102751 0.128001,0.153308 0.417048,0.590109 0.393695,1.32004899 -0.0994,1.98620402 -0.149604,0.20199200389 -0.294221,0.397252 -0.43879,0.592838 -0.838064,1.13153298 -1.676874,2.26251198 -2.51344,3.39515398 -0.237331,0.32122 -0.47295,0.640524 -0.708523,0.960152 -0.168576,0.228779 -0.32432,0.469956 -0.460512,0.719535 -0.113219,0.20722 -0.189898,0.413986 -0.23207,0.615613 -0.135663,0.724377 0.135432,1.357865 0.696874,1.715478 0.174749,0.100752 0.374811,0.1771 0.597036,0.223521 0.3181,0.06675 0.656166,0.05531 0.984444,0.04966 1.245569,-0.02253 2.352907,0.507992 2.962242,1.421533 0.15511,0.2258093 0.279585,0.4738183 0.369213,0.7403337 0.08447,0.251974 0.133035,0.510962 0.149546,0.7714 0.08512,0.872845 -0.186135,1.674331 -0.728001,2.388353 -0.04622,0.0628 -0.05785,0.0785 -0.06954,0.09389 -0.524708,0.726438 -1.212626,1.219623 -2.072049,1.392602 -0.253889,0.06046 -0.515835,0.08917 -0.78149,0.08183 -0.281017,-0.0077 -0.554917,-0.05475 -0.81581,-0.137347 -1.051497,-0.31654 -1.881515,-1.221491 -2.223035,-2.419199 -0.08997,-0.315715 -0.177913,-0.642379 -0.334495,-0.927205 -0.117004,-0.213516 -0.259826,-0.392569 -0.42021,-0.535394 -0.498631,-0.409568 -1.157305,-0.479478 -1.766228,-0.164123 -0.225798,0.126154 -0.401278,0.259459 -0.56649,0.428171 -0.198708,0.202985 -0.384006,0.422276 -0.553702,0.650226 -0.237068,0.31852 -0.47376,0.637315 -0.710456,0.956112 -0.840616,1.132248 -1.677884,2.264659 -2.515994,3.395867 -0.144619,0.19526 -0.289512,0.390896 -0.423098,0.570865 -0.509812,0.687947 -1.200959,0.92271 -1.887019,0.695814 -0.05948,-0.02175 -0.119122,-0.04682 -0.179343,-0.07577 -0.137091,-0.06244 -0.268829,-0.14031 -0.398204,-0.235842 -0.280499,-0.207459 -0.561044,-0.415245 -0.841589,-0.62303 -0.853038,-0.630639 -1.706076,-1.261277 -2.557729,-1.893786 -0.395189,-0.291536 -0.790378,-0.583071 -1.184228,-0.8768 l -0.11053,-0.0807 c -0.111197,-0.08294 -0.222108,-0.166242 -0.333302,-0.249175 -0.03025,-0.02211 -0.123018,-0.09082 -0.269975,-0.199376 l -0.104701,-0.07958 c -0.197386,-0.149959 -0.377251,-0.343127 -0.513304,-0.550477 -0.221047,-0.337781 -0.235175,-0.651486 -0.05075,-0.898933 0.0808,-0.109877 0.200779,-0.206955 0.359215,-0.287137 0.260257,-0.131622 0.556566,-0.197737 0.841961,-0.274537 0.946771,-0.254548 1.73364,-0.726869 2.289538,-1.4762574 0.124443,-0.1676283 0.237114,-0.3494753 0.33704,-0.5453973 z" inkscape:connector-curvature="0"/>
 </g>
</svg>
