<?xml version='1.0' encoding='UTF-8' standalone='no'?>
<!-- Created with Inkscape (http://www.inkscape.org/) -->
<svg inkscape:export-xdpi="96" xmlns:sodipodi="http://sodipodi.sourceforge.net/DTD/sodipodi-0.dtd" xmlns:svg="http://www.w3.org/2000/svg" viewBox="0 0 298.74888 456.05142" width="298.74887mm" sodipodi:docname="+TT.svg" xmlns="http://www.w3.org/2000/svg" xmlns:dc="http://purl.org/dc/elements/1.1/" id="svg1643" xmlns:cc="http://creativecommons.org/ns#" xmlns:rdf="http://www.w3.org/1999/02/22-rdf-syntax-ns#" height="456.05142mm" version="1.1" inkscape:export-filename="C:\Users\max-k\Desktop\SENSO-Trail\Karten\+Transekten.png" inkscape:export-ydpi="96" inkscape:version="0.92.4 (5da689c313, 2019-01-14)" xmlns:inkscape="http://www.inkscape.org/namespaces/inkscape">
 <defs id="defs1637">
  <marker style="overflow:visible" refX="0" orient="auto" refY="0" id="Arrow1Lend" inkscape:isstock="true" inkscape:stockid="Arrow1Lend">
   <path style="fill:#4d4d4d;fill-opacity:1;fill-rule:evenodd;stroke:#4d4d4d;stroke-width:1.00000003pt;stroke-opacity:1" inkscape:connector-curvature="0" id="path1781" transform="matrix(-0.8,0,0,-0.8,-10,0)" d="M 0,0 5,-5 -12.5,0 5,5 Z"/>
  </marker>
  <marker style="overflow:visible" refX="0" orient="auto" refY="0" id="Arrow1Lstart" inkscape:isstock="true" inkscape:stockid="Arrow1Lstart">
   <path style="fill:#000000;fill-opacity:1;fill-rule:evenodd;stroke:#000000;stroke-width:1.00000003pt;stroke-opacity:1" inkscape:connector-curvature="0" id="path1778" transform="matrix(0.8,0,0,0.8,10,0)" d="M 0,0 5,-5 -12.5,0 5,5 Z"/>
  </marker>
  <inkscape:path-effect vertical_pattern="false" prop_units="false" prop_scale="0.26458333" copytype="single_stretched" tang_offset="0" id="path-effect1370" spacing="0" pattern="M 0,5 C 0,2.24 2.24,0 5,0 7.76,0 10,2.24 10,5 10,7.76 7.76,10 5,10 2.24,10 0,7.76 0,5 Z" fuse_tolerance="0" is_visible="true" scale_y_rel="false" normal_offset="0" effect="skeletal"/>
  <clipPath clipPathUnits="userSpaceOnUse" id="clipPath1445">
   <rect ry="0" style="fill:#000000;fill-opacity:1;stroke:none;stroke-width:0.33813748;stroke-miterlimit:4;stroke-dasharray:none;stroke-opacity:0.99305558" y="286.94397" x="-4.4099469" width="6.9323034" id="rect1447" height="4.192791" rx="0"/>
  </clipPath>
  <clipPath clipPathUnits="userSpaceOnUse" id="clipPath3321">
   <rect style="opacity:0.51099997;fill:none;fill-opacity:1;stroke:#000000;stroke-width:0.42558613;stroke-miterlimit:4;stroke-dasharray:none;stroke-dashoffset:0;stroke-opacity:1" ry="1.5809379" x="753.90729" y="386.0423" width="20.003973" id="rect3323" height="20.326616" rx="2.6286676"/>
  </clipPath>
  <clipPath clipPathUnits="userSpaceOnUse" id="clipPath1097">
   <rect style="opacity:0.51099997;fill:none;fill-opacity:1;stroke:#000000;stroke-width:0.42558613;stroke-miterlimit:4;stroke-dasharray:none;stroke-dashoffset:0;stroke-opacity:1" ry="1.5809379" x="536.27081" y="-122.35031" width="20.003973" id="rect1099" height="20.326616" rx="2.6286676"/>
  </clipPath>
  <clipPath clipPathUnits="userSpaceOnUse" id="clipPath1119">
   <rect ry="1.5809379" style="opacity:0.51099997;fill:none;fill-opacity:1;stroke:#000000;stroke-width:0.42558613;stroke-miterlimit:4;stroke-dasharray:none;stroke-dashoffset:0;stroke-opacity:1" y="74.346153" x="330.99872" width="20.003973" id="rect1121" height="20.326616" rx="2.6286676"/>
  </clipPath>
  <clipPath clipPathUnits="userSpaceOnUse" id="clipPath1411">
   <rect style="opacity:0.99199997;fill:#0088aa;fill-opacity:1;stroke:#447821;stroke-width:3.68700004;stroke-miterlimit:4;stroke-dasharray:1.84350005, 1.84350005;stroke-dashoffset:0;stroke-opacity:0" y="565.86609" x="799.48285" width="94.666862" id="rect1413" height="67.351921"/>
  </clipPath>
 </defs>
 <sodipodi:namedview inkscape:zoom="0.3535534" inkscape:cy="927.44122" inkscape:window-x="-9" borderopacity="1.0" inkscape:window-y="-9" inkscape:pageopacity="0.0" inkscape:snap-others="true" fit-margin-right="0" inkscape:window-width="1920" inkscape:guide-bbox="true" bordercolor="#666666" inkscape:document-units="mm" id="base" fit-margin-left="0" showguides="true" inkscape:pageshadow="2" showgrid="false" pagecolor="#ffffff" inkscape:window-maximized="1" inkscape:snap-global="false" inkscape:window-height="1001" fit-margin-bottom="0" inkscape:snap-bbox="true" inkscape:cx="112.72146" inkscape:current-layer="layer1" inkscape:snap-nodes="true" fit-margin-top="0"/>
 <metadata id="metadata1640">
  <rdf:RDF>
   <cc:Work rdf:about="">
    <dc:format>image/svg+xml</dc:format>
    <dc:type rdf:resource="http://purl.org/dc/dcmitype/StillImage"/>
    <dc:title/>
   </cc:Work>
  </rdf:RDF>
 </metadata>
 <g inkscape:groupmode="layer" id="layer1" transform="translate(19.319937,75.10423)" inkscape:label="Ebene 1">
  <flowRoot style="font-style:normal;font-weight:normal;font-size:40px;line-height:1.25;font-family:sans-serif;letter-spacing:0px;word-spacing:0px;fill:#000000;fill-opacity:1;stroke:none" id="flowRoot2344" xml:space="preserve" transform="matrix(0.26458333,0,0,0.26458333,0,149)">
   <flowRegion id="flowRegion2346">
    <rect x="52.142857" y="335.79861" width="132.85715" id="rect2348" height="45.714287"/>
   </flowRegion>
   <flowPara id="flowPara2350"/>
  </flowRoot>
  <flowRoot style="font-style:normal;font-variant:normal;font-weight:normal;font-stretch:normal;font-size:16px;line-height:1.25;font-family:sans-serif;-inkscape-font-specification:'sans-serif, Normal';font-variant-ligatures:normal;font-variant-caps:normal;font-variant-numeric:normal;font-feature-settings:normal;text-align:start;letter-spacing:0px;word-spacing:0px;writing-mode:lr-tb;text-anchor:start;fill:#000000;fill-opacity:1;stroke:none" id="flowRoot2422-4-1-6-1" xml:space="preserve" transform="matrix(0.5290602,0,0,0.5290602,0.90877694,103.34547)">
   <flowRegion style="font-style:normal;font-variant:normal;font-weight:normal;font-stretch:normal;font-size:16px;font-family:sans-serif;-inkscape-font-specification:'sans-serif, Normal';font-variant-ligatures:normal;font-variant-caps:normal;font-variant-numeric:normal;font-feature-settings:normal;text-align:start;writing-mode:lr-tb;text-anchor:start" id="flowRegion2418-7-7-2-8">
    <rect style="font-style:normal;font-variant:normal;font-weight:normal;font-stretch:normal;font-size:16px;font-family:sans-serif;-inkscape-font-specification:'sans-serif, Normal';font-variant-ligatures:normal;font-variant-caps:normal;font-variant-numeric:normal;font-feature-settings:normal;text-align:start;writing-mode:lr-tb;text-anchor:start" y="27.227198" x="50.714287" width="172.14285" id="rect2416-6-5-1-5" height="24.999996"/>
   </flowRegion>
   <flowPara id="flowPara2438-3-9-7-9"/>
  </flowRoot>
  <g id="g1279">
   <g style="font-style:normal;font-weight:normal;font-size:40px;line-height:1.25;font-family:sans-serif;letter-spacing:0px;word-spacing:0px;fill:#000000;fill-opacity:1;stroke:none" id="flowRoot924" transform="matrix(0,0.26458333,-0.26458333,0,399.23973,52.93846)" aria-label="TT">
    <path style="" id="path2082" d="m 143.44141,577.68071 h -10.39063 v 25.64453 h -3.86719 v -25.64453 h -10.39062 v -3.4375 h 24.64844 z"/>
    <path style="" id="path2084" d="m 166.80078,577.68071 h -10.39062 v 25.64453 h -3.86719 v -25.64453 h -10.39063 v -3.4375 h 24.64844 z"/>
   </g>
   <g style="font-style:normal;font-weight:normal;font-size:40px;line-height:1.25;font-family:sans-serif;letter-spacing:0px;word-spacing:0px;fill:#000000;fill-opacity:1;stroke:none" id="flowRoot924-2" transform="matrix(0,0.26458333,-0.26458333,0,368.37847,97.475799)" aria-label="TT">
    <path style="" id="path2087" d="m 143.44141,577.68071 h -10.39063 v 25.64453 h -3.86719 v -25.64453 h -10.39062 v -3.4375 h 24.64844 z"/>
    <path style="" id="path2089" d="m 166.80078,577.68071 h -10.39062 v 25.64453 h -3.86719 v -25.64453 h -10.39063 v -3.4375 h 24.64844 z"/>
   </g>
   <g style="font-style:normal;font-weight:normal;font-size:40px;line-height:1.25;font-family:sans-serif;letter-spacing:0px;word-spacing:0px;fill:#000000;fill-opacity:1;stroke:none" id="flowRoot924-0" transform="matrix(0,0.26458333,-0.26458333,0,395.31924,122.1715)" aria-label="TT">
    <path style="" id="path2092" d="m 143.44141,577.68071 h -10.39063 v 25.64453 h -3.86719 v -25.64453 h -10.39062 v -3.4375 h 24.64844 z"/>
    <path style="" id="path2094" d="m 166.80078,577.68071 h -10.39062 v 25.64453 h -3.86719 v -25.64453 h -10.39063 v -3.4375 h 24.64844 z"/>
   </g>
   <g style="font-style:normal;font-weight:normal;font-size:40px;line-height:1.25;font-family:sans-serif;letter-spacing:0px;word-spacing:0px;fill:#000000;fill-opacity:1;stroke:none" id="flowRoot924-06" transform="matrix(0,0.26458333,-0.26458333,0,360.14657,171.56291)" aria-label="TT">
    <path style="" id="path2097" d="m 143.44141,577.68071 h -10.39063 v 25.64453 h -3.86719 v -25.64453 h -10.39062 v -3.4375 h 24.64844 z"/>
    <path style="" id="path2099" d="m 166.80078,577.68071 h -10.39062 v 25.64453 h -3.86719 v -25.64453 h -10.39063 v -3.4375 h 24.64844 z"/>
   </g>
   <g style="font-style:normal;font-weight:normal;font-size:40px;line-height:1.25;font-family:sans-serif;letter-spacing:0px;word-spacing:0px;fill:#000000;fill-opacity:1;stroke:none" id="flowRoot924-5" transform="matrix(0,0.26458333,-0.26458333,0,308.5101,178.2981)" aria-label="TT">
    <path style="" id="path2102" d="m 143.44141,577.68071 h -10.39063 v 25.64453 h -3.86719 v -25.64453 h -10.39062 v -3.4375 h 24.64844 z"/>
    <path style="" id="path2104" d="m 166.80078,577.68071 h -10.39062 v 25.64453 h -3.86719 v -25.64453 h -10.39063 v -3.4375 h 24.64844 z"/>
   </g>
   <g style="font-style:normal;font-weight:normal;font-size:40px;line-height:1.25;font-family:sans-serif;letter-spacing:0px;word-spacing:0px;fill:#000000;fill-opacity:1;stroke:none" id="flowRoot924-3" transform="matrix(0,0.26458333,-0.26458333,0,328.71567,149.11227)" aria-label="TT">
    <path style="" id="path2107" d="m 143.44141,577.68071 h -10.39063 v 25.64453 h -3.86719 v -25.64453 h -10.39062 v -3.4375 h 24.64844 z"/>
    <path style="" id="path2109" d="m 166.80078,577.68071 h -10.39062 v 25.64453 h -3.86719 v -25.64453 h -10.39063 v -3.4375 h 24.64844 z"/>
   </g>
   <g style="font-style:normal;font-weight:normal;font-size:40px;line-height:1.25;font-family:sans-serif;letter-spacing:0px;word-spacing:0px;fill:#000000;fill-opacity:1;stroke:none" id="flowRoot924-02" transform="matrix(0,0.26458333,-0.26458333,0,317.49035,253.88192)" aria-label="TT">
    <path style="" id="path2112" d="m 143.44141,577.68071 h -10.39063 v 25.64453 h -3.86719 v -25.64453 h -10.39062 v -3.4375 h 24.64844 z"/>
    <path style="" id="path2114" d="m 166.80078,577.68071 h -10.39062 v 25.64453 h -3.86719 v -25.64453 h -10.39063 v -3.4375 h 24.64844 z"/>
   </g>
   <g style="font-style:normal;font-weight:normal;font-size:40px;line-height:1.25;font-family:sans-serif;letter-spacing:0px;word-spacing:0px;fill:#000000;fill-opacity:1;stroke:none" id="flowRoot924-9" transform="matrix(0,0.26458333,-0.26458333,0,249.39008,206.73558)" aria-label="TT">
    <path style="" id="path2117" d="m 143.44141,577.68071 h -10.39063 v 25.64453 h -3.86719 v -25.64453 h -10.39062 v -3.4375 h 24.64844 z"/>
    <path style="" id="path2119" d="m 166.80078,577.68071 h -10.39062 v 25.64453 h -3.86719 v -25.64453 h -10.39063 v -3.4375 h 24.64844 z"/>
   </g>
   <g style="font-style:normal;font-weight:normal;font-size:40px;line-height:1.25;font-family:sans-serif;letter-spacing:0px;word-spacing:0px;fill:#000000;fill-opacity:1;stroke:none" id="flowRoot924-8" transform="matrix(0,0.26458333,-0.26458333,0,204.4888,168.56949)" aria-label="TT">
    <path style="" id="path2122" d="m 143.44141,577.68071 h -10.39063 v 25.64453 h -3.86719 v -25.64453 h -10.39062 v -3.4375 h 24.64844 z"/>
    <path style="" id="path2124" d="m 166.80078,577.68071 h -10.39062 v 25.64453 h -3.86719 v -25.64453 h -10.39063 v -3.4375 h 24.64844 z"/>
   </g>
   <g style="font-style:normal;font-weight:normal;font-size:40px;line-height:1.25;font-family:sans-serif;letter-spacing:0px;word-spacing:0px;fill:#000000;fill-opacity:1;stroke:none" id="flowRoot924-7" transform="matrix(0,0.26458333,-0.26458333,0,228.43615,116.18467)" aria-label="TT">
    <path style="" id="path2127" d="m 143.44141,577.68071 h -10.39063 v 25.64453 h -3.86719 v -25.64453 h -10.39062 v -3.4375 h 24.64844 z"/>
    <path style="" id="path2129" d="m 166.80078,577.68071 h -10.39062 v 25.64453 h -3.86719 v -25.64453 h -10.39063 v -3.4375 h 24.64844 z"/>
   </g>
   <g style="font-style:normal;font-weight:normal;font-size:40px;line-height:1.25;font-family:sans-serif;letter-spacing:0px;word-spacing:0px;fill:#000000;fill-opacity:1;stroke:none" id="flowRoot924-89" transform="matrix(0,0.26458333,-0.26458333,0,183.53487,138.6353)" aria-label="TT">
    <path style="" id="path2132" d="m 143.44141,577.68071 h -10.39063 v 25.64453 h -3.86719 v -25.64453 h -10.39062 v -3.4375 h 24.64844 z"/>
    <path style="" id="path2134" d="m 166.80078,577.68071 h -10.39062 v 25.64453 h -3.86719 v -25.64453 h -10.39063 v -3.4375 h 24.64844 z"/>
   </g>
   <g style="font-style:normal;font-weight:normal;font-size:40px;line-height:1.25;font-family:sans-serif;letter-spacing:0px;word-spacing:0px;fill:#000000;fill-opacity:1;stroke:none" id="flowRoot924-25" transform="matrix(0,0.26458333,-0.26458333,0,185.03158,21.891979)" aria-label="TT">
    <path style="" id="path2137" d="m 143.44141,577.68071 h -10.39063 v 25.64453 h -3.86719 v -25.64453 h -10.39062 v -3.4375 h 24.64844 z"/>
    <path style="" id="path2139" d="m 166.80078,577.68071 h -10.39062 v 25.64453 h -3.86719 v -25.64453 h -10.39063 v -3.4375 h 24.64844 z"/>
   </g>
   <g style="font-style:normal;font-weight:normal;font-size:40px;line-height:1.25;font-family:sans-serif;letter-spacing:0px;word-spacing:0px;fill:#000000;fill-opacity:1;stroke:none" id="flowRoot924-1" transform="matrix(0,0.26458333,-0.26458333,0,231.42957,4.679822)" aria-label="TT">
    <path style="" id="path2142" d="m 143.44141,577.68071 h -10.39063 v 25.64453 h -3.86719 v -25.64453 h -10.39062 v -3.4375 h 24.64844 z"/>
    <path style="" id="path2144" d="m 166.80078,577.68071 h -10.39062 v 25.64453 h -3.86719 v -25.64453 h -10.39063 v -3.4375 h 24.64844 z"/>
   </g>
   <g style="font-style:normal;font-weight:normal;font-size:40px;line-height:1.25;font-family:sans-serif;letter-spacing:0px;word-spacing:0px;fill:#000000;fill-opacity:1;stroke:none" id="flowRoot924-91" transform="matrix(0,0.26458333,-0.26458333,0,165.57436,-43.214875)" aria-label="TT">
    <path style="" id="path2147" d="m 143.44141,577.68071 h -10.39063 v 25.64453 h -3.86719 v -25.64453 h -10.39062 v -3.4375 h 24.64844 z"/>
    <path style="" id="path2149" d="m 166.80078,577.68071 h -10.39062 v 25.64453 h -3.86719 v -25.64453 h -10.39063 v -3.4375 h 24.64844 z"/>
   </g>
  </g>
 </g>
 <style id="style2" type="text/css">
	.st0{fill:#464646;}
	.st1{fill:#D1D1D1;}
</style>
 <style id="style1115" type="text/css">
	.st0{fill:#464646;}
	.st1{fill:#D1D1D1;}
</style>
 <style id="style1133" type="text/css">
	.st0{fill:#D1D1D1;}
	.st1{fill:#454545;}
</style>
</svg>
